<?xml version="1.0" ?><!DOCTYPE svg  PUBLIC '-//W3C//DTD SVG 1.1//EN'  'http://www.w3.org/Graphics/SVG/1.1/DTD/svg11.dtd'>
<svg enable-background="new 0 0 512 512" height="512px"
	version="1.1" viewBox="0 0 512 512" width="512px" xml:space="preserve"
	xmlns="http://www.w3.org/2000/svg"
	xmlns:xlink="http://www.w3.org/1999/xlink">
	<filter id="darker">
	  <feComponentTransfer>
	      <feFuncR type="linear" slope="0.75"/>
	      <feFuncG type="linear" slope="0.75"/>
	      <feFuncB type="linear" slope="0.75"/>
	  </feComponentTransfer>
	</filter>
	<filter id="lighter">
	  <feComponentTransfer>
	      <feFuncR type="linear" slope="2"/>
	      <feFuncG type="linear" slope="2"/>
	      <feFuncB type="linear" slope="2"/>
	  </feComponentTransfer>
	</filter>
	<g id="Background" class='background'>
		<circle cx="256" cy="256" id="Background_1_" r="256" />
	</g>
	<g id="Shadow">
		<ellipse cx="256" cy="428.157" opacity="0.2" rx="181.035" ry="8.002" />
		<path d="M474.183,333.756L398.214,185.6l-16.75-7.74l-29.112-73.184l-5.796-6.905l-9.044-28.451l-5.668,10.948   l-12.909-13.672l-20.808,10.427l7.865,20.748l-13.262,5.222l-111.984,59.395l-66.144-67.193l-13.28,31.465l63.499,70.144   l4.035,29.19l24.057,31.415l-12.167-2.221l-15.924,24.741l-40.949-16.824l-42.296,32.346l98.342,88.91l-7.815,20.304   l-41.899-48.787l-9.415,8.672l18.526,64.607H444.54c23.336-25.396,41.601-55.519,53.207-88.769l-12.729-22.747L474.183,333.756z" opacity="0.15" />
	</g>
	<g id="Foot">
		<g class="clothing">
			<path d="M196.472,359.375c-10.088-0.307-23.006,12.185-30.615,30.49c-2.878,6.927-4.608,13.79-5.279,20.041   l28.457,11.827C189.034,421.734,205.714,379.949,196.472,359.375z" />
			<path filter="url(#darker)" d="M359.431,383.011c-8.229-5.995-26.085-2.319-42.492,9.366c-5.37,3.826-9.961,8.086-13.633,12.42   l17.351,24.359C320.657,429.157,353.966,404.714,359.431,383.011z" />
		</g>
		<g class="metal">
			<path d="M130.206,355.877c-4.67-0.09-9,1.184-12.628,4.47c0,0-25.986,16.104,21.739,68.81l21.261-19.25   c-5.366-3.278-10.833-7.77-15.868-13.33C131.402,381.881,125.62,364.867,130.206,355.877z" />
			<path filter="url(#darker)" d="M359.431,383.011c1.422-5.638,0.993-11.091-2.419-15.88c0,0-12.965-27.688-70.876,13.564l17.17,24.102   c3.672-4.334,8.263-8.594,13.633-12.42C333.346,380.692,351.202,377.016,359.431,383.011z" />
		</g>
		<g class="motion">
			<path d="M134.965,371.865l-1.129-0.78c11.258-16.239,16.981-17.384,38.269-7.662l-0.571,1.248    C149.614,354.661,145.325,356.923,134.965,371.865z" />
			<path d="M142.386,384.098h-1.373c0-3.138,2.326-6.535,6.071-8.87c5.37-3.344,12-3.658,17.738-0.84l-0.606,1.233    c-5.309-2.607-11.442-2.318-16.406,0.773C144.515,378.447,142.386,381.471,142.386,384.098z" />
			<path d="M150.169,390.63l-1.192-0.681c3.787-6.629,5.969-7.081,13.737-2.826l-0.659,1.203    C154.599,384.246,153.423,384.934,150.169,390.63z" />
		</g>
	</g>
	<g id="Hand">
		<g class="metal">
			<polygon filter="url(#darker)" points="485.018,317.641 484.941,329.623 492.446,338.96 481.025,342.588 474.46,352.61 467.484,342.873    455.922,339.728 463.029,330.081 462.447,318.115 473.815,321.889  " />
			<path filter="url(#darker)" d="M415.011,331c4.114-8.376,4.722-17.24,0.797-24.604c-0.118-0.23-0.278-0.433-0.408-0.654l-10.485,5.598   l-13.311-25.916l-19.898,10.218l23.29,45.351l19.815-9.586l0.002,0.007c0.002-0.004,0.004-0.008,0.006-0.011l0.318-0.154   L415.011,331z" />
			<polygon points="103.915,296.057 92.853,291.781 81.577,295.451 82.224,283.61 75.25,274.018 86.712,270.976    93.68,261.379 100.116,271.338 111.394,274.999 103.911,284.198  " />
			<path d="M173.152,247.421l-13.49,26.688l0.044-0.089l-11.903-5.296c-0.052,0.099-0.121,0.183-0.17,0.282   c-3.907,7.666-2.907,16.852,1.79,25.36l-0.134,0.266l20.183,9.156l23.443-46.38L173.152,247.421z" />
		</g>
		<g class="clothing">
			<path filter="url(#darker)" d="M100.458,271.338h-0.686c0-4.54,6.417-8.233,14.304-8.233v0.686    C106.567,263.791,100.458,267.177,100.458,271.338z" />
			<polygon filter="url(#darker)" points="478.853,325.492 478.816,331.485 482.57,336.152 476.859,337.966 473.577,342.979 470.087,338.11    464.307,336.536 467.859,331.715 467.568,325.728 473.254,327.616  " />
			<polygon points="97.962,288.599 92.431,286.461 86.792,288.296 87.115,282.376 83.629,277.582 89.36,276.058    92.845,271.259 96.062,276.24 101.702,278.071 97.959,282.67  " />
			<path filter="url(#darker)" d="M431.511,311.905c-0.041,0.253-0.042,0.51-0.098,0.765c-1.647,8.321-7.896,14.882-16.601,18.742   l41.109,8.316l7.106-9.647l-0.582-11.966L431.511,311.905z" />
			<path d="M147.633,269.007c0.05-0.1,0.119-0.184,0.17-0.282l-24.354-12.54l-9.373,7.265l-2.683,11.549l38.054,19.417   C144.729,285.892,143.718,276.688,147.633,269.007z" />
		</g>
		<g class="motion" filter="url(#darker)">
			<path d="M386.327,278.073l-1.371-0.096c1.283-18.374-12.079-27.738-20.156-31.685    c-13.696-6.691-29.876-6.893-34.656-2.601l-0.918-1.022c5.205-4.672,21.783-4.643,36.176,2.388    C373.791,249.156,387.665,258.898,386.327,278.073z" />
			<path d="M374.656,276.92c-0.019-8.683-5.785-16.678-15.823-21.933c-10.139-5.31-22.324-6.545-27.736-2.811    l-0.781-1.131c5.797-3.997,18.602-2.8,29.155,2.725c10.504,5.5,16.54,13.937,16.559,23.147L374.656,276.92z" />
			<path d="M364.882,278.14c-0.87-5.099-6.394-11.508-12.851-14.907c-6.105-3.211-12.477-3.588-17.938-1.064    l-0.578-1.244c5.861-2.709,12.664-2.323,19.155,1.095c6.912,3.638,12.617,10.32,13.563,15.891L364.882,278.14z" />
		</g>
	</g>
	<g id="Head">
		<g id="mainPart">
			<g id="ears">
				<g class="metal">
					<path d="M109.962,129.552c2.59-0.26,5.102-1.415,7.013-3.472l6.898-7.433l-9.27-23.453l-13.862,15.814    c-0.208,0.226-0.397,0.46-0.583,0.697C105.493,117.912,108.946,124.305,109.962,129.552z" />
					<path filter="url(#darker)" d="M318.935,66.597c-2.381-0.322-4.883,0.178-7.041,1.618l-13.767,8.81l11.347,17.01l13.769-8.811    c0.235-0.157,0.455-0.328,0.676-0.5C320.456,78.008,318.724,71.528,318.935,66.597z" />
				</g>
				<g class="clothing">
					<path d="M101.324,126.66c2.424,2.251,5.587,3.197,8.638,2.892c-1.016-5.247-4.469-11.64-9.804-17.847    C96.626,116.192,97.065,122.708,101.324,126.66z" />
					<path filter="url(#darker)" d="M339.991,80.071c0.792-3.928-0.234-7.791-2.479-10.75c-4.777,4.371-9.194,11.98-12.225,21.417    C332.153,91.546,338.604,86.97,339.991,80.071z" />
				</g>
				<g id="springs" class="metal" filter="url(#darker)">
					<path d="M222.754,97.609l-0.611-0.313c0.139-0.27,0.331-0.588,0.541-0.935c0.623-1.027,1.44-2.375,1.367-3.458    c-1.251,0.962-2.646,1.743-3.725,2.159c-4.389,1.692-7.467,0.985-8.135-0.538c-0.382-0.874,0.021-2.208,2.305-3.333    c2.364-1.164,5.402-1.233,6.759-1.003c1.574,0.267,2.596,0.776,3.11,1.553c1.398-1.243,2.374-2.634,2.116-3.699    c-0.078-0.325-0.209-0.869-0.653-1.404c-1.29,0.881-3.357,1.78-6.622,2.559c-2.127,0.508-4.763,0.526-5.52-0.635    c-0.225-0.345-0.364-0.927,0.253-1.74c1.702-2.244,7.083-2.439,7.311-2.447c2.398,0.055,3.809,0.621,4.659,1.355    c1.167-0.955,1.291-1.798,1.234-2.268c-0.166-1.411-2.092-2.503-3.639-2.503c-0.01,0-0.08-0.003-0.265-0.003    c-0.923,0-4.143,0.081-7.337,1.117l-0.212-0.653c3.875-1.257,7.66-1.153,7.822-1.147c0.001,0,0.002,0,0.003,0    c1.86,0,4.093,1.276,4.311,3.108c0.083,0.71-0.122,1.746-1.445,2.841c0.431,0.544,0.641,1.133,0.768,1.658    c0.356,1.474-0.86,3.141-2.486,4.528c0.369,1.406-0.64,3.069-1.392,4.309C223.071,97.05,222.887,97.351,222.754,97.609z     M219.749,90.766c-1.428,0-3.352,0.254-4.949,1.042c-1.547,0.762-2.305,1.697-1.979,2.441c0.449,1.026,3.066,1.789,7.258,0.173    c1.186-0.457,2.573-1.28,3.755-2.233c-0.382-0.642-1.287-1.086-2.694-1.323C220.785,90.805,220.304,90.766,219.749,90.766z     M221.254,85.061c-0.035,0.002-5.263,0.192-6.768,2.175c-0.302,0.397-0.378,0.717-0.225,0.951    c0.403,0.617,2.346,0.924,4.785,0.342c3.142-0.75,5.087-1.585,6.281-2.373C224.587,85.583,223.352,85.109,221.254,85.061z" />
					<path d="M294.794,97.771l-0.254-0.638c0.282-0.113,0.634-0.226,1.021-0.35c1.146-0.365,2.646-0.845,3.302-1.71    c-1.576-0.096-3.14-0.422-4.227-0.818c-4.422-1.607-6.279-4.161-5.781-5.748c0.284-0.909,1.466-1.652,3.926-1    c2.547,0.674,4.883,2.615,5.756,3.682c1.013,1.234,1.449,2.29,1.325,3.213c1.872-0.02,3.521-0.427,4.028-1.4    c0.174-0.334,0.481-0.928,0.422-1.777c-1.354,0.219-3.511-0.478-6.669-2.129c-1.938-1.014-3.938-2.73-3.745-4.104    c0.056-0.408,0.333-0.938,1.334-1.147c2.749-0.574,6.941,2.812,7.12,2.956c1.463,1.334,2.19,2.491,2.488,3.479    c0.691-0.587,0.458-2.083,0.27-3.291c-0.172-1.104-0.308-1.977,0.134-2.4l0.476,0.495c-0.183,0.175-0.037,1.115,0.07,1.799    c0.222,1.429,0.499,3.208-0.61,4.002c-0.061,0.043-0.124,0.083-0.189,0.118c0.103,0.946-0.178,1.712-0.491,2.316    c-0.699,1.345-2.687,1.817-4.849,1.782c-0.645,1.303-2.497,1.895-3.88,2.336C295.403,97.557,295.065,97.664,294.794,97.771z     M291.063,87.945c-0.834,0-1.394,0.264-1.552,0.77c-0.335,1.067,1.138,3.362,5.36,4.897c1.193,0.434,2.781,0.723,4.299,0.781    c0.131-0.735-0.259-1.665-1.162-2.768c-0.819-1-3.011-2.821-5.402-3.453C292.027,88.02,291.507,87.945,291.063,87.945z     M295.918,84.466c-0.188,0-0.371,0.017-0.548,0.053c-0.488,0.102-0.754,0.293-0.793,0.568c-0.101,0.731,1.164,2.239,3.385,3.4    c3.501,1.833,5.303,2.203,6.23,2.06c-0.248-0.873-0.889-1.949-2.29-3.226C301.879,87.303,298.37,84.466,295.918,84.466z" />
				</g>
			</g>
			<g id="face">
				<g class="clothing">
					<path d="M338.907,94.545l-139.881,1.448c40.151,49.625,94.833,86.956,157.498,105.571l-0.851-82.208    C355.53,105.56,348.022,94.45,338.907,94.545z" />
				</g>
				<g class="metal">
					<path d="M199.026,95.993l-21.063,0.219c-9.116,0.095-16.391,11.355-16.248,25.153l0.884,85.354    c0.142,13.797,7.648,24.907,16.765,24.812l160.944-1.666c9.117-0.095,16.393-11.356,16.251-25.153l-0.034-3.147    C293.859,182.948,239.177,145.618,199.026,95.993z" />
					<path d="M340.006,102.994c-1.765,0.019-3.182,1.465-3.163,3.23s1.464,3.181,3.229,3.163    c1.768-0.019,3.184-1.463,3.167-3.229C343.217,104.393,341.772,102.976,340.006,102.994z" />
					<circle filter="url(#darker)" cx="177.552" cy="107.873" r="3.196" />
				</g>
			</g>			
			<g id="mouth">
				<g id="lips" class="skin-alt">
					<rect height="47.543" transform="matrix(0.9999 -0.0104 0.0104 0.9999 -1.9391 2.6941)" width="144.809" x="186.793" y="164.828" />
					<polygon points="210.802,155.206 198.689,134.716 210.375,113.982 234.179,113.735 246.294,134.224     234.605,154.96   " />
					<polygon points="364.838,209.443 353.056,189.029 364.838,168.619 388.41,168.619 400.196,189.029 388.41,209.443" />
				</g>
				<g id="mouth-line" class="metal">
					<polygon filter="url(#lighter)" points="203.216,205.512 200.805,204.196 213.771,180.458 239.387,193.949 262.029,176.278      294.833,197.008 317.534,172.279 319.557,174.137 295.304,200.554 262.196,179.632 239.676,197.206 214.884,184.148    " />
				</g>
			</g>
			<g id="eyes">
				<g id="whites" class="metal">
					<path d="M227.297,126.241c-1.443-0.846-3.109-1.354-4.905-1.335c-5.281,0.054-9.52,4.38-9.466,9.663    c0.023,2.227,0.838,4.24,2.129,5.854C218.17,134.921,222.338,130.112,227.297,126.241z" />
					<path d="M363.047,184.336c-0.53,1.567-0.685,3.286-0.305,5.023c1.119,5.108,6.168,8.343,11.278,7.224   c2.154-0.472,3.942-1.665,5.244-3.244C373.303,191.428,367.798,188.358,363.047,184.336z" />
				</g>
				<g id="iris" class="eye">
					<path d="M222.59,144.035c5.282-0.054,9.521-4.38,9.464-9.663c-0.035-3.487-1.951-6.489-4.758-8.13    c-4.958,3.871-9.126,8.68-12.242,14.182C216.829,142.635,219.533,144.066,222.59,144.035z" />
					<path d="M381.247,185.306c-1.119-5.112-6.168-8.345-11.278-7.225c-3.372,0.738-5.897,3.201-6.921,6.254   c4.751,4.022,10.256,7.092,16.218,9.003C381.054,191.175,381.895,188.264,381.247,185.306z" />
				</g>
				
				<path id="right-eye-socket" d="M285.792,112.746l-12.969,22.453l12.969,22.453h25.927l12.96-22.453l-12.96-22.453H285.792z    M310.537,155.612h-23.571l-11.782-20.413l11.782-20.412h23.571l11.785,20.412L310.537,155.612z" fill="#603913" />
				<polygon id="right-eye-hole" class="background" points="286.965,114.788 275.183,135.199 286.965,155.612 310.537,155.612 322.322,135.199    310.537,114.788  " />
				<path class="metal" filter="url(#lighter)" id="right-eye-spring" d="M354.98,190.735c-17.807-2.128-20.838-13.719-23.049-22.181c-1.096-4.196-2.045-7.819-4.398-9.192    c-1.528-0.89-3.768-0.927-6.849-0.109c-23.096,6.129-27.795,3.38-29.32,0.78c-2.194-3.737,2.383-8.643,2.912-9.19    c0.687-0.672,4.105-3.797,7.141-2.52s3.035,5.802,3.035,7.29h-3.434c0-2.95-0.61-3.988-0.933-4.125    c-0.604-0.253-2.312,0.746-3.378,1.78c-1.333,1.386-2.984,4.011-2.383,5.03c0.374,0.635,3.359,3.509,25.478-2.362    c4.01-1.063,7.104-0.913,9.459,0.462c3.587,2.09,4.754,6.558,5.992,11.289c2.179,8.338,4.65,17.791,20.133,19.641L354.98,190.735z" />
			</g>
		</g>
		<g class="motion">
			<path d="M122.163,84.123h-1.373c0-4.621,5.26-10.599,13.729-15.6c17.276-10.206,48.127-16.235,78.217,0.349    l-0.664,1.204c-29.583-16.307-59.89-10.392-76.855-0.372C127.288,74.389,122.163,80.049,122.163,84.123z" />
			<path d="M139.282,85.728h-1.373c0-2.461,3.071-5.928,8.014-9.046c11.757-7.416,31.596-11.868,52.014-2.122    l-0.591,1.239c-19.916-9.505-39.243-5.177-50.69,2.043C141.563,81.057,139.282,84.119,139.282,85.728z" />
			<path d="M156.191,91.921h-1.372c0-2.882,1.96-5.944,5.379-8.4c5.017-3.604,14.485-6.594,24.665-3.165l-0.438,1.302    c-9.686-3.264-18.673-0.436-23.424,2.978C157.944,86.832,156.191,89.486,156.191,91.921z" />
		</g>		
	</g>
	<g id="Body">
		<g id="torso">
			<g class="clothing">
				<path d="M294.657,259.866c9.159,0,18.019,1.02,26.443,2.882v-6.554c0-12.776-4.79-23.134-10.688-23.134H206.212    c-5.902,0-10.688,10.358-10.688,23.134v79.037c0,0.8,0.021,1.595,0.056,2.373C196.758,294.513,240.647,259.866,294.657,259.866z" />
			</g>
			<g class="metal">
				<path d="M206.415,358.363h104.201c5.899,0,10.686-10.356,10.686-23.132v-72.483    c-8.422-1.862-17.282-2.882-26.441-2.882c-54.01,0-97.899,34.647-99.076,77.738C196.332,349.261,200.882,358.363,206.415,358.363z" />
			</g>
		</g>
		<g id="buttons-lights">
			<g class="colour1">
				<rect height="9.176" width="17.765" x="210.288" y="240.158" />
				<rect height="9.176" width="17.767" x="274.964" y="252.763" />
				<rect height="9.175" width="17.763" x="243.675" y="247.024" />
			</g>
			<g class="colour2">
				<rect height="6.579" width="12.737" x="233.162" y="255.188" />
				<rect height="6.578" width="12.737" x="266.764" y="241.457" />
				<rect height="31.877" opacity="0.5" width="17.765" x="209.134" y="319.772" />
				<rect height="34.008" opacity="0.5" width="17.765" x="290.177" y="317.641" />
				<rect height="34.008" opacity="0.5" width="17.766" x="249.656" y="317.641" />
				<rect height="41.162" transform="matrix(0.2908 -0.9568 0.9568 0.2908 -188.4411 407.6423)" width="17.647" x="171.923" y="310.35" />
				<rect height="39.874" transform="matrix(-0.8547 -0.5192 0.5192 -0.8547 230.9782 804.6232)" width="12.655" x="221.782" y="350.046" />
				<rect height="41.16" transform="matrix(0.4424 0.8968 -0.8968 0.4424 530.4945 5.0872)" width="17.646" x="252.333" y="408.577" />
				<rect height="41.161" transform="matrix(-0.8194 0.5732 -0.5732 -0.8194 803.822 472.1842)" width="17.648" x="318.704" y="342.137" />
			</g>
			<g class="colour3">
				<rect height="32.014" opacity="0.5" width="12.738" x="232.146" y="317.641" />
				<rect height="31.798" opacity="0.5" width="12.737" x="272.882" y="317.857" />
				<rect height="39.874" transform="matrix(-0.8547 -0.5192 0.5192 -0.8547 230.9782 804.6232)" width="12.655" x="221.782" y="350.046" />
				<rect height="40.158" transform="matrix(-0.786 0.6182 -0.6182 -0.786 641.7096 373.0539)" width="12.654" x="249.959" y="277.517" />
			</g>
		</g>
		<g class="motion">
			<rect height="40.111" width="1.373" x="249.913" y="364.686" />
			<rect height="1.373" transform="matrix(0.0198 0.9998 -0.9998 0.0198 633.9484 117.1113)" width="17.392" x="248.553" y="381.171" />
			<rect height="32.27" transform="matrix(0.9999 0.0107 -0.0107 0.9999 4.0956 -2.8234)" width="1.372" x="265.832" y="366.079" />
			<rect height="10.117" width="1.373" x="260.471" y="380.172" />
		</g>
	</g>
				
	<g id="shadow-overlay" fill="#131313" opacity="0.1" >
		<polygon points="223.312,113.847 223.738,155.072 234.605,154.96 246.294,134.224 234.179,113.735       " />
		<path d="M339.564,94.312l-80.673,0.835l1.398,135.318l80.677-0.834    c9.116-0.095,16.392-11.357,16.247-25.154l-0.031-3.146l-0.854-82.207C356.188,105.326,348.681,94.217,339.564,94.312z" />
		<path d="M321.1,256.194c0-12.776-4.79-23.134-10.688-23.134h-52.1v125.303h52.303   c5.899,0,10.686-10.356,10.686-23.132v-72.483c-0.068-0.015-0.137-0.028-0.201-0.041V256.194z" />
		
	</g>

</svg>