<?xml version="1.0" ?>
<!DOCTYPE svg  PUBLIC '-//W3C//DTD SVG 1.1//EN'  'http://www.w3.org/Graphics/SVG/1.1/DTD/svg11.dtd'>
<svg enable-background="new 0 0 512 512" height="512px" version="1.1"
	viewBox="0 0 512 512" width="512px" xml:space="preserve"
	xmlns="http://www.w3.org/2000/svg"
	xmlns:xlink="http://www.w3.org/1999/xlink">
	
		<filter id="darker">
	  <feComponentTransfer>
	      <feFuncR type="linear" slope="0.75"/>
	      <feFuncG type="linear" slope="0.75"/>
	      <feFuncB type="linear" slope="0.75"/>
	  </feComponentTransfer>
	</filter>
	<filter id="darker2">
	  <feComponentTransfer>
	      <feFuncR type="linear" slope="0.25"/>
	      <feFuncG type="linear" slope="0.25"/>
	      <feFuncB type="linear" slope="0.25"/>
	  </feComponentTransfer>
	</filter>
	<filter id="lighter">
	  <feComponentTransfer>
	      <feFuncR type="linear" slope="2"/>
	      <feFuncG type="linear" slope="2"/>
	      <feFuncB type="linear" slope="2"/>
	  </feComponentTransfer>
	</filter>
	<filter id="lighter2">
	  <feComponentTransfer>
	      <feFuncR type="linear" slope="5"/>
	      <feFuncG type="linear" slope="5"/>
	      <feFuncB type="linear" slope="5"/>
	  </feComponentTransfer>
	</filter>
	
	<g id="Background" class="background">
		<circle cx="256" cy="256" id="Background_1_" r="256" />
	</g>
	<g id="Shadow">
		<ellipse cx="255.939" cy="446.005" fill="#161616" opacity="0.5" rx="162.939" ry="9.225" />
		<path d="M500.106,333.311L331.935,102.571l-15.71,10.088l-5.178-5.956h2.972L275.09,59.316l-4.414-2.046   l-2.044,0.725l-5.537-1.614c-13.743-2.175-18.947,8.199-24.082,19.813c-5.136,11.614,4.918,29.149,4.918,29.149l9.424,1.36h48.75   c1.096,3.207,2.921,8.413,4.353,12.228l-154.724,99.364l23.551,36.89l-11.216,16.52l-38.187,77.803c0,0-4.887,37.461-7.098,53.255   c-2.21,15.793-8.082,17.061-8.082,17.061l26.536,26.181h290.315C460.874,415.902,486.231,377.161,500.106,333.311z" opacity="0.2" />
	</g>
	<g id="Foot" class="metal">
		<path id="left-foot" filter="url(#lighter)" d="M204.354,379.106c-16.236,0.002-29.393,29.319-29.386,65.481l58.795-0.007    C233.757,408.42,220.59,379.106,204.354,379.106z" />
		<path id="right-foot" d="M290.92,379.106c-16.235,0.002-29.393,29.319-29.386,65.481l58.796-0.007    C320.322,408.42,307.155,379.106,290.92,379.106z" />
		<polygon id="right-sole" fill="#231F20" points="309.082,444.457 272.233,444.615 272.215,442.205 309.064,442.047   " />
		<polygon id="left-sole" fill="#231F20" points="222.516,444.457 185.667,444.615 185.649,442.205 222.498,442.047   " />
		<g id="overlays" fill="#191818" opacity="0.1"> 
			<path d="M291.082,444.585l29.248-0.004c-0.008-36.042-13.089-65.271-29.248-65.466V444.585z" />
			<path d="M204.354,379.106c-0.091,0-0.181,0.014-0.271,0.015v65.465l29.68-0.005    C233.757,408.42,220.59,379.106,204.354,379.106z" />
		</g>
	</g>
	<g id="Body" class="clothing">
		<path filter="url(#lighter)" d="M311.463,238.411l-128.113-1.935c-12.262-0.185-22.446,9.697-22.632,21.957l-1.666,110.385   c-0.186,12.263,9.695,22.446,21.958,22.632l128.115,1.935c12.262,0.185,22.446-9.696,22.631-21.959l1.667-110.384   C333.606,248.778,323.726,238.595,311.463,238.411z" />
		<g id="buttons">
			<g id="off-button">
				<ellipse cx="314.816" cy="339.205" fill="#EA2A2D" rx="11.805" ry="12.689" transform="matrix(0.0151 -0.9999 0.9999 0.0151 -29.1153 648.8497)" />
				<g id="off-text" fill="#272626">
					<path d="M313.027,339.454c-0.043,2.738-1.803,4.164-3.927,4.132c-2.195-0.034-3.713-1.685-3.678-4.092     c0.039-2.523,1.704-4.151,3.927-4.118C311.62,335.411,313.063,337.096,313.027,339.454z M306.571,339.487     c-0.024,1.7,0.915,3.236,2.604,3.26c1.703,0.027,2.688-1.457,2.714-3.261c0.024-1.58-0.813-3.247-2.602-3.273     C307.511,336.186,306.599,337.742,306.571,339.487z" />
					<path d="M314.485,335.584l4.479,0.066l-0.015,0.862l-3.404-0.051l-0.04,2.641l3.146,0.049l-0.012,0.85     l-3.147-0.048l-0.056,3.599l-1.072-0.017L314.485,335.584z" />
					<path d="M320.497,335.674l4.479,0.068l-0.012,0.861l-3.406-0.052l-0.039,2.643l3.146,0.048l-0.013,0.849     l-3.147-0.047l-0.053,3.597l-1.074-0.014L320.497,335.674z" />				
				</g>
				<path id="off-button-overlay" d="M327.515,339.397c0.084-5.576-4.101-10.3-9.799-11.623    c-4.389,1.22-7.723,6.164-7.813,12.141c-0.072,4.732,1.909,8.88,4.893,11.076C321.764,350.882,327.419,345.778,327.515,339.397z" fill="#191818" opacity="0.1" />
				
			</g>
			<g id="on-button">
				<ellipse cx="179.012" cy="337.155" fill="#3FB172" rx="11.805" ry="12.691" transform="matrix(0.0151 -0.9999 0.9999 0.0151 -160.8035 511.0631)" />
				<g id="on-button-text" fill="#232323">
					<path d="M179.087,337.03c-0.042,2.737-1.802,4.164-3.925,4.132c-2.197-0.034-3.714-1.685-3.678-4.092     c0.038-2.523,1.705-4.151,3.926-4.118C177.68,332.987,179.123,334.674,179.087,337.03z M172.632,337.064     c-0.026,1.699,0.914,3.235,2.604,3.26c1.703,0.026,2.688-1.458,2.715-3.264c0.024-1.578-0.815-3.245-2.604-3.271     C173.571,333.762,172.658,335.319,172.632,337.064z" />
					<path d="M180.424,341.111l0.12-7.951l1.172,0.017l2.605,4.063c0.603,0.94,1.071,1.787,1.455,2.607l0.023-0.012     c-0.083-1.063-0.092-2.031-0.073-3.27l0.05-3.328l1.012,0.016l-0.121,7.951l-1.086-0.016l-2.579-4.074     c-0.567-0.894-1.108-1.812-1.516-2.678l-0.038,0.011c0.048,1.004,0.057,1.96,0.038,3.279l-0.052,3.399L180.424,341.111z" />
				</g>
				<path id="on-button-overlay" d="M191.701,337.346c0.088-5.859-4.433-10.775-10.436-11.792    c-3.961,1.659-6.888,6.624-6.977,12.542c-0.066,4.434,1.479,8.372,3.899,10.822c0.215,0.013,0.428,0.036,0.646,0.04    C185.841,349.063,191.603,343.864,191.701,337.346z" fill="#303030" opacity="0.2" />				
			</g>
		</g>	
	
		<g id="door">
			<rect id="door" filter="url(#darker2)" height="101.861" transform="matrix(0.0151 -0.9999 0.9999 0.0151 -98.3651 583.7325)" width="71.637" x="211.307" y="290.867" />
			<g id="door-buttons">
				<path d="M281.338,314.432l-0.554-0.01c-1.262-0.018-2.311,1-2.33,2.262l-0.753,49.836   c-0.019,1.261,0.999,2.31,2.261,2.328l0.554,0.009c1.262,0.021,2.311-0.997,2.33-2.261l0.754-49.835   C283.617,315.498,282.6,314.449,281.338,314.432z" fill="#191818" opacity="0.6" />
				<path d="M280.976,320.002c-1.413-0.023-2.589,1.068-2.608,2.42l-0.133,8.852c-0.021,1.354,1.12,2.478,2.534,2.498   c1.415,0.021,2.589-1.068,2.609-2.419l0.133-8.854C283.531,321.146,282.392,320.023,280.976,320.002z" fill="#FAED26" />
				<path d="M280.739,335.739c-1.415-0.022-2.589,1.067-2.609,2.42l-0.134,8.853c-0.021,1.353,1.121,2.477,2.535,2.497   c1.415,0.021,2.59-1.067,2.608-2.42l0.134-8.852C283.294,336.884,282.153,335.761,280.739,335.739z" fill="#0E9547" />
				<path d="M280.502,351.477c-1.416-0.021-2.588,1.067-2.609,2.42l-0.134,8.853c-0.021,1.353,1.12,2.476,2.534,2.498   c1.414,0.021,2.589-1.067,2.61-2.421l0.133-8.852C283.058,352.622,281.917,351.497,280.502,351.477z" fill="#2677BD" />
			</g>
			<g id="bolts">
				<ellipse cx="202.615" cy="310.748" fill="#818385" rx="3.062" ry="3.52" transform="matrix(0.6964 0.7177 -0.7177 0.6964 284.5312 -51.0623)" />
				<polygon fill="#5B5C5E" points="205.404,311.354 205.516,310.351 199.825,310.143 199.713,311.145   " />
				<ellipse cx="291.137" cy="312.08" fill="#818385" rx="3.063" ry="3.519" transform="matrix(-0.1532 -0.9882 0.9882 -0.1532 27.3499 647.5963)" />
				<polygon fill="#5B5C5E" points="289.211,309.973 288.541,310.726 293.063,314.187 293.734,313.432   " />
				<ellipse cx="201.679" cy="372.714" fill="#818385" rx="3.062" ry="3.52" transform="matrix(0.6964 0.7176 -0.7176 0.6964 328.6967 -31.5835)" />
				<polygon fill="#5B5C5E" points="204.468,373.319 204.58,372.316 198.89,372.109 198.777,373.111   " />
				<ellipse cx="290.203" cy="374.047" fill="#818385" rx="3.063" ry="3.52" transform="matrix(-0.1532 -0.9882 0.9882 -0.1532 -34.963 718.134)" />
				<polygon fill="#5B5C5E" points="288.276,371.939 287.605,372.692 292.129,376.152 292.799,375.399   " />
			</g>
		</g>
		
		<g id="body-features">
			<path d="M314.231,277.527c-1.332-6.543,0.278-13.726,4.417-19.706l-0.809-0.561   c-4.29,6.202-5.958,13.659-4.574,20.462c1.191,5.852,4.539,10.779,9.427,13.872l0.524-0.832   C318.558,287.813,315.365,283.113,314.231,277.527z" fill="#631113" />
			<path d="M172.653,291.33l-0.809-0.56c5.194-7.507,7.407-16.353,5.921-23.661    c-0.991-4.872-3.506-8.708-7.272-11.091l0.526-0.832c3.998,2.532,6.665,6.585,7.709,11.727    C180.268,274.478,177.997,283.606,172.653,291.33z" fill="#631113" />			
		</g>
		<g id="speaker">
			<path d="M311.463,238.411l-62.505-0.944l-2.34,154.973l62.506,0.944   c12.262,0.185,22.446-9.696,22.631-21.959l1.667-110.384C333.606,248.778,323.726,238.595,311.463,238.411z" fill="#191818" opacity="0.1" />
			<ellipse class="clothing" filter="url(#lighter2)" cx="247.607" cy="276.598" rx="22.732" ry="21.15" transform="matrix(0.0151 -0.9999 0.9999 0.0151 -32.6988 520.0004)" />
			<path d="M247.818,254.359c-1.184-0.02-2.344,0.075-3.477,0.26    c-2.165,3.184-16.102,25.232-1.154,43.994c1.28,0.283,2.601,0.446,3.956,0.467c11.551,0.176,21.065-9.695,21.25-22.045    C268.579,264.686,259.368,254.532,247.818,254.359z" fill="#1C1C1C" opacity="0.2" />
			<path d="M266.171,265.684c-9.898,8.02-26.491,8.03-37.1,0.024" fill="none" />
			<path d="M266.653,286.576c-10.104,8.189-27.25,8.045-38.333-0.319" fill="none" />
			<path d="M266.957,286.951c1.415-3.023,2.233-6.425,2.288-10.026c0.193-12.804-9.357-23.368-21.288-23.548     c-11.931-0.181-21.796,10.09-21.99,22.896c-0.056,3.694,0.704,7.2,2.094,10.325l-0.037,0.051c0.028,0.023,0.059,0.04,0.088,0.062     c3.447,7.647,10.696,12.981,19.144,13.109c8.568,0.129,16.071-5.13,19.691-12.849c0.005-0.004,0.01-0.007,0.017-0.011     L266.957,286.951z M247.025,283.465c7.676,0.116,15.343-2.021,21.23-6.393c-0.073,3.317-0.821,6.453-2.101,9.261     c-9.858,7.821-26.432,7.689-37.262-0.279c-1.176-2.697-1.86-5.688-1.934-8.835C232.693,281.262,239.854,283.357,247.025,283.465z      M226.961,276.026c0.089-3.453,0.91-6.707,2.299-9.594c5.158,3.719,11.635,5.644,18.083,5.74     c6.801,0.103,13.544-1.828,18.646-5.751c1.356,2.837,2.163,6.026,2.264,9.398C257.062,284.621,238.697,284.727,226.961,276.026z      M247.942,254.36c7.547,0.114,14.093,4.597,17.599,11.175c-9.641,7.539-25.515,7.544-35.832,0.013     C233.342,258.774,240.183,254.243,247.942,254.36z M247.271,298.836c-7.477-0.112-13.974-4.512-17.503-10.99     c5.246,3.389,11.578,5.15,17.84,5.246c6.343,0.096,12.597-1.515,17.549-4.82C261.447,294.7,254.79,298.95,247.271,298.836z" fill="#333333" />
		</g>
	</g>
	<g id="Hand" class="metal">
		<g id="left">
			<path id="left-arm" filter="url(#lighter)" d="M163.072,259.488c-7.434-3.024-15.813,1.797-18.717,10.769c0,0-21.28,62.197-21.039,62.295l-21.104,57.375    l14.168,5.462l33.38-60.872l21.511-53.309C174.176,272.236,170.505,262.512,163.072,259.488z" />
			<path id="left-hand" filter="url(#darker2)" d="M110.704,419.824c0.676-2.162,1.312-4.337,1.933-6.516c2.559-1.199,4.579-3.075,5.595-5.513    c2.469-5.926-1.874-12.847-9.702-15.455c-7.827-2.608-16.175,0.082-18.646,6.01c-1.021,2.449-0.864,5.065,0.211,7.477    c-1.376,1.65-2.792,3.276-4.179,4.921c-3.342-4.47-4.415-9.888-2.334-14.88c3.705-8.892,15.938-13.022,27.324-9.228    c11.386,3.795,17.613,14.077,13.908,22.967C122.562,415.013,117.154,418.65,110.704,419.824z" />
		</g>
		<g id="right">
			<path id="right-arm" d="M365.375,335.417c0.263-0.089-15.184-67.638-15.184-67.638c-2.057-9.732-10.292-15.381-18.395-12.616    c-8.104,2.763-13.007,12.895-10.951,22.626l16.663,58.095l28.246,66.88l15.413-4.948L365.375,335.417z" />
			<path id="right-hand" filter="url(#darker2)" d="M369.018,429.136c-0.471-2.346-0.897-4.7-1.309-7.059c-2.544-1.433-4.451-3.556-5.246-6.212    c-1.936-6.465,3.363-13.568,11.835-15.865c8.47-2.299,16.905,1.08,18.839,7.543c0.801,2.673,0.352,5.448-1.036,7.951    c1.256,1.842,2.561,3.661,3.831,5.498c3.983-4.557,5.697-10.261,4.067-15.704c-2.899-9.696-15.242-14.849-27.564-11.506    c-12.319,3.342-19.956,13.911-17.055,23.607C357.145,423.284,362.401,427.488,369.018,429.136z" />
		</g>
	</g>
	<g id="Head">
		<path class="clothing" d="M338.135,112.929c-0.012-6.492-5.334-11.794-11.825-11.783l-162.982,0.297   c-6.493,0.012-11.795,5.334-11.783,11.826l0.191,105.026c0.013,6.493,5.334,11.795,11.826,11.784l162.982-0.298   c6.492-0.011,11.795-5.333,11.783-11.826L338.135,112.929z" />
	
		<g id="antenna">
			<path d="M258.828,55.604c-5.748,0.458-10.962,3.645-14.681,8.975c-9.297,13.329-7.958,33.392,2.985,44.726    l0.708-0.683c-10.633-11.012-11.927-30.517-2.885-43.479c3.547-5.085,8.502-8.125,13.952-8.557    c5.201-0.414,10.265,1.63,14.247,5.756c6.751,6.991,7.571,19.373,1.83,27.603c-2.24,3.21-5.365,5.128-8.8,5.402    c-3.271,0.261-6.463-1.029-8.976-3.631c-4.265-4.416-4.781-12.24-1.152-17.441c1.402-2.009,3.354-3.211,5.498-3.381    c2.045-0.161,4.035,0.644,5.604,2.27c2.673,2.769,2.996,7.675,0.72,10.938c-0.866,1.242-2.069,1.984-3.389,2.089    c-1.256,0.104-2.476-0.397-3.444-1.399c-1.655-1.714-1.854-4.754-0.443-6.776c0.524-0.751,1.248-1.199,2.038-1.262    c0.75-0.056,1.483,0.239,2.063,0.841l0.708-0.683c-0.791-0.819-1.807-1.226-2.848-1.14c-1.09,0.087-2.073,0.683-2.769,1.68    c-1.666,2.388-1.423,5.986,0.542,8.022c1.176,1.218,2.682,1.82,4.231,1.697c1.615-0.128,3.078-1.019,4.118-2.507    c2.53-3.629,2.162-9.095-0.82-12.184c-1.779-1.842-4.048-2.761-6.391-2.567c-2.442,0.193-4.654,1.543-6.228,3.799    c-3.884,5.568-3.321,13.951,1.252,18.688c2.721,2.818,6.188,4.217,9.763,3.928c3.732-0.296,7.116-2.363,9.526-5.819    c5.997-8.596,5.132-21.538-1.927-28.849C269.668,57.316,264.32,55.169,258.828,55.604z" fill="#828282" />
			<path d="M275.875,76.522l0.983,0.002c0.023-7.802-4.042-14.162-9.061-14.177l-0.003,0.984    C272.271,63.344,275.896,69.261,275.875,76.522z" fill="#828282" />
			<path d="M277.775,62.688c-2.356-3.902-5.526-6.056-8.929-6.066l-0.003,0.984c3.044,0.008,5.918,1.994,8.092,5.591    c2.217,3.674,3.431,8.566,3.415,13.778l0.984,0.003C281.351,71.588,280.088,66.514,277.775,62.688z" fill="#828282" />
			<ellipse cx="264.311" cy="76.929" fill="#60C7CB" rx="6.94" ry="5.424" transform="matrix(0.0028 -1 1 0.0028 186.638 341.022)" />
		</g>
		<g id="bolts">
			<ellipse cx="162.698" cy="113.753" fill="#818385" rx="6.133" ry="7.05" />
			<polygon fill="#5C5D5F" points="157.937,116.917 159.223,118.478 167.459,110.588 166.171,109.028   " />
			<ellipse cx="164.07" cy="219.797" fill="#818385" rx="6.133" ry="7.051" />
			<polygon fill="#5C5D5F" points="159.309,222.961 160.595,224.522 168.831,216.633 167.543,215.073   " />
			<ellipse cx="327.174" cy="111.428" fill="#818385" rx="6.133" ry="7.05" />
			<polygon fill="#5C5D5F" points="322.412,114.592 323.698,116.152 331.935,108.264 330.647,106.704   " />
			<ellipse cx="327.174" cy="217.399" fill="#818385" rx="6.133" ry="7.05" />
			<polygon fill="#5C5D5F"	points="322.412,220.563 323.698,222.124 331.935,214.235 330.647,212.675   " />
		</g>

		<g id="question-mark-mouth">
			<path d="M244.815,206.169c-3.529,0-6.05,1.891-6.05,4.582c0,2.546,2.421,4.51,5.951,4.51    c3.731,0,6.051-1.963,6.051-4.51C250.767,208.06,248.346,206.169,244.815,206.169z" fill="#333131" />
			<path d="M246.33,164.635c-5.346,0-11.093,1.164-14.422,2.91l2.42,4.583c2.521-1.382,6.556-2.255,10.187-2.255    c6.354,0.073,9.58,2.546,9.58,6.255c0,3.273-2.521,6.11-7.059,9.965c-5.043,4.364-6.858,8.655-6.253,12.583l0.201,1.892h7.867    l-0.102-1.892c-0.302-3.709,1.312-6.91,5.75-10.692c4.84-4.146,8.671-7.71,8.671-12.657    C263.17,169.799,257.928,164.635,246.33,164.635z" fill="#333131" />
		</g>

		<g id="overlays" fill="#191818" opacity="0.1">
			<path d="M326.243,100.242l-80.363,0.146c-0.653,0.315-0.959,0.489-0.959,0.489l-0.757-0.486l-0.232,0   v128.636l82.546-0.15c6.492-0.012,11.795-5.333,11.783-11.826l-0.191-105.027C338.059,105.533,332.735,100.23,326.243,100.242z" />
		</g>
		<g id="flying-question-marks" fill="#8C8C8C">
			<path d="M339.425,87.408c-1.152,0-2.391,0.149-3.108,0.373l0.522,0.587c0.543-0.177,1.411-0.289,2.193-0.289    c1.368,0.01,2.063,0.326,2.063,0.802c0,0.419-0.544,0.783-1.521,1.277c-1.086,0.56-1.478,1.11-1.347,1.613l0.044,0.242h1.694    l-0.022-0.242c-0.064-0.476,0.283-0.886,1.239-1.371c1.042-0.531,1.868-0.988,1.868-1.622    C343.052,88.07,341.922,87.408,339.425,87.408z" />
			<path d="M339.097,92.732c-0.759,0-1.303,0.243-1.303,0.587c0,0.327,0.521,0.578,1.282,0.578    c0.804,0,1.305-0.251,1.305-0.578C340.381,92.975,339.858,92.732,339.097,92.732z" />
			<path d="M348.278,84.343c-1.212,0-2.078,0.427-2.078,1.033c0,0.574,0.831,1.017,2.043,1.017    c1.28,0,2.076-0.443,2.076-1.017C350.319,84.77,349.488,84.343,348.278,84.343z" />
			<path d="M348.797,74.976c-1.835,0-3.809,0.263-4.95,0.656l0.831,1.034c0.865-0.312,2.25-0.509,3.496-0.509    c2.181,0.016,3.289,0.574,3.289,1.411c0,0.738-0.867,1.378-2.423,2.247c-1.731,0.985-2.356,1.953-2.147,2.838l0.069,0.427h2.7    l-0.035-0.427c-0.104-0.836,0.45-1.559,1.974-2.412c1.662-0.935,2.977-1.739,2.977-2.854    C354.577,76.141,352.777,74.976,348.797,74.976z" />
			<path d="M359.484,73.083c-1.436,0-2.459,0.647-2.459,1.568c0,0.871,0.982,1.543,2.416,1.543    c1.517,0,2.458-0.672,2.458-1.543C361.899,73.73,360.917,73.083,359.484,73.083z" />
			<path d="M360.098,58.874c-2.171,0-4.506,0.398-5.857,0.995l0.982,1.567c1.023-0.472,2.663-0.771,4.137-0.771    c2.582,0.025,3.892,0.871,3.892,2.141c0,1.12-1.023,2.09-2.867,3.409c-2.047,1.493-2.785,2.96-2.54,4.305l0.083,0.647h3.194    l-0.04-0.647c-0.123-1.269,0.531-2.364,2.334-3.658c1.966-1.418,3.522-2.638,3.522-4.33    C366.938,60.641,364.809,58.874,360.098,58.874z" />
		</g>
		<g id="eyes" class="eye">
			<g id="right">
				<polygon id="right-eye"	points="299.174,124.335 280.668,124.476 271.511,137.074 280.859,149.531 299.364,149.39 308.521,136.792" />
				<path id="right-eye-spiral" d="M293.257,126.084c-5.466-0.728-10.506,3.13-11.232,8.596c-0.435,3.277,0.432,6.528,2.442,9.154   c2.011,2.625,4.921,4.311,8.197,4.746l0.129-0.975c-3.016-0.401-5.696-1.953-7.546-4.37c-1.85-2.417-2.648-5.409-2.246-8.426   c0.654-4.928,5.201-8.402,10.126-7.751c1.886,0.251,3.559,1.221,4.713,2.729c1.156,1.509,1.653,3.378,1.403,5.262   c-0.198,1.481-0.959,2.797-2.146,3.705c-1.187,0.909-2.649,1.3-4.137,1.103c-1.16-0.154-2.188-0.75-2.898-1.679   s-1.018-2.078-0.862-3.237c0.247-1.86,1.96-3.171,3.822-2.924c0.691,0.093,1.312,0.45,1.736,1.006s0.609,1.246,0.516,1.939   c-0.07,0.531-0.342,1.001-0.766,1.326c-0.425,0.325-0.951,0.463-1.479,0.395c-0.398-0.053-0.751-0.258-0.995-0.577   s-0.349-0.713-0.297-1.111c0.04-0.292,0.189-0.552,0.424-0.73c0.234-0.179,0.521-0.256,0.816-0.219l0.129-0.975   c-0.547-0.073-1.101,0.072-1.543,0.412c-0.443,0.339-0.728,0.83-0.801,1.382c-0.088,0.658,0.087,1.312,0.49,1.838   s0.987,0.866,1.646,0.953c0.79,0.105,1.573-0.103,2.208-0.588c0.633-0.485,1.038-1.187,1.144-1.977   c0.128-0.955-0.126-1.903-0.711-2.668c-0.586-0.766-1.433-1.256-2.39-1.383c-2.402-0.322-4.607,1.374-4.927,3.77   c-0.188,1.419,0.187,2.827,1.057,3.964c0.871,1.137,2.132,1.867,3.551,2.056c1.74,0.234,3.469-0.229,4.865-1.296   c1.396-1.068,2.29-2.616,2.522-4.357C300.807,130.753,297.685,126.674,293.257,126.084z" fill="#333131" />
				<polygon id="right-eye-overlay" fill="#191818" opacity="0.1" points="290.021,124.405 290.021,149.461 299.364,149.39 308.521,136.792 299.174,124.335     " />
			</g>
			<g id="left">
				<polygon points="210.171,125.013 191.666,125.153 182.508,137.751 191.856,150.208 210.362,150.067     219.519,137.469   " />
				<path d="M203.306,126.673c-2.647-0.344-5.274,0.362-7.391,1.992c-2.117,1.629-3.473,3.985-3.818,6.634    c-0.427,3.278,0.449,6.527,2.465,9.147s4.933,4.298,8.211,4.725l0.127-0.975c-3.018-0.394-5.702-1.938-7.559-4.351    c-1.855-2.412-2.662-5.402-2.269-8.42c0.312-2.388,1.534-4.513,3.442-5.981c1.909-1.47,4.276-2.105,6.664-1.796    c3.89,0.507,6.644,4.084,6.137,7.975c-0.399,3.059-3.221,5.216-6.27,4.825c-1.158-0.151-2.19-0.744-2.902-1.67    c-0.713-0.927-1.023-2.075-0.872-3.235c0.242-1.861,1.952-3.18,3.814-2.935c1.434,0.188,2.449,1.507,2.264,2.942    c-0.07,0.529-0.341,1-0.765,1.327c-0.424,0.325-0.947,0.465-1.479,0.398c-0.398-0.052-0.752-0.256-0.997-0.573    c-0.246-0.318-0.351-0.713-0.299-1.111c0.038-0.292,0.188-0.552,0.421-0.731c0.233-0.18,0.521-0.259,0.815-0.22l0.127-0.975    c-0.551-0.072-1.1,0.075-1.542,0.416c-0.442,0.34-0.725,0.832-0.796,1.383c-0.086,0.66,0.089,1.312,0.495,1.838    c0.405,0.526,0.991,0.863,1.649,0.949c0.785,0.103,1.574-0.108,2.206-0.594c0.632-0.486,1.036-1.189,1.139-1.979    c0.256-1.973-1.139-3.787-3.111-4.044c-2.401-0.313-4.605,1.386-4.917,3.784c-0.185,1.42,0.194,2.827,1.067,3.962    c0.873,1.135,2.136,1.861,3.556,2.046c3.594,0.472,6.904-2.076,7.372-5.674C210.867,131.322,207.734,127.25,203.306,126.673z" fill="#333131" />
				<polygon id="left-eye-overlay" fill="#191818" opacity="0.1" points="201.175,125.081 201.175,150.137 210.362,150.067 219.519,137.469 210.171,125.013" />
			</g>
		</g>
	</g>
</svg>