<?xml version="1.0" ?>
<!DOCTYPE svg  PUBLIC '-//W3C//DTD SVG 1.1//EN'  'http://www.w3.org/Graphics/SVG/1.1/DTD/svg11.dtd'>
<svg enable-background="new 0 0 512 512" height="512px" version="1.1"
	viewBox="0 0 512 512" width="512px" xml:space="preserve"
	xmlns="http://www.w3.org/2000/svg"
	xmlns:xlink="http://www.w3.org/1999/xlink">
	
	<filter id="darker">
	  <feComponentTransfer>
	      <feFuncR type="linear" slope="0.75"/>
	      <feFuncG type="linear" slope="0.75"/>
	      <feFuncB type="linear" slope="0.75"/>
	  </feComponentTransfer>
	</filter>
	<filter id="darker2">
	  <feComponentTransfer>
	      <feFuncR type="linear" slope="0.25"/>
	      <feFuncG type="linear" slope="0.25"/>
	      <feFuncB type="linear" slope="0.25"/>
	  </feComponentTransfer>
	</filter>
	<filter id="lighter">
	  <feComponentTransfer>
	      <feFuncR type="linear" slope="2"/>
	      <feFuncG type="linear" slope="2"/>
	      <feFuncB type="linear" slope="2"/>
	  </feComponentTransfer>
	</filter>
	<filter id="lighter2">
	  <feComponentTransfer>
	      <feFuncR type="linear" slope="5"/>
	      <feFuncG type="linear" slope="5"/>
	      <feFuncB type="linear" slope="5"/>
	  </feComponentTransfer>
	</filter>
	
	<g id="Background" class="background">
		<circle cx="256" cy="256" id="Background_1_" r="256" />
	</g>
	<g id="Shadow">
		<ellipse cx="254.619" cy="456.173" opacity="0.15" rx="145.886" ry="6.337" />
		<path d="M354.364,93.838l-39.637-32.454l-31.177,43.82l-54.991-45.106l17.36,61.81L131.876,247.074l66.599,70.205   l-5.736,55.484l4.194,28.713l-10.842-5.295l-46.753,54.9l281.764,0.549c34.927-29.507,61.845-68.188,77.029-112.336L366.984,97.912   L354.364,93.838z" opacity="0.15" />
	</g>
	<g id="Foot">
		<g id="left-foot">
			<path class="metal" d="M198.475,409.357c2.222-4.849,2.86-9.956,1.078-15.249c0,0-5.007-34.525-81.897-8.614l10.453,31.015   c5.873-4.116,13.065-7.792,21.174-10.524C170.723,398.756,191.158,400.462,198.475,409.357z" />
			<path class="clothing" filter="url(#lighter)" d="M198.475,409.357c-7.317-8.895-27.752-10.601-49.192-3.373c-8.109,2.732-15.301,6.408-21.174,10.524   l11.23,33.328C139.338,449.836,187.757,432.752,198.475,409.357z" />
		</g>
		<g id="right-foot">
			<path class="metal" filter="url(#darker)" d="M336.012,381.361c-6.184,2.405-10.975,6.407-13.177,12.747c0,0-17.189,30.355,59.458,56.974l11.077-31.902   c-6.46-0.552-13.456-2.005-20.565-4.476C351.092,407.163,335.873,392.981,336.012,381.361z" />
			<path class="clothing" d="M336.012,381.361c-0.14,11.62,15.08,25.802,36.793,33.343c7.109,2.471,14.105,3.924,20.565,4.476   l11.196-32.235C404.567,386.944,359.815,372.104,336.012,381.361z" />
		</g>
	</g>
	<g id="Hand" class="metal">
		<g id="right-arm">
			<polygon id="right-hand-surround" points="344.027,368.476 331.675,362.946 318.608,366.457 320.051,353 312.675,341.655 325.917,338.871    334.428,328.348 341.168,340.082 353.805,344.924 344.729,354.963" />
			<polygon id="right-hand-centre" class="clothing" points="338.715,358.531 332.536,355.768 326.002,357.526 326.725,350.795 323.037,345.121    329.657,343.731 333.912,338.468 337.283,344.336 343.605,346.759 339.065,351.777  " />	
			<path id="right-lower-arm" class="clothing"	d="M374.299,315.767c-0.245-0.157-0.508-0.274-0.75-0.448c-7.849-5.487-11.791-14.934-11.824-25.688   l-27.297,38.718l6.74,11.733l12.637,4.843L374.299,315.767z" />
			<path id="right-upper-arm" filter="url(#darker)" d="M397.83,284.907l-46.621-34.657l-15.073,20.276l25.59,19.104c0.033,10.755,3.976,20.201,11.824,25.688   c0.242,0.174,0.505,0.291,0.75,0.448L397.83,284.907z" />
			
		</g>
		<g id="left-arm">
			<path id="left-lower-arm" class="clothing" filter="url(#lighter)" d="M171.996,221.779c0.115,0.054,0.213,0.13,0.325,0.187l13.77-28.061l-8.493-10.537l-13.236-2.806   l-21.315,43.847C152.669,218.837,163.146,217.481,171.996,221.779z" />
			<path id="left-upper-arm" d="M165.778,235.445l6.543-13.479c-0.112-0.057-0.21-0.133-0.325-0.187c-8.85-4.297-19.327-2.942-28.949,2.631   l-0.137-0.065l-11.034,22.729l53.349,25.901l11.034-22.731L165.778,235.445z" />
		</g>

		<g id="motion">
			<path d="M164.069,293.236c-4.646,0-9.15-2.185-12.749-6.275c-5.919-6.731-8.109-17.033-5.206-24.495l1.521,0.593    c-2.695,6.926-0.63,16.524,4.91,22.825c4.181,4.755,9.43,6.645,14.779,5.318l0.391,1.584    C166.5,293.087,165.28,293.236,164.069,293.236z" fill="#9DA0B2" />
			<path d="M166.637,282.15c-1.671,0-3.565-0.791-5.136-2.239c-1.341-1.24-5.438-5.902-1.829-13.888l1.487,0.672    c-3.158,6.99,0.312,10.965,1.449,12.016c1.748,1.613,3.991,2.249,5.333,1.507l0.788,1.431    C168.113,281.987,167.397,282.15,166.637,282.15z" fill="#9DA0B2" />
		</g>
	</g>
	
	<g id="Body">
		<path class="clothing" d="M301.406,275.775c10.211,0,20.088,1.136,29.475,3.212v-7.305c0-14.242-5.335-25.79-11.911-25.79h-116.16   c-6.58,0-11.914,11.548-11.914,25.79v88.109c0,0.893,0.021,1.774,0.062,2.645C192.269,314.398,241.197,275.775,301.406,275.775z" />
		<path class="metal" d="M203.034,385.579h116.162c6.576,0,11.912-11.548,11.912-25.787v-80.805   c-9.39-2.076-19.267-3.212-29.477-3.212c-60.209,0-109.135,38.623-110.448,86.661C191.795,375.433,196.868,385.579,203.034,385.579   z" />
		<g id="upper-button-lights">
			<rect class="colour1" height="10.228" width="19.804" x="206.067" y="261.545" />
			<rect class="colour1" height="10.228" width="19.807" x="296.411" y="261.545" />
			<rect class="colour1" height="10.228" width="19.805" x="251.239" y="261.545" />
			<rect class="colour2" height="7.331" width="14.2" x="231.719" y="262.994" />
			<rect class="colour2" height="7.331" width="14.198" x="277.132" y="262.994" />
		</g>
		<g id="lower-bars">
			<rect class="colour2" height="46.193" width="19.804" x="206.067" y="331.901" />
			<rect class="colour2" height="96.971" width="19.807" x="296.411" y="281.124" />
			<rect class="colour2" height="78.532" width="19.805" x="251.239" y="299.562" />
			<rect class="colour3" height="60.915" width="14.2" x="231.719" y="315.735" />
			<rect class="colour3" height="87.02" width="14.198" x="277.132" y="289.63" />
		</g>
	</g>
	<g id="Head">
		<g id="left-ear" class="metal">
			<path d="M208.923,70.448c-0.973,3.463-0.751,7.275,0.933,10.771l6.083,12.619l34.841-0.106l-13.358-25.799   c-0.185-0.382-0.392-0.745-0.602-1.104C226.148,70.566,216.186,71.786,208.923,70.448z" />
			<path class="clothing" d="M216.996,60.793c-4.118,1.983-6.928,5.575-8.073,9.655c7.263,1.337,17.225,0.118,27.897-3.619   C232.829,60.027,224.226,57.307,216.996,60.793z" />
		</g>
		
		<g id="right-ear" class="metal" filter="url(#darker)">
			<path class="clothing" d="M314.727,61.384c-4.135-1.943-8.694-1.859-12.583-0.176c3.542,6.48,10.775,13.443,20.4,19.368   C325.309,73.191,321.996,64.799,314.727,61.384z" />
			<path d="M302.144,61.208c-3.298,1.429-6.119,4.004-7.771,7.517L283.55,90.66l27.694,13.014l10.824-21.935   c0.18-0.384,0.329-0.773,0.476-1.163C312.919,74.651,305.686,67.688,302.144,61.208z" />
		</g>
		
		<g id="main-head" class="metal">
			<path filter="url(#darker)" d="M196.933,88.449l-24.028-0.184c-10.401-0.081-18.929,12.615-19.05,28.356l-0.747,97.375   c-0.122,15.74,8.212,28.565,18.612,28.645l183.611,1.409c10.402,0.08,18.93-12.616,19.053-28.356l0.027-3.591   C303.315,189.583,241.71,145.878,196.933,88.449z" />
			<path class="clothing" d="M356.517,89.673l-159.584-1.224c44.777,57.429,106.382,101.134,177.478,123.654l0.718-93.785   C375.25,102.578,366.916,89.753,356.517,89.673z" />
		</g>
		
		<g id="mouth" class="clothing">
			<rect filter="url(#darker2)" height="54.237" transform="matrix(1 0.0077 -0.0077 1 1.5064 -2.0173)" width="165.2" x="181.064" y="168.197" />
			<path id="mouth-line" d="M249.759,214.141c-12.003,0-21.403-1.303-28.578-3.016c-20.988-5.011-28.147-14.392-28.442-14.789    l2.621-1.945l-1.31,0.973l1.306-0.978c0.067,0.089,6.979,8.986,27.017,13.667c18.622,4.349,52.643,5.84,108.968-11.763    l0.974,3.116C296.573,210.575,269.61,214.141,249.759,214.141z" fill="#C1C4D7" />
		</g>
		
		<g id="left-eye">
			<polygon id="socket" class="clothing" filter="url(#darker)" points="209.149,156.231 195.753,132.611 209.51,109.201 236.667,109.409 250.062,133.028 236.305,156.439     " />
			<path class="metal" d="M228.559,123.532c-1.628-0.994-3.52-1.608-5.568-1.624c-6.025-0.047-10.95,4.801-10.995,10.827   c-0.02,2.542,0.866,4.855,2.307,6.722C217.971,133.246,222.824,127.845,228.559,123.532z" />
			<path class="eye" d="M222.824,143.732c6.027,0.046,10.949-4.802,10.996-10.83c0.03-3.977-2.093-7.441-5.261-9.371   c-5.735,4.313-10.588,9.714-14.255,15.924C216.282,142.015,219.337,143.705,222.824,143.732z" />
			<polygon id="left-eye-shadow" fill="#131313" opacity="0.1" points="224.269,109.314 223.907,156.345 236.305,156.439 250.062,133.028 236.667,109.409     " />
		</g>
		
		<g id="right-eye">
			<rect fill="#603913" height="59.178" transform="matrix(0.0021 1 -1 0.0021 443.2712 -172.2485)" width="3.264" x="306.309" y="106.387" />
		</g>
		
		<g id="face-bolts" class="metal">
			<path d="M357.595,99.333c-2.015-0.015-3.66,1.605-3.673,3.619c-0.018,2.014,1.604,3.658,3.615,3.673   c2.018,0.016,3.661-1.603,3.679-3.617C361.23,100.995,359.61,99.349,357.595,99.333z" />
			<circle cx="172.196" cy="101.558" r="3.646" />
		</g>

		<g id="face-overlay">		
			<path d="M356.846,89.322l-92.039-0.706l-1.185,154.377l92.036,0.706   c10.403,0.081,18.931-12.615,19.053-28.356l0.027-3.59l0.719-93.785C375.579,102.228,367.244,89.402,356.846,89.322z" fill="#131313" opacity="0.1" />
		</g>
		
		<g id="motion" fill="#9DA0B2">
			<polygon points="388.054,101.905 385.488,86.822 369.315,89.573 366.368,72.267 367.977,71.992 370.651,87.692     386.824,84.939 389.661,101.632   " />
			<polygon points="398.897,89.078 396.329,73.994 380.158,76.746 377.211,59.439 378.82,59.165 381.493,74.864     397.666,72.112 400.505,88.804   " />
			<polygon points="409.74,77.018 407.172,61.934 391,64.685 388.054,47.379 389.661,47.104 392.335,62.803     408.508,60.051 411.348,76.744   " />
		</g>
	</g>
</svg>