<?xml version="1.0" ?><!DOCTYPE svg  PUBLIC '-//W3C//DTD SVG 1.1//EN'  'http://www.w3.org/Graphics/SVG/1.1/DTD/svg11.dtd'><svg enable-background="new 0 0 512 512" height="512px" version="1.1" viewBox="0 0 512 512" width="512px" xml:space="preserve" xmlns="http://www.w3.org/2000/svg" xmlns:xlink="http://www.w3.org/1999/xlink"><g id="Background"><circle cx="256" cy="256" fill="#41B649" id="Background_1_" r="256"/></g><g id="Shadow"><path d="M396.574,150.884l-64.459-102.3l-77.135,88.797l-41.125,16.858L77.226,185.115l22.159,57.759l-26.755,21.532   l19.963,21.999l-4.968,26.399l55.956,141.053h274.869c43.916-36.099,75.588-86.534,87.89-144.148l-75.35-185.732L396.574,150.884z" opacity="0.1"/><ellipse cx="256" cy="445.331" opacity="0.15" rx="163.636" ry="12.189"/></g><g id="Foot"><path d="M375.56,235.006c0.295,5.127,2.054,9.765,5.958,13.467c0,0,19.825,27.135,73.602-29.585l-22.879-21.692   c-3.143,6.156-7.609,12.524-13.281,18.507C403.964,231.518,385.8,239.28,375.56,235.006z" fill="#9498A9"/><path d="M375.56,235.006c10.24,4.274,28.404-3.488,43.399-19.303c5.672-5.983,10.139-12.352,13.281-18.507   l-24.583-23.307C407.658,173.889,374.139,210.257,375.56,235.006z" fill="#25706C"/><path d="M365.103,165.935c2.085,6.043,5.759,10.803,11.781,13.157c0,0,28.58,17.675,57.05-55.115l-30.296-11.849   c-0.771,6.2-2.433,12.877-5.074,19.63C390.499,152.38,376.282,166.502,365.103,165.935z" fill="#ACB0BF"/><path d="M365.103,165.935c11.179,0.567,25.396-13.555,33.461-34.177c2.642-6.753,4.304-13.43,5.074-19.63   l-30.615-11.974C373.023,100.154,357.079,142.679,365.103,165.935z" fill="#26807E"/><path d="M291.321,228.999" fill="#9DA0B2"/></g><g id="Hand"><polygon fill="#ACB0BF" points="310.644,45.9 322.376,51.587 335.061,48.583 333.281,61.501 340.053,72.64 327.221,74.935    318.724,84.82 312.574,73.324 300.545,68.297 309.575,58.895  "/><polygon fill="#26807E" points="315.471,55.633 321.339,58.474 327.681,56.972 326.792,63.429 330.177,69 323.761,70.148    319.512,75.088 316.437,69.344 310.42,66.829 314.938,62.127  "/><polygon fill="#A5A9B7" points="265.81,439.283 253.005,441.72 244.615,451.695 238.338,440.27 226.258,435.372 235.186,425.872    236.112,412.869 247.905,418.424 260.556,415.286 258.919,428.218  "/><polygon fill="#26807E" points="255.925,435.781 249.52,437 245.325,441.989 242.186,436.277 236.146,433.827 240.611,429.077    241.074,422.574 246.97,425.353 253.295,423.785 252.475,430.25  "/><path d="M236.6,382.783c-0.122,0-0.239-0.023-0.361-0.024l-0.126,30.11l11.792,5.556l12.651-3.139l0.021-46.962   C254.588,377.2,246.077,382.783,236.6,382.783z" fill="#26807E"/><path d="M236.239,311.196v71.563c0.122,0.001,0.24,0.024,0.361,0.024c9.477,0,17.988-5.583,23.978-14.459v-57.128   H236.239z" fill="#A5A9B7"/><path d="M300.545,68.297l-20.579,27.48c0.231,0.158,0.483,0.282,0.708,0.455c7.4,5.509,10.923,14.72,10.64,25.074   l27.41-36.485l-6.15-11.497L300.545,68.297z" fill="#26807E"/><path d="M280.674,96.231c-0.225-0.172-0.477-0.296-0.708-0.455l-41.278,55.53l19.535,14.519l33.091-44.52   C291.597,110.952,288.075,101.741,280.674,96.231z" fill="#ACB0BF"/><g><path d="M270.72,327.872v-1.55c4.671,0,8.472-6.785,8.472-15.126h1.55    C280.742,320.547,276.339,327.872,270.72,327.872z" fill="#C1C4D7"/></g><g><path d="M272.274,337.831l-0.369-1.507c3.528-0.864,15.041-5.229,15.041-25.128h1.551    C288.497,332.223,276.08,336.897,272.274,337.831z" fill="#C1C4D7"/></g><g><path d="M270.72,347.765v-1.55c8.733,0,24.363-17.65,24.363-35.02h1.55    C296.633,329.694,280.237,347.765,270.72,347.765z" fill="#C1C4D7"/></g></g><g id="Body"><g><path d="M246.069,197.049c-1.508-10.042-1.849-19.922-1.192-29.463l-7.185,1.079    c-14.007,2.102-24.575,9.055-23.605,15.521l17.144,114.239c0.971,6.471,13.115,10.013,27.123,7.91l86.65-13.004    c0.878-0.131,1.743-0.282,2.593-0.45C300.16,298.68,254.954,256.262,246.069,197.049z" fill="#26807E"/><path d="M368.573,277.589l-17.144-114.24c-0.97-6.468-13.113-10.012-27.119-7.91l-79.467,11.925    c-0.656,9.541-0.315,19.421,1.191,29.463c8.886,59.214,54.092,101.629,101.528,95.83    C360.254,290.14,369.483,283.653,368.573,277.589z" fill="#45B5E7"/><rect fill="#3B3D48" height="10.174" transform="matrix(-0.1484 -0.9889 0.9889 -0.1484 7.4797 571.2779)" width="19.695" x="239.864" y="277.331"/><rect fill="#3B3D48" height="10.173" transform="matrix(-0.1484 -0.9889 0.9889 -0.1484 80.0311 456.0535)" width="19.696" x="226.53" y="188.481"/><rect fill="#3B3D48" height="10.173" transform="matrix(-0.1484 -0.9889 0.9889 -0.1484 43.7582 513.6681)" width="19.694" x="233.198" y="232.907"/><rect fill="#46B978" height="7.292" transform="matrix(-0.1483 -0.9889 0.9889 -0.1483 25.8107 542.1224)" width="14.121" x="239.279" y="256.301"/><rect fill="#46B978" height="7.292" transform="matrix(-0.1484 -0.9889 0.9889 -0.1484 62.3004 484.2179)" width="14.121" x="232.576" y="211.639"/><rect fill="#46B978" height="45.936" transform="matrix(-0.1484 -0.9889 0.9889 -0.1484 120.1292 642.2117)" width="19.694" x="326.743" y="246.412"/><rect fill="#46B978" height="62.015" transform="matrix(-0.1484 -0.9889 0.9889 -0.1484 182.3846 520.5055)" width="19.696" x="305.458" y="150.716"/><rect fill="#46B978" height="78.096" transform="matrix(-0.1484 -0.9889 0.9889 -0.1484 135.7839 571.6162)" width="19.694" x="304.173" y="188.294"/><rect fill="#EC5C5B" height="60.576" transform="matrix(-0.1483 -0.9889 0.9889 -0.1483 127.236 605.9922)" width="14.122" x="317.496" y="217.921"/><rect fill="#EC5C5B" height="44.499" transform="matrix(-0.1484 -0.9889 0.9889 -0.1484 174.0428 554.5815)" width="14.121" x="318.744" y="180.105"/></g><path d="M368.573,277.589l-8.117-54.095L223.031,243.79l8.199,54.636   c0.971,6.471,13.115,10.013,27.123,7.91l86.65-13.004c0.878-0.131,1.743-0.282,2.593-0.45c-47.437,5.799-47.436,5.571-0.033-0.224   C360.254,290.14,369.483,283.653,368.573,277.589z" fill="#101010" opacity="0.1"/></g><g id="Head"><path d="M75.575,264.407c3.092,1.449,6.697,1.835,10.232,0.799l12.765-3.733l5.317-32.646l-26.239,8.499   c-0.387,0.113-0.757,0.25-1.127,0.393C78.362,248.292,77.957,257.813,75.575,264.407z" fill="#A5A9B7"/><path d="M67.788,255.344c1.218,4.166,4.145,7.354,7.787,9.063c2.382-6.594,2.788-16.114,0.948-26.689   C69.532,240.397,65.647,248.032,67.788,255.344z" fill="#349AD6"/><path d="M80.171,185.115c2.193,3.743,5.808,6.126,9.757,6.898c0.706-6.977-1.214-16.311-5.57-26.12   C78.228,170.191,76.316,178.54,80.171,185.115z" fill="#309999"/><path d="M89.928,192.014c3.351,0.651,6.94,0.149,10.12-1.713l20.254-11.359l-3-28.058L85.356,165.24   c-0.348,0.202-0.673,0.428-0.998,0.654C88.714,175.703,90.634,185.037,89.928,192.014z" fill="#C6C9D2"/><path d="M90.57,278.341l-3.908,22.476c-1.692,9.728,8.872,19.69,23.596,22.251l91.081,15.838   c14.722,2.559,28.03-3.251,29.721-12.979l29.866-171.743c1.692-9.729-8.874-19.691-23.596-22.252l-3.358-0.583   C201.825,194.432,151.316,245.333,90.57,278.341z" fill="#1EA4D3"/><path d="M116.527,129.074L90.57,278.341c60.747-33.009,111.255-83.909,143.401-146.992l-87.723-15.254   C131.525,113.535,118.218,119.346,116.527,129.074z" fill="#26807E"/><rect fill="#9A653C" height="51.492" transform="matrix(0.1713 -0.9852 0.9852 0.1713 -62.5247 390.77)" width="156.835" x="122.613" y="206.807"/><path d="M246.88,234.95l-144.417-24.909l-0.02,0.02l-11.874,68.28l-3.908,22.476   c-1.692,9.728,8.872,19.69,23.596,22.251l91.081,15.838c14.722,2.559,28.03-3.251,29.721-12.979L246.88,234.95z" fill="#101010" opacity="0.1"/><polygon fill="#9A653C" points="155.95,277.532 131.747,286.406 111.96,269.882 116.378,244.481 140.58,235.607 160.367,252.131     "/><polygon fill="#9A653C" points="170.141,196.276 145.874,205.168 126.035,188.605 130.464,163.138 154.73,154.239 174.57,170.809     "/><path d="M128.343,254.269c-1.184,1.37-2.053,3.046-2.386,4.962c-0.98,5.636,2.794,11.001,8.431,11.98   c2.377,0.414,4.681-0.057,6.653-1.115C135.795,265.698,131.491,260.312,128.343,254.269z" fill="#C1C4D6"/><path d="M146.371,262.781c0.979-5.636-2.794-11-8.434-11.98c-3.72-0.647-7.294,0.802-9.594,3.469   c3.147,6.043,7.452,11.429,12.698,15.827C143.746,268.639,145.803,266.042,146.371,262.781z" fill="#2EB565"/><path d="M143.204,173.083c-1.188,1.372-2.059,3.051-2.393,4.973c-0.983,5.651,2.801,11.028,8.454,12.011   c2.383,0.416,4.692-0.056,6.669-1.119C150.674,184.536,146.359,179.137,143.204,173.083z" fill="#C1C4D6"/><path d="M161.276,181.615c0.984-5.655-2.801-11.028-8.453-12.012c-3.73-0.649-7.315,0.805-9.619,3.479   c3.155,6.055,7.47,11.454,12.73,15.864C158.646,187.492,160.708,184.886,161.276,181.615z" fill="#2EB565"/><circle cx="129.152" cy="130.252" fill="#9DA0B2" r="3.462"/><circle cx="99.001" cy="303.64" fill="#9DA0B2" r="3.462"/><path d="M185.85,292.832c0,0-21.074-14.863,4.865-67.488c0,0,2.951-2.14,3.1-19.437c0,0-2.368-20.166,15.313-27.084   c15.688-6.138,11.479,46.367,8.018,59.519C213.684,251.496,205.44,292.97,185.85,292.832z" fill="#C1C4D7"/><path d="M202.96,236.789c2.406-11.068,8.114-21.473,13.84-23.288c0.413-17.563-1.451-36.247-9.157-31.268   c-12.585,8.131-10.729,24.776-10.729,24.776c0.775,14.798-2.841,19.962-2.841,19.962c-23.942,48.962-6.216,62.43-6.216,62.43   c8.027-1.197,14.239-12.243,18.73-24.147C200.696,262.232,200.283,249.103,202.96,236.789z" fill="#603913"/><path d="M216.8,212.616c-5.726,1.815-11.434,12.22-13.84,23.289c-2.677,12.313-2.265,25.443,3.627,28.464   c3.9-10.339,6.504-21.325,7.871-27.072C215.542,232.74,216.559,222.869,216.8,212.616z" fill="#009444"/><polygon fill="#101010" opacity="0.1" points="172.437,183.074 128.343,175.333 126.035,188.605 145.874,205.168 170.141,196.276     "/><polygon fill="#101010" opacity="0.1" points="114.334,256.234 111.96,269.882 131.747,286.406 155.95,277.532 158.091,265.218    114.334,256.234  "/></g></svg>