<?xml version="1.0" ?><!DOCTYPE svg  PUBLIC '-//W3C//DTD SVG 1.1//EN'  'http://www.w3.org/Graphics/SVG/1.1/DTD/svg11.dtd'><svg enable-background="new 0 0 512 512" height="512px" version="1.1" viewBox="0 0 512 512" width="512px" xml:space="preserve" xmlns="http://www.w3.org/2000/svg" xmlns:xlink="http://www.w3.org/1999/xlink"><g id="Background"><circle cx="256" cy="256" fill="#A39F7E" id="Background_1_" r="256"/></g><g id="Shadow"><ellipse cx="258.519" cy="448.645" opacity="0.15" rx="158.632" ry="7.763"/><path d="M497.022,342.443L346.84,115.795l-26.284,1.194l-63.84-49.856l-0.278,39.188l-4.645,23.229l-54.436-1.468   l-25.97,70.46l-34.832-27.161c0,0,0,0-7.865,9.374c-7.866,9.375,5.503,17.114,5.503,17.114l-21.89,33.174l55.432,39.563   l18.543,102.722l54.483,71.49l189.133-0.966C459.752,416.2,483.004,381.524,497.022,342.443z" opacity="0.1"/></g><g id="Head"><path d="M339.122,112.118l-160.239-10.571c-6.383-0.421-11.95,4.457-12.372,10.84l-6.813,103.26   c-0.421,6.383,4.457,11.951,10.84,12.372l160.238,10.571c6.385,0.421,11.951-4.457,12.372-10.84l6.813-103.26   C350.384,118.106,345.506,112.539,339.122,112.118z" fill="#DE5A53"/><g><ellipse cx="178.404" cy="111.551" fill="#818385" rx="6.043" ry="6.946" transform="matrix(0.0658 -0.9978 0.9978 0.0658 55.3537 282.2264)"/><polygon fill="#5A5B5D" points="175.602,106.665 173.984,107.829 181.206,116.437 182.823,115.273   "/></g><g><ellipse cx="338.73" cy="121.854" fill="#818385" rx="6.043" ry="6.947" transform="matrix(0.0659 -0.9978 0.9978 0.0659 194.8338 451.8241)"/><polygon fill="#5A5B5D" points="335.928,116.967 334.311,118.132 341.532,126.74 343.149,125.576   "/></g><g><ellipse cx="329.021" cy="229.133" fill="#818385" rx="6.043" ry="6.946" transform="matrix(0.0658 -0.9978 0.9978 0.0658 78.7436 542.3708)"/><polygon fill="#5A5B5D" points="326.219,224.247 324.602,225.411 331.824,234.019 333.44,232.855   "/></g><g><polygon fill="#828182" points="319.735,145.629 309.863,157.379 291.665,156.238 283.339,143.348 293.21,131.599     311.408,132.739   "/><polygon fill="#5FC6CA" points="307.438,153.083 300.875,149.518 294.036,151.878 295.607,145.718 290.392,140.785     297.926,140.543 301.542,135.135 304.628,141.146 312.077,142.735 306.449,146.692   "/><polygon fill="#1C1C1C" opacity="0.1" points="301.913,132.145 300.288,156.778 309.863,157.379 319.735,145.629 311.408,132.739       "/></g><g><ellipse cx="173.14" cy="217.721" fill="#818385" rx="6.043" ry="6.946" transform="matrix(0.0658 -0.9978 0.9978 0.0658 -55.5038 376.1571)"/><polygon fill="#5A5B5D" points="170.338,212.835 168.721,213.999 175.942,222.607 177.56,221.443   "/></g><g><polygon fill="#828182" points="232.223,139.935 222.352,151.684 204.154,150.543 195.826,137.653 205.698,125.904     223.896,127.044   "/><polygon fill="#5FC6CA" points="219.926,147.388 213.363,143.823 206.524,146.184 208.095,140.023 202.879,135.09     210.414,134.849 214.029,129.44 217.115,135.452 224.565,137.041 218.938,140.998   "/><polygon fill="#1C1C1C" opacity="0.1" points="214.401,126.45 212.776,151.084 222.352,151.684 232.223,139.935 223.896,127.044       "/></g><polyline fill="none" points="257.115,106.209 256.479,67.335 233.823,56.299  " stroke="#010101" stroke-miterlimit="10"/><g><polygon fill="#010101" points="256.63,106.217 255.999,67.64 233.611,56.735 234.035,55.863 256.958,67.03 257.6,106.201   "/></g><path d="M224.202,45.915c-2.781,1.533-4.391,3.72-4.533,6.156c0,0,1.267-3.945,5.908-5.914   c4.642-1.969,8.208-1.272,8.479-1.257l0.057-0.968C230.435,43.716,226.912,44.42,224.202,45.915z" fill="#010101"/><path d="M219.982,41.462c-3.434,2.177-5.319,5.096-5.311,8.22c0,0,1.31-5.139,7.086-8.018   c5.776-2.878,10.388-2.268,10.736-2.269l-0.003-1.24C227.774,38.166,223.328,39.341,219.982,41.462z" fill="#010101"/><radialGradient cx="256.5684" cy="198.4146" gradientUnits="userSpaceOnUse" id="SVGID_1_" r="43.5286"><stop offset="0" style="stop-color:#046938"/><stop offset="1" style="stop-color:#000000"/></radialGradient><path d="M294.482,230.734l-79.343-4.647c-6.386-0.374-11.305-5.905-10.931-12.291l2.154-36.769   c0.374-6.386,5.905-11.306,12.292-10.931l79.343,4.647c6.386,0.374,11.305,5.905,10.931,12.292l-2.153,36.769   C306.4,226.189,300.869,231.108,294.482,230.734z" fill="url(#SVGID_1_)"/><path d="M193.85,177.523c-7.929,10.572-7.872,23.982,0.129,29.982" fill="none" stroke="#080609" stroke-miterlimit="10"/><path d="M199.729,182.176c-5.657,7.543-5.773,16.994-0.258,21.129" fill="none" stroke="#080609" stroke-miterlimit="10"/><polyline fill="none" points="210.293,209.352 249.478,191.57 250.086,209.918    284.879,189.292 299.584,205.312  " stroke="#010101" stroke-miterlimit="10"/><g><path d="M232.839,197.347c0.144,1.912-0.263,2.599-1.877,3.172c-1.808,0.642-4.252,0.281-5.337-0.789    c-0.861-0.848-0.795-1.729,0.18-2.509c1.297-1.038,4.321-1.57,6.463,0.063c0.197,0.127,0.082,0.292,0.027,0.521    c0.14-0.206,0.046-0.376,0.179-0.496C232.605,197.25,232.729,197.25,232.839,197.347z" fill="#010101"/><path d="M226.516,194.395c-0.007,0.905-0.729,1.371-1.559,1.675c-1.703,0.624-3.427,0.619-5.019-0.253    c-1.495-0.82-1.537-2.18-0.154-3.113c1.23-0.831,3.736-1.145,5.223-0.294c0.325,0.393,0.809,0.626,1.244,0.91    C226.275,193.689,226.261,194.066,226.516,194.395z" fill="#010101"/><path d="M232.839,197.347c-0.116,0-0.233,0-0.349,0c-0.085-0.065-0.097-0.138-0.033-0.22l0-0.066    c-0.152-2.563-0.022-5.128-0.072-7.691c-0.006-0.293,0.1-0.601-0.101-0.88c-1.888-0.026-3.605-0.557-5.254-1.296    c-0.164-0.074-0.332-0.332-0.519-0.018c-0.155,0.099-0.297,0.093-0.425-0.036c-0.063-0.714-0.01-1.429-0.028-2.142    c-0.045-0.383,0.308-0.417,0.605-0.5c0.131,0.015,0.234,0.075,0.322,0.157c0.129,0.207,0.23,0.432,0.484,0.561    c1.477,0.938,3.054,1.549,4.967,1.208c0.633-0.113,0.427,0.352,0.43,0.602c0.017,1.529,0.014,3.059,0.009,4.588    C232.867,193.525,232.852,195.436,232.839,197.347z" fill="#020202"/><path d="M226.138,192.753c0.002-1.858,0.006-3.717,0.009-5.576c0.121,0,0.242,0,0.364,0    c0.001,2.405,0.003,4.812,0.005,7.218c-0.688-0.251-0.229-0.769-0.365-1.148C225.97,193.085,226.346,192.914,226.138,192.753z" fill="#020202"/></g><g><path d="M263.27,203.008c0.144,1.911-0.264,2.599-1.877,3.171c-1.809,0.643-4.252,0.281-5.338-0.788    c-0.861-0.848-0.795-1.729,0.18-2.509c1.297-1.039,4.321-1.57,6.462,0.063c0.197,0.127,0.084,0.292,0.027,0.521    c0.141-0.206,0.047-0.376,0.18-0.496C263.036,202.912,263.16,202.911,263.27,203.008z" fill="#010101"/><path d="M256.947,200.055c-0.008,0.906-0.73,1.372-1.56,1.675c-1.703,0.624-3.427,0.619-5.018-0.254    c-1.495-0.82-1.537-2.179-0.154-3.113c1.23-0.83,3.736-1.144,5.223-0.293c0.325,0.393,0.809,0.626,1.244,0.91    C256.706,199.35,256.691,199.728,256.947,200.055z" fill="#010101"/><path d="M263.27,203.008c-0.117,0-0.232,0-0.35,0c-0.085-0.064-0.096-0.138-0.033-0.219l0.001-0.067    c-0.153-2.563-0.022-5.127-0.072-7.69c-0.005-0.293,0.101-0.601-0.101-0.88c-1.889-0.027-3.606-0.558-5.255-1.296    c-0.163-0.073-0.331-0.332-0.519-0.018c-0.154,0.099-0.297,0.093-0.425-0.036c-0.063-0.713-0.01-1.429-0.028-2.142    c-0.045-0.384,0.307-0.417,0.604-0.501c0.133,0.016,0.236,0.075,0.323,0.157c0.13,0.206,0.229,0.432,0.485,0.561    c1.477,0.938,3.053,1.549,4.965,1.208c0.633-0.113,0.428,0.352,0.43,0.602c0.018,1.529,0.016,3.059,0.01,4.589    C263.298,199.187,263.281,201.098,263.27,203.008z" fill="#020202"/><path d="M256.568,198.415c0.003-1.859,0.006-3.718,0.009-5.577c0.121,0,0.243,0,0.364,0    c0.002,2.406,0.004,4.812,0.006,7.217c-0.689-0.251-0.229-0.769-0.365-1.148C256.401,198.746,256.776,198.574,256.568,198.415z" fill="#020202"/></g><g><path d="M294.957,195.169c0.144,1.912-0.264,2.6-1.877,3.172c-1.808,0.643-4.252,0.281-5.338-0.788    c-0.861-0.848-0.795-1.729,0.18-2.509c1.298-1.038,4.321-1.57,6.463,0.064c0.197,0.126,0.083,0.292,0.027,0.521    c0.14-0.206,0.046-0.376,0.179-0.496C294.723,195.073,294.847,195.073,294.957,195.169z" fill="#010101"/><path d="M288.634,192.217c-0.009,0.906-0.729,1.372-1.56,1.676c-1.702,0.623-3.427,0.618-5.018-0.254    c-1.496-0.82-1.537-2.18-0.154-3.113c1.23-0.83,3.735-1.144,5.223-0.293c0.325,0.393,0.81,0.626,1.244,0.91    C288.394,191.512,288.378,191.889,288.634,192.217z" fill="#010101"/><path d="M294.957,195.169c-0.116,0.001-0.233,0.001-0.35,0.001c-0.085-0.065-0.097-0.138-0.033-0.219v-0.067    c-0.152-2.563-0.022-5.127-0.072-7.69c-0.005-0.293,0.101-0.601-0.101-0.88c-1.889-0.027-3.605-0.558-5.255-1.296    c-0.163-0.073-0.331-0.333-0.519-0.019c-0.154,0.099-0.297,0.094-0.425-0.035c-0.063-0.714-0.011-1.429-0.028-2.142    c-0.046-0.384,0.308-0.418,0.604-0.501c0.132,0.016,0.235,0.075,0.323,0.157c0.129,0.207,0.229,0.432,0.484,0.561    c1.477,0.939,3.053,1.549,4.966,1.208c0.633-0.113,0.428,0.352,0.43,0.602c0.017,1.53,0.015,3.059,0.009,4.589    C294.985,191.348,294.969,193.259,294.957,195.169z" fill="#020202"/><path d="M288.255,190.576c0.003-1.859,0.006-3.718,0.009-5.577c0.122,0,0.243,0,0.364,0    c0.002,2.406,0.004,4.813,0.006,7.218c-0.689-0.251-0.229-0.769-0.365-1.148C288.088,190.908,288.464,190.736,288.255,190.576z" fill="#020202"/></g><path d="M297.997,170.743l-79.343-4.647c-6.386-0.375-11.917,4.545-12.292,10.931l-2.154,36.769   c-0.374,6.386,4.545,11.917,10.931,12.291l79.343,4.647c6.387,0.374,11.918-4.545,12.292-10.931l2.153-36.769   C309.302,176.648,304.383,171.117,297.997,170.743z" fill="#3F3B3B"/><path d="M292.088,175.426l-68.026-3.984c-5.475-0.321-10.217,3.896-10.538,9.372l-1.847,31.524   c-0.321,5.476,3.896,10.218,9.372,10.539l68.025,3.984c5.476,0.32,10.218-3.897,10.539-9.372l1.847-31.524   C301.779,180.488,297.562,175.747,292.088,175.426z" fill="#186B4F"/><g><path d="M193.688,207.894c-8.194-6.146-8.295-19.901-0.226-30.661l0.775,0.581    c-7.75,10.333-7.735,23.479,0.032,29.304L193.688,207.894z" fill="#080609"/></g><g><path d="M199.181,203.693c-2.794-2.096-4.305-5.534-4.254-9.681c0.05-4.091,1.618-8.398,4.416-12.127l0.775,0.582    c-2.675,3.566-4.174,7.671-4.222,11.558c-0.047,3.83,1.326,6.988,3.866,8.894L199.181,203.693z" fill="#080609"/></g><polygon fill="#DBD10E" points="284.97,188.674 250.543,209.084 249.938,190.829 210.093,208.91 210.494,209.792 249.017,192.311    249.629,210.752 284.788,189.909 299.226,205.639 299.939,204.984  "/><path d="M232.865,187.025c-0.003-0.25,0.203-0.714-0.43-0.602c-1.913,0.341-3.49-0.27-4.967-1.208   c-0.254-0.128-0.355-0.354-0.484-0.561c-0.088-0.082-0.191-0.142-0.322-0.157c-0.297,0.083-0.65,0.117-0.605,0.5   c0.019,0.713-0.034,1.428,0.028,2.142c0.022,0.022,0.047,0.021,0.07,0.036c-0.003,0-0.006,0-0.009,0   c-0.003,1.859-0.006,3.718-0.009,5.576c0.208,0.161-0.167,0.333,0.013,0.493c0.001,0.003,0.001,0.008,0.002,0.012   c-0.409-0.257-0.845-0.485-1.146-0.849c-1.486-0.851-3.993-0.537-5.223,0.294c-1.383,0.933-1.341,2.292,0.154,3.113   c1.591,0.872,3.316,0.877,5.019,0.253c0.829-0.304,1.551-0.77,1.559-1.675c-0.002-2.406-0.003-4.813-0.005-7.218   c0.187-0.314,0.355-0.056,0.519,0.018c1.648,0.739,3.366,1.27,5.254,1.296c0.201,0.279,0.095,0.586,0.101,0.88   c0.05,2.563-0.08,5.128,0.072,7.691l0,0.066c-0.054,0.07-0.042,0.132,0.012,0.19c-0.122,0.119-0.037,0.287-0.174,0.489   c0.055-0.229,0.17-0.395-0.027-0.521c-2.142-1.633-5.166-1.102-6.463-0.063c-0.975,0.78-1.041,1.661-0.18,2.509   c1.085,1.07,3.529,1.431,5.337,0.789c1.614-0.573,2.021-1.26,1.877-3.172c0.013-1.911,0.028-3.822,0.035-5.733   C232.879,190.084,232.882,188.555,232.865,187.025z" fill="#B7B70F"/><path d="M263.295,192.687c-0.002-0.25,0.203-0.714-0.43-0.602c-1.912,0.34-3.488-0.27-4.965-1.208   c-0.256-0.128-0.355-0.354-0.485-0.561c-0.087-0.083-0.19-0.142-0.323-0.157c-0.297,0.084-0.649,0.117-0.604,0.501   c0.019,0.713-0.035,1.428,0.028,2.142c0.022,0.022,0.047,0.021,0.07,0.036c-0.003,0-0.006,0-0.009,0   c-0.003,1.859-0.006,3.718-0.009,5.577c0.208,0.16-0.167,0.332,0.013,0.493c0.001,0.004,0.001,0.008,0.002,0.013   c-0.408-0.257-0.845-0.485-1.146-0.85c-1.487-0.851-3.993-0.537-5.223,0.293c-1.383,0.934-1.341,2.293,0.154,3.113   c1.591,0.873,3.315,0.877,5.018,0.254c0.83-0.304,1.552-0.77,1.56-1.675c-0.002-2.406-0.004-4.812-0.006-7.217   c0.188-0.314,0.356-0.055,0.519,0.018c1.648,0.739,3.366,1.27,5.255,1.296c0.201,0.279,0.096,0.586,0.101,0.88   c0.05,2.563-0.081,5.128,0.072,7.69l-0.001,0.067c-0.054,0.069-0.042,0.132,0.013,0.189c-0.122,0.119-0.037,0.287-0.175,0.489   c0.057-0.229,0.17-0.395-0.027-0.521c-2.142-1.633-5.165-1.102-6.462-0.063c-0.975,0.779-1.042,1.661-0.18,2.509   c1.086,1.069,3.529,1.43,5.338,0.788c1.613-0.573,2.021-1.26,1.877-3.171c0.012-1.911,0.028-3.822,0.035-5.733   C263.311,195.746,263.313,194.216,263.295,192.687z" fill="#179BDD"/><path d="M294.982,184.848c-0.002-0.25,0.203-0.714-0.43-0.602c-1.913,0.34-3.489-0.27-4.966-1.208   c-0.255-0.129-0.355-0.354-0.484-0.561c-0.088-0.082-0.191-0.142-0.323-0.157c-0.297,0.083-0.65,0.118-0.604,0.501   c0.018,0.713-0.034,1.428,0.028,2.142c0.022,0.022,0.047,0.02,0.07,0.035c-0.004,0-0.007,0-0.01,0   c-0.003,1.859-0.006,3.718-0.009,5.577c0.209,0.16-0.167,0.332,0.014,0.493c0.002,0.004,0.001,0.008,0.002,0.012   c-0.408-0.257-0.845-0.485-1.146-0.849c-1.487-0.85-3.992-0.537-5.223,0.293c-1.383,0.933-1.342,2.293,0.154,3.113   c1.591,0.873,3.315,0.877,5.018,0.254c0.83-0.304,1.551-0.77,1.56-1.676c-0.002-2.405-0.004-4.812-0.006-7.218   c0.188-0.314,0.355-0.055,0.519,0.019c1.649,0.739,3.366,1.27,5.255,1.296c0.201,0.279,0.096,0.586,0.101,0.88   c0.05,2.563-0.08,5.127,0.072,7.69v0.067c-0.054,0.069-0.042,0.132,0.013,0.189c-0.123,0.119-0.038,0.287-0.175,0.489   c0.056-0.229,0.17-0.395-0.027-0.521c-2.142-1.634-5.165-1.102-6.463-0.064c-0.975,0.78-1.041,1.661-0.18,2.509   c1.086,1.069,3.53,1.43,5.338,0.788c1.613-0.572,2.021-1.26,1.877-3.172c0.012-1.91,0.028-3.821,0.034-5.732   C294.997,187.907,294.999,186.378,294.982,184.848z" fill="#09DB09"/><ellipse cx="233.823" cy="56.299" fill="#66CAD9" rx="5.345" ry="6.838" transform="matrix(0.0584 -0.9983 0.9983 0.0584 163.96 286.434)"/><path d="M339.68,112.155l-79.381-5.237l-8.344,126.472l79.381,5.237   c6.077,0.401,11.393-4.494,11.813-10.877l6.813-103.26C350.384,118.106,345.757,112.556,339.68,112.155z" fill="#191818" opacity="0.1"/></g><g id="Body"><path d="M315.933,239.74H189.686c-12.084,0-21.97,9.886-21.97,21.97v108.774c0,12.083,9.886,21.97,21.97,21.97   h126.247c12.083,0,21.969-9.887,21.969-21.97V261.71C337.901,249.626,328.016,239.74,315.933,239.74z" fill="#DE5A53"/><g><ellipse cx="320.734" cy="338.993" fill="#EB272A" rx="12.504" ry="11.631"/><g><path d="M318.975,339.267c0,2.696-1.714,4.127-3.806,4.127c-2.163,0-3.684-1.604-3.684-3.976     c0-2.487,1.616-4.115,3.805-4.115C317.528,335.303,318.975,336.941,318.975,339.267z M312.615,339.394     c0,1.675,0.948,3.175,2.614,3.175c1.68,0,2.626-1.478,2.626-3.256c0-1.557-0.85-3.185-2.612-3.185     C313.492,336.128,312.615,337.675,312.615,339.394z" fill="#272626"/><path d="M320.353,335.43h4.415v0.85h-3.356v2.604h3.101v0.837h-3.101v3.546h-1.059V335.43z" fill="#272626"/><path d="M326.278,335.43h4.414v0.85h-3.356v2.604h3.101v0.837h-3.101v3.546h-1.058V335.43z" fill="#272626"/></g><path d="M333.248,338.993c0-5.495-4.195-10.087-9.827-11.305c-4.305,1.268-7.518,6.188-7.518,12.078    c0,4.662,2.015,8.718,4.986,10.837C327.753,350.394,333.248,345.282,333.248,338.993z" fill="#191818" opacity="0.1"/></g><g><rect fill="#EB272A" height="70.584" width="100.365" x="203.901" y="307.263"/></g><g><ellipse cx="186.909" cy="338.993" fill="#3EB172" rx="12.504" ry="11.631"/><g><path d="M186.982,338.87c0,2.697-1.713,4.128-3.806,4.128c-2.164,0-3.684-1.604-3.684-3.976     c0-2.488,1.618-4.116,3.806-4.116C185.536,334.906,186.982,336.546,186.982,338.87z M180.623,338.998     c0,1.675,0.949,3.174,2.615,3.174c1.678,0,2.627-1.477,2.627-3.255c0-1.557-0.852-3.186-2.615-3.186     C181.499,335.731,180.623,337.278,180.623,338.998z" fill="#232323"/><path d="M188.36,342.87v-7.836h1.155l2.627,3.964c0.607,0.92,1.082,1.745,1.471,2.547l0.023-0.012     c-0.097-1.047-0.121-2-0.121-3.22v-3.279h0.997v7.836h-1.07l-2.602-3.976c-0.571-0.872-1.119-1.768-1.533-2.615l-0.036,0.012     c0.061,0.987,0.085,1.93,0.085,3.23v3.349H188.36z" fill="#232323"/></g><path d="M199.414,338.993c0-5.774-4.527-10.552-10.457-11.462    c-3.878,1.692-6.688,6.627-6.688,12.459c0,4.368,1.582,8.227,4.002,10.604c0.213,0.01,0.422,0.03,0.637,0.03    C193.814,350.624,199.414,345.416,199.414,338.993z" fill="#303030" opacity="0.2"/></g><path d="M287.383,315.084h-0.546c-1.243,0-2.262,1.018-2.262,2.262v49.109   c0,1.243,1.019,2.261,2.262,2.261h0.546c1.243,0,2.262-1.018,2.262-2.261v-49.109C289.645,316.102,288.626,315.084,287.383,315.084   z" fill="#191818" opacity="0.4"/><path d="M287.11,320.577c-1.394,0-2.535,1.09-2.535,2.423v8.724c0,1.332,1.142,2.423,2.535,2.423   c1.393,0,2.534-1.091,2.534-2.423V323C289.645,321.667,288.503,320.577,287.11,320.577z" fill="#FBED26"/><path d="M287.11,336.085c-1.394,0-2.535,1.091-2.535,2.423v8.724c0,1.333,1.142,2.423,2.535,2.423   c1.393,0,2.534-1.09,2.534-2.423v-8.724C289.645,337.176,288.503,336.085,287.11,336.085z" fill="#069547"/><path d="M287.11,351.593c-1.394,0-2.535,1.091-2.535,2.424v8.723c0,1.333,1.142,2.424,2.535,2.424   c1.393,0,2.534-1.091,2.534-2.424v-8.723C289.645,352.684,288.503,351.593,287.11,351.593z" fill="#2376BC"/><path d="M319.239,278.237c-1.408-6.425,0.072-13.526,4.059-19.481l-0.805-0.539   c-4.134,6.174-5.666,13.546-4.2,20.228c1.259,5.747,4.631,10.55,9.491,13.525l0.506-0.827   C323.656,288.307,320.441,283.724,319.239,278.237z" fill="#333333"/><g><path d="M179.963,293.941l-0.806-0.54c5.005-7.474,7.055-16.221,5.481-23.398    c-1.048-4.784-3.583-8.526-7.33-10.818l0.506-0.827c3.977,2.435,6.664,6.389,7.771,11.438    C187.214,277.226,185.113,286.252,179.963,293.941z" fill="#333333"/></g><g><ellipse cx="209.77" cy="312.625" fill="#818385" rx="3.017" ry="3.468" transform="matrix(0.7071 0.7071 -0.7071 0.7071 282.5205 -56.7597)"/><polygon fill="#5A5B5D" points="212.527,313.181 212.622,312.191 207.013,312.07 206.917,313.061   "/></g><g><ellipse cx="297.002" cy="312.622" fill="#818385" rx="3.017" ry="3.468" transform="matrix(-0.1685 -0.9857 0.9857 -0.1685 38.8835 658.045)"/><polygon fill="#5A5B5D" points="295.074,310.575 294.425,311.326 298.933,314.669 299.582,313.915   "/></g><g><ellipse cx="209.77" cy="373.688" fill="#818385" rx="3.017" ry="3.469" transform="matrix(0.7071 0.7071 -0.7071 0.7071 325.7014 -38.8722)"/><polygon fill="#5A5B5D" points="212.527,374.244 212.622,373.255 207.013,373.134 206.917,374.123   "/></g><g><ellipse cx="297.002" cy="373.685" fill="#818385" rx="3.018" ry="3.468" transform="matrix(-0.1684 -0.9857 0.9857 -0.1684 -21.3164 729.3863)"/><polygon fill="#5A5B5D" points="295.074,371.638 294.425,372.39 298.933,375.731 299.582,374.979   "/></g><path d="M315.933,239.74h-61.595v152.714h61.595c12.083,0,21.969-9.887,21.969-21.97V261.71   C337.901,249.626,328.016,239.74,315.933,239.74z" fill="#191818" opacity="0.1"/><g><ellipse cx="253.588" cy="278.313" fill="#5FC6CA" rx="20.839" ry="22.398"/><path d="M253.466,256.398c-1.167,0-2.309,0.11-3.421,0.309c-2.085,3.169-15.488,25.099-0.482,43.361    c1.265,0.259,2.568,0.4,3.904,0.4c11.382,0,20.608-9.866,20.608-22.034C274.074,266.265,264.848,256.398,253.466,256.398z" fill="#1C1C1C" opacity="0.2"/><path d="M271.713,267.284c-9.63,8.047-25.977,8.305-36.548,0.575" fill="none"/><path d="M272.501,287.859c-9.833,8.219-26.727,8.332-37.771,0.256" fill="none"/><g><path d="M272.806,288.226c1.35-3.001,2.105-6.364,2.105-9.912c0-12.618-9.565-22.884-21.323-22.884     c-11.758,0-21.324,10.266-21.324,22.884c0,3.641,0.801,7.083,2.217,10.143l-0.037,0.05c0.028,0.021,0.06,0.038,0.088,0.059     c3.51,7.482,10.731,12.631,19.056,12.631c8.443,0,15.757-5.294,19.208-12.951c0.006-0.004,0.011-0.008,0.015-0.012     L272.806,288.226z M253.117,285.086c7.564,0,15.086-2.22,20.82-6.614c-0.021,3.27-0.711,6.372-1.931,9.155     c-9.595,7.853-25.926,7.97-36.714,0.28c-1.199-2.641-1.917-5.577-2.037-8.677C238.965,283.129,246.05,285.086,253.117,285.086z      M233.24,278.058c0.037-3.404,0.797-6.622,2.123-9.486c5.137,3.586,11.545,5.385,17.9,5.385c6.702,0,13.317-2.002,18.284-5.942     c1.38,2.775,2.221,5.904,2.37,9.226C263.021,286.076,244.931,286.453,233.24,278.058z M253.588,256.398     c7.437,0,13.953,4.319,17.504,10.747c-9.386,7.571-25.026,7.813-35.301,0.547C239.27,260.964,245.941,256.398,253.588,256.398z      M253.588,300.227c-7.369,0-13.835-4.238-17.408-10.567c5.218,3.261,11.483,4.902,17.654,4.902c6.25,0,12.387-1.68,17.218-5.01     C267.492,295.94,260.998,300.227,253.588,300.227z" fill="#333333"/></g></g></g><g id="Foot"><g><path d="M381.47,397.144c-28.075-21.941-58.551-29.854-68.07-17.675s5.522,39.838,33.599,61.779L381.47,397.144z" fill="#A8AAAD"/><polygon fill="#231F20" points="376.964,403.032 354.457,431.521 352.481,429.95 374.988,401.461   "/></g><g><path d="M240.519,444.693c-0.006-35.632-12.979-64.515-28.977-64.514c-15.998,0.002-28.961,28.889-28.955,64.52    L240.519,444.693z" fill="#A8AAAD"/><polygon fill="#231F20" points="229.437,444.57 193.129,444.727 193.112,442.352 229.419,442.194   "/></g><g><path d="M381.47,397.144c-28.075-21.941-58.551-29.854-68.07-17.675s5.522,39.838,33.599,61.779L381.47,397.144z" fill="#A8AAAD"/><polygon fill="#231F20" points="376.964,403.032 354.457,431.521 352.481,429.95 374.988,401.461   "/></g><g><path d="M240.519,444.693c-0.006-35.632-12.979-64.515-28.977-64.514c-15.998,0.002-28.961,28.889-28.955,64.52    L240.519,444.693z" fill="#CECECE"/><polygon fill="#231F20" points="229.437,444.57 193.129,444.727 193.112,442.352 229.419,442.194   "/></g></g><g id="Hand"><path d="M173.443,261.918c7.401,5.195,9.911,14.381,5.606,20.517c-4.306,6.134-13.795,6.896-21.197,1.7   c0,0-52.24-35.426-52.1-35.625c0.139-0.198-7.305-6.761-4.862-14.38c2.443-7.619,17.569-29.742,17.569-29.742l6.205-9.719   l16.49,11.731l-15.13,26.862L173.443,261.918z" fill="#A8AAAD"/><path d="M157.83,185.106c-1.382,1.622-2.797,3.218-4.225,4.807c0.447,2.542,0.045,5.027-1.372,7.044   c-3.447,4.908-11.491,5.2-17.965,0.651c-6.475-4.548-8.929-12.213-5.481-17.122c1.425-2.028,3.638-3.256,6.198-3.688   c0.578-1.884,1.113-3.787,1.68-5.676c-5.495-0.215-10.499,1.765-13.402,5.898c-5.171,7.361-1.729,18.692,7.689,25.308   c9.417,6.616,21.245,6.011,26.416-1.351C160.511,196.503,160.462,190.563,157.83,185.106z" fill="#595A5C"/><g><path d="M328.545,286.145c-6.395-5.835-6.76-15.847-0.815-22.361c5.945-6.514,15.948-7.064,22.345-1.229    c0,0,45.439,39.839,45.247,40.051c-0.192,0.21,5.915,7.525,1.535,15.699c-4.379,8.174-25.404,31.676-25.404,31.676l-8.78,10.337    l-14.211-13.169l22.182-28.629L328.545,286.145z" fill="#A8AAAD"/><path d="M342.096,385.367c1.534-1.979,3.038-3.984,4.53-6c2.796-0.354,5.403-1.581,7.357-3.726    c4.756-5.214,3.871-13.765-1.975-19.095c-5.847-5.332-14.441-5.427-19.197-0.212c-1.966,2.156-2.954,4.881-3.036,7.711    c-1.937,1.218-3.899,2.397-5.843,3.605c-1.049-5.706,0.331-11.607,4.336-16c7.133-7.822,19.809-7.876,28.313-0.122    c8.504,7.756,9.616,20.383,2.484,28.205C354.729,384.49,348.346,386.364,342.096,385.367z" fill="#595A5C"/><path d="M403.271,318.602c4.115-3.683,3.366-11.082-1.678-16.545" fill="none" stroke="#010101" stroke-miterlimit="10"/></g><path d="M173.443,261.918l-47.419-28.656l15.13-26.862l-16.49-11.731l-6.205,9.719c0,0-15.126,22.123-17.569,29.742   c-2.443,7.619,5.001,14.182,4.862,14.38c-0.14,0.199,52.1,35.625,52.1,35.625c7.401,5.196,16.891,4.434,21.197-1.7   C183.354,276.299,180.844,267.113,173.443,261.918z" fill="#CECECE"/><path d="M157.83,185.106c-1.382,1.622-2.797,3.218-4.225,4.807c0.447,2.542,0.045,5.027-1.372,7.044   c-3.447,4.908-11.491,5.2-17.965,0.651c-6.475-4.548-8.929-12.213-5.481-17.122c1.425-2.028,3.638-3.256,6.198-3.688   c0.578-1.884,1.113-3.787,1.68-5.676c-5.495-0.215-10.499,1.765-13.402,5.898c-5.171,7.361-1.729,18.692,7.689,25.308   c9.417,6.616,21.245,6.011,26.416-1.351C160.511,196.503,160.462,190.563,157.83,185.106z" fill="#595A5C"/><path d="M395.321,302.604c0.192-0.212-45.247-40.051-45.247-40.051c-6.396-5.835-16.399-5.284-22.345,1.229   c-5.944,6.515-5.579,16.526,0.815,22.361l42.098,32.374l-22.182,28.629l14.211,13.169l8.78-10.337c0,0,21.025-23.502,25.404-31.676   C401.236,310.13,395.129,302.814,395.321,302.604z" fill="#A8AAAD"/><path d="M342.096,385.367c1.534-1.979,3.038-3.984,4.53-6c2.796-0.354,5.403-1.581,7.357-3.726   c4.756-5.214,3.871-13.765-1.975-19.095c-5.847-5.332-14.441-5.427-19.197-0.212c-1.966,2.156-2.954,4.881-3.036,7.711   c-1.937,1.218-3.899,2.397-5.843,3.605c-1.049-5.706,0.331-11.607,4.336-16c7.133-7.822,19.809-7.876,28.313-0.122   c8.504,7.756,9.616,20.383,2.484,28.205C354.729,384.49,348.346,386.364,342.096,385.367z" fill="#2B2C2D"/><g><path d="M403.594,318.963l-0.646-0.723c1.515-1.355,2.373-3.285,2.483-5.578c0.162-3.414-1.405-7.256-4.193-10.276    l0.712-0.657c3.005,3.254,4.627,7.257,4.449,10.979C406.277,315.267,405.308,317.43,403.594,318.963z" fill="#494545"/></g><g><path d="M94.889,259.394h-0.97c0,52.644,26.306,95.472,58.64,95.472v-0.969    C120.759,353.896,94.889,311.502,94.889,259.394z" fill="#4F4848"/><path d="M113.304,262.301h-0.969c0,37.68,19.784,68.333,44.101,68.333v-0.97    C132.653,329.664,113.304,299.445,113.304,262.301z" fill="#4F4848"/><path d="M133.659,277.81h-0.969c0,21.11,11.088,38.285,24.716,38.285v-0.969    C144.312,315.126,133.659,298.386,133.659,277.81z" fill="#4F4848"/></g></g></svg>