<?xml version="1.0" ?><!DOCTYPE svg  PUBLIC '-//W3C//DTD SVG 1.1//EN'  'http://www.w3.org/Graphics/SVG/1.1/DTD/svg11.dtd'><svg enable-background="new 0 0 512 512" height="512px" version="1.1" viewBox="0 0 512 512" width="512px" xml:space="preserve" xmlns="http://www.w3.org/2000/svg" xmlns:xlink="http://www.w3.org/1999/xlink"><g id="Background"><circle cx="256" cy="256" fill="#2EAAA4" id="Background_1_" r="256"/></g><g id="Shadow"><ellipse cx="251.783" cy="452.232" opacity="0.1" rx="149.47" ry="9.713"/><path d="M336.153,101.308L297.694,69.14l-6.767,25.155l-39.144,3.792l-30.941-28.156l-6.957,36.566l-51.181,11.563   l-9.627,108l21.77,21.053l-57.67,3.222l-61.029,16.49l106.443,179.572h264.523c27.302-24.553,49.288-54.89,64.04-89.086   L342.276,96.662L336.153,101.308z" opacity="0.1"/></g><g id="Foot"><path d="M232.764,382.339c-3.606-3.393-7.915-5.472-13.103-5.472c0,0-31.874-5.833-31.874,69.528h30.4   c-1.885-6.39-2.985-13.811-2.985-21.761C215.203,403.623,222.765,386.142,232.764,382.339z" fill="#ACB0BF"/><path d="M232.764,382.339c-9.999,3.803-17.561,21.283-17.561,42.296c0,7.95,1.1,15.371,2.985,21.761h32.665   C250.853,446.396,250.179,398.714,232.764,382.339z" fill="#247F7D"/><path d="M299.787,384.545c-3.993-4.694-8.963-7.678-15.197-7.678c0,0-31.873-5.833-31.873,69.528h31.365   c-1.484-5.836-2.339-12.418-2.339-19.408C281.743,405.639,289.551,387.963,299.787,384.545z" fill="#9DA0B2"/><path d="M299.787,384.545c-10.235,3.418-18.044,21.094-18.044,42.442c0,6.99,0.854,13.572,2.339,19.408h31.698   C315.78,446.396,315.162,402.611,299.787,384.545z" fill="#247F7D"/></g><g id="Body"><path d="M288.907,266.824c9.645,0,18.973,1.072,27.84,3.033v-6.899c0-13.453-5.04-24.359-11.251-24.359H195.782   c-6.214,0-11.251,10.906-11.251,24.359v83.219c0,0.843,0.02,1.677,0.059,2.497C185.829,303.303,232.04,266.824,288.907,266.824z" fill="#247F7D"/><path d="M195.995,370.532h109.713c6.212,0,11.251-10.905,11.251-24.355v-76.319   c-8.867-1.961-18.195-3.033-27.84-3.033c-56.867,0-103.078,36.479-104.317,81.85C185.38,360.95,190.171,370.532,195.995,370.532z" fill="#42B5E8"/><rect fill="#3A3C47" height="9.662" width="18.705" x="198.86" y="253.383"/><rect fill="#3A3C47" height="9.662" width="18.706" x="284.19" y="253.383"/><rect fill="#3A3C47" height="9.662" width="18.704" x="241.525" y="253.383"/><rect fill="#45BA77" height="6.926" width="13.413" x="223.088" y="254.75"/><rect fill="#45BA77" height="6.926" width="13.411" x="265.98" y="254.75"/><rect fill="#45BA77" height="43.629" width="18.705" x="198.86" y="319.834"/><rect fill="#45BA77" height="43.629" width="18.706" x="284.19" y="319.834"/><rect fill="#45BA77" height="43.629" width="18.704" x="241.525" y="319.834"/><rect fill="#EC5B5A" height="42.263" width="13.413" x="223.088" y="319.834"/><rect fill="#EC5B5A" height="42.563" width="13.411" x="265.98" y="319.535"/><path d="M316.747,262.958c0-13.453-5.04-24.359-11.251-24.359h-54.856v131.933h55.069   c6.212,0,11.251-10.905,11.251-24.355v-76.319c-0.07-0.015-0.142-0.026-0.213-0.044V262.958z" fill="#111111" opacity="0.1"/></g><g id="Hand"><polygon fill="#8C91A5" points="436.183,312.629 430.703,323.944 433.597,336.173 421.143,334.458 410.405,340.988    408.191,328.616 398.659,320.421 409.743,314.491 414.591,302.893 423.657,311.6  "/><polygon fill="#1D706C" points="426.802,317.286 424.063,322.943 425.51,329.058 419.284,328.201 413.914,331.464 412.806,325.28    408.041,321.181 413.581,318.217 416.007,312.416 420.54,316.771  "/><polygon fill="#ACB0BF" points="56.881,269.401 54.531,257.054 44.913,248.964 55.929,242.913 60.652,231.265 69.812,239.873    82.349,240.766 76.994,252.137 80.019,264.335 67.549,262.756  "/><polygon fill="#247F7D" points="60.257,259.87 59.081,253.694 54.271,249.649 59.779,246.623 62.141,240.798 66.722,245.103    72.991,245.551 70.312,251.235 71.824,257.335 65.589,256.543  "/><g><path d="M164.045,301.746c1.055,0.056,2.077,0.109,3.049,0.181l0.107-1.452c-0.982-0.072-2.015-0.126-3.08-0.183    c-10.563-0.556-23.71-1.247-23.71-21.446h-1.456C138.955,300.426,153.457,301.189,164.045,301.746z" fill="#3A3C47"/><path d="M127.923,313.221c-7.639-8.693-10.588-20.228-8.767-34.282l-1.444-0.188    c-1.877,14.489,1.19,26.41,9.117,35.431c8.957,10.192,23.963,16.039,41.17,16.039v-1.455    C151.211,328.765,136.604,323.098,127.923,313.221z" fill="#3A3C47"/><path d="M112.981,335.987c-13.018-13.826-18.883-33.039-17.431-57.098l-1.452-0.088    c-1.478,24.478,4.52,44.053,17.824,58.184c13.025,13.836,32.639,21.454,55.226,21.454v-1.455    C144.966,356.984,125.729,349.527,112.981,335.987z" fill="#3A3C47"/></g><g><path d="M342.276,294.431h-1.455c0,10.765-3.574,10.765-10.062,10.765v1.455    C337.193,306.651,342.276,306.651,342.276,294.431z" fill="#3A3C47"/><path d="M357.099,307.289h-1.456c0,17.771-18.238,23.291-24.884,23.291v1.456    C337.793,332.036,357.099,326.17,357.099,307.289z" fill="#3A3C47"/><path d="M371.512,322.69c0,10.292-11.256,19.239-17.966,23.655c-9.527,6.273-19.691,10.123-22.787,10.123v1.455    c3.711,0,14.311-4.255,23.588-10.362c8.494-5.592,18.62-14.447,18.62-24.871H371.512z" fill="#3A3C47"/></g><path d="M111.358,241.237c0-0.118,0.023-0.23,0.024-0.348l-29.033-0.123l-5.355,11.371l3.025,12.199l45.282,0.021   C116.742,258.582,111.358,250.374,111.358,241.237z" fill="#247F7D"/><path d="M180.384,240.889h-69.001c-0.001,0.118-0.024,0.23-0.024,0.348c0,9.137,5.384,17.345,13.943,23.12h55.083   V240.889z" fill="#42B5E8"/><path d="M414.591,302.893l-26.497-19.842c-0.152,0.224-0.271,0.465-0.438,0.682   c-5.313,7.137-14.193,10.531-24.179,10.26l35.182,26.429l11.084-5.931L414.591,302.893z" fill="#1D706C"/><path d="M387.615,283.826c0.166-0.217,0.286-0.458,0.439-0.682l-53.432-39.948l-14.051,18.796l42.835,32.026   C373.392,294.317,382.281,290.948,387.615,283.826z" fill="#219DBF"/></g><g id="Head"><path d="M188.659,94.295h-22.05c-9.543,0-17.28,11.709-17.28,26.153v89.353c0,14.444,7.737,26.153,17.28,26.153   h168.487c9.542,0,17.28-11.709,17.28-26.153v-3.294C286.982,186.342,230.149,146.674,188.659,94.295z" fill="#42B5E8"/><path d="M335.095,94.295H188.659c41.49,52.379,98.323,92.047,163.717,112.211v-86.058   C352.375,106.004,344.637,94.295,335.095,94.295z" fill="#247F7D"/><rect fill="#99643C" height="49.768" width="151.584" x="174.848" y="166.998"/><rect fill="#C1C4D7" height="2.91" width="127.992" x="187.788" y="190.428"/><polygon fill="#99643C" points="200.344,156.403 187.886,134.825 200.344,113.248 225.263,113.248 237.721,134.825    225.263,156.403  "/><polygon fill="#99643C" points="280.07,156.461 267.582,134.825 280.07,113.191 305.053,113.191 317.545,134.825 305.053,156.461     "/><path d="M217.924,126.263c-1.502-0.9-3.241-1.45-5.121-1.45c-5.529,0-10.013,4.482-10.013,10.013   c0,2.331,0.83,4.447,2.165,6.15C208.276,135.25,212.691,130.261,217.924,126.263z" fill="#C1C4D7"/><path d="M212.804,144.838c5.531,0,10.013-4.483,10.013-10.013c0-3.65-1.972-6.813-4.893-8.563   c-5.233,3.999-9.648,8.988-12.968,14.712C206.789,143.31,209.604,144.838,212.804,144.838z" fill="#2DB564"/><path d="M297.694,126.97c-1.503-0.904-3.246-1.455-5.131-1.455c-5.544,0-10.038,4.494-10.038,10.039   c0,2.338,0.831,4.459,2.171,6.166C288.024,135.98,292.452,130.977,297.694,126.97z" fill="#C1C4D7"/><path d="M292.563,145.592c5.547,0,10.037-4.494,10.037-10.039c0-3.659-1.977-6.832-4.906-8.583   c-5.242,4.007-9.67,9.011-12.998,14.75C286.531,144.062,289.352,145.592,292.563,145.592z" fill="#2DB564"/><path d="M212.804,67.398c-4.194,0-7.948,1.849-10.52,4.764c5.47,4,14.192,6.96,24.501,8.123   C226.197,73.074,220.169,67.398,212.804,67.398z" fill="#339AD4"/><path d="M202.284,72.163c-2.183,2.475-3.519,5.715-3.519,9.275v12.855h28.078V81.438   c0-0.389-0.026-0.771-0.058-1.152C216.476,79.123,207.754,76.162,202.284,72.163z" fill="#C7CAD3"/><g><path d="M145.413,101.308c-1.12,0-2.239-0.225-3.302-0.674c-1.706-0.721-3.03-2.063-3.728-3.78    c-0.697-1.716-0.683-3.601,0.037-5.307c1.221-2.891,4.568-4.25,7.46-3.029c1.157,0.489,2.054,1.398,2.526,2.561    c0.473,1.164,0.463,2.441-0.026,3.598c-0.405,0.961-1.161,1.707-2.127,2.099c-0.966,0.394-2.028,0.385-2.989-0.021l0.566-1.341    c0.604,0.255,1.269,0.259,1.875,0.014c0.606-0.246,1.081-0.714,1.335-1.317c0.696-1.648-0.078-3.555-1.726-4.252    c-2.152-0.908-4.644,0.104-5.552,2.256c-0.57,1.348-0.581,2.837-0.03,4.194c0.55,1.355,1.597,2.417,2.945,2.985    c1.73,0.732,3.641,0.745,5.381,0.038c1.739-0.707,3.1-2.049,3.831-3.778c0.933-2.208,0.95-4.646,0.048-6.866    c-0.901-2.221-2.614-3.957-4.821-4.888c-5.791-2.446-12.486,0.275-14.931,6.063l-1.34-0.566    c2.757-6.527,10.311-9.594,16.838-6.837c2.565,1.083,4.555,3.101,5.604,5.681c1.047,2.581,1.028,5.415-0.056,7.98    c-0.881,2.088-2.524,3.708-4.625,4.561C147.575,101.099,146.493,101.308,145.413,101.308z" fill="#3A3C47"/></g><path d="M366.606,92.884c-1.185,2.804-3.39,4.979-6.21,6.124c-2.818,1.146-5.917,1.124-8.72-0.062   c-2.208-0.931-3.92-2.667-4.82-4.888c-0.903-2.221-0.886-4.659,0.047-6.867c0.73-1.729,2.09-3.072,3.829-3.778   c1.739-0.707,3.65-0.694,5.382,0.038c1.348,0.569,2.395,1.63,2.945,2.986c0.551,1.356,0.54,2.846-0.028,4.193   c-0.911,2.152-3.403,3.163-5.554,2.255c-1.647-0.696-2.423-2.604-1.727-4.251c0.253-0.603,0.728-1.071,1.334-1.317   c0.606-0.247,1.271-0.242,1.875,0.014l0.567-1.341c-0.96-0.407-2.023-0.414-2.989-0.021c-0.967,0.393-1.723,1.138-2.129,2.1   c-1.007,2.387,0.115,5.149,2.502,6.158c2.892,1.218,6.237-0.139,7.46-3.029c0.722-1.706,0.734-3.591,0.037-5.308   c-0.698-1.716-2.022-3.058-3.729-3.779c-2.088-0.882-4.396-0.899-6.494-0.045c-2.101,0.853-3.742,2.473-4.623,4.561   c-1.083,2.566-1.104,5.399-0.055,7.98c1.047,2.58,3.037,4.598,5.602,5.681c1.609,0.68,3.304,1.021,4.999,1.021   c1.636,0,3.274-0.317,4.836-0.952c3.18-1.292,5.668-3.744,7.003-6.906L366.606,92.884z" fill="#3A3C47"/><circle cx="336.153" cy="106.497" fill="#9DA0B2" r="3.346"/><circle cx="166.052" cy="106.497" fill="#9DA0B2" r="3.346"/><path d="M290.926,67.398c-4.192,0-7.946,1.849-10.521,4.764c5.472,4,14.195,6.96,24.502,8.123   C304.322,73.074,298.293,67.398,290.926,67.398z" fill="#2F9999"/><path d="M280.406,72.163c-2.181,2.475-3.518,5.715-3.518,9.275v12.855h28.078V81.438   c0-0.389-0.027-0.771-0.059-1.152C294.601,79.123,285.877,76.162,280.406,72.163z" fill="#C1C4D7"/><polygon fill="#111111" opacity="0.1" points="293.647,113.191 293.647,156.461 305.053,156.461 317.545,134.825 305.053,113.191     "/><polygon fill="#111111" opacity="0.1" points="213.886,113.248 213.886,156.403 225.263,156.403 237.721,134.825 225.263,113.248     "/><path d="M335.095,94.295h-84.456v141.659h84.456c9.542,0,17.28-11.709,17.28-26.153v-3.294v-86.058   C352.375,106.004,344.637,94.295,335.095,94.295z" fill="#111111" opacity="0.1"/></g></svg>