<?xml version="1.0" ?><!DOCTYPE svg  PUBLIC '-//W3C//DTD SVG 1.1//EN'  'http://www.w3.org/Graphics/SVG/1.1/DTD/svg11.dtd'><svg enable-background="new 0 0 512 512" height="512px" version="1.1" viewBox="0 0 512 512" width="512px" xml:space="preserve" xmlns="http://www.w3.org/2000/svg" xmlns:xlink="http://www.w3.org/1999/xlink"><g id="Background"><circle cx="256" cy="256" fill="#BA3250" r="256"/></g><g id="Shadow"><path d="M408.005,237.318l-19.07-26.485l-5.942,4.029l-46.929-96.786l-49.555-2.033L260.98,89.691l-3.491-0.861   l-1.29,27.213l-60.686,29.064l-17.62,34.434l-8.365-12.675l-10.084,2.717v17.01l-15.792,17.21l34.241,54.213l28.55-2.632   l-30.182,155.934l58.717,24.176l202.423,1.135c26.092-26.203,46.54-58.027,59.378-93.497l-83.498-122.464L408.005,237.318z" opacity="0.1"/><path d="M255.821,421.513c-83.735,0.55-151.536,4.11-151.437,7.954c0.099,3.843,68.06,6.512,151.795,5.963   c83.734-0.551,151.535-4.111,151.436-7.954C407.516,423.633,339.556,420.963,255.821,421.513z" opacity="0.14"/></g><g id="Head"><g><rect fill="#353232" height="21.52" transform="matrix(0.9992 0.0403 -0.0403 0.9992 4.3615 -10.2778)" width="0.86" x="256.629" y="92.262"/></g><path d="M337.644,123.519c-0.011-5.676-4.663-10.313-10.34-10.303l-142.501,0.26   c-5.677,0.01-10.313,4.664-10.302,10.34l0.167,91.829c0.011,5.677,4.664,10.313,10.34,10.303l142.501-0.26   c5.677-0.011,10.313-4.664,10.303-10.34L337.644,123.519z" fill="#EC5A59"/><g><path d="M244.734,90.585l0.86-0.002c-0.007-3.914,5.152-7.107,11.5-7.119l-0.002-0.86    C250.27,82.616,244.726,86.197,244.734,90.585z" fill="#282424"/><path d="M257.472,79.548l-0.001-0.86c-4.712,0.008-9.145,1.134-12.479,3.17c-3.402,2.077-5.272,4.858-5.267,7.832    l0.86-0.002c-0.005-2.662,1.719-5.182,4.854-7.096C248.642,80.638,252.916,79.557,257.472,79.548z" fill="#282424"/></g><ellipse cx="257.498" cy="93.573" fill="#5FC6CA" rx="4.743" ry="6.068" transform="matrix(-0.0019 -1 1 -0.0019 164.4024 351.244)"/><g><path d="M286.424,179.541c-2.443,7.031-8.65,12.289-17.479,14.805c-8.882,2.531-19.351,1.988-29.476-1.531    l-0.282,0.813c6.02,2.092,12.162,3.148,18.036,3.148c4.168,0,8.201-0.532,11.957-1.603c9.105-2.595,15.518-8.047,18.056-15.35    L286.424,179.541z" fill="#353232"/><path d="M236.244,195.548c-0.834-3.509-0.371-7.468,1.306-11.147l-0.783-0.357    c-1.756,3.853-2.239,8.009-1.36,11.703c0.888,3.734,3.058,6.556,6.11,7.948l0.357-0.783    C239.068,201.633,237.068,199.018,236.244,195.548z" fill="#353232"/><path d="M232.104,198.236c-0.651-2.229-0.439-4.71,0.597-6.983l-0.783-0.357c-1.122,2.461-1.349,5.154-0.64,7.582    c0.715,2.451,2.298,4.342,4.456,5.326l0.357-0.783C234.164,202.142,232.748,200.443,232.104,198.236z" fill="#353232"/></g><g><ellipse cx="184.252" cy="124.239" fill="#818385" rx="5.362" ry="6.164"/><polygon fill="#5B5C5E" points="180.089,127.006 181.214,128.37 188.415,121.473 187.289,120.108   "/></g><g><ellipse cx="185.451" cy="216.958" fill="#818385" rx="5.362" ry="6.164"/><polygon fill="#5B5C5E" points="181.289,219.725 182.414,221.089 189.614,214.192 188.489,212.828   "/></g><g><ellipse cx="328.06" cy="122.207" fill="#818385" rx="5.362" ry="6.164"/><polygon fill="#5B5C5E" points="323.896,124.973 325.021,126.337 332.222,119.439 331.097,118.076   "/></g><g><ellipse cx="328.06" cy="214.861" fill="#818385" rx="5.362" ry="6.165"/><polygon fill="#5B5C5E" points="323.896,217.628 325.021,218.993 332.222,212.095 331.097,210.731   "/></g><g><polygon fill="#828182" points="312.149,143.589 304.255,154.685 288.076,154.972 279.793,144.165 287.688,133.069     303.865,132.781   "/><rect fill="#01263D" height="22" transform="matrix(-0.0046 -1 1 -0.0046 153.157 440.8668)" width="1.691" x="295.15" y="133.208"/><polygon fill="#1C1C1C" opacity="0.1" points="304.255,154.685 312.149,143.589 303.865,132.781 296.244,132.917 296.822,154.817       "/></g><g><polygon fill="#828182" points="234.76,144.291 226.706,155.271 210.525,155.324 202.399,144.397 210.454,133.417     226.634,133.364   "/><polygon fill="#5FC6CA" points="224.307,151.609 218.287,148.835 212.37,151.325 213.401,145.778 208.495,141.716     215.152,141.062 218.038,136.062 221.121,141.204 227.81,142.176 223.059,146.008   "/><polygon fill="#1C1C1C" opacity="0.1" points="218.191,133.392 218.191,155.299 226.706,155.271 234.76,144.291 226.634,133.364       "/></g><path d="M327.304,113.216l-70.266,0.128c-0.57,0.275-0.839,0.428-0.839,0.428l-0.661-0.425l-0.203,0   V225.82l72.174-0.131c5.677-0.011,10.313-4.664,10.303-10.34l-0.168-91.83C337.633,117.843,332.98,113.207,327.304,113.216z" fill="#191818" opacity="0.1"/></g><g id="Body"><path d="M311.155,231.537l-112.015-1.691c-10.721-0.162-19.625,8.478-19.788,19.199l-1.457,96.514   c-0.162,10.722,8.477,19.626,19.199,19.788l112.016,1.691c10.721,0.161,19.626-8.478,19.787-19.199l1.457-96.514   C330.517,240.603,321.877,231.698,311.155,231.537z" fill="#DE5A53"/><g><ellipse cx="314.088" cy="319.666" fill="#EB272A" rx="10.321" ry="11.095" transform="matrix(0.0151 -0.9999 0.9999 0.0151 -10.2812 628.8945)"/><g><path d="M312.523,319.885c-0.037,2.394-1.577,3.64-3.434,3.611c-1.92-0.029-3.247-1.473-3.215-3.577     c0.033-2.207,1.49-3.63,3.432-3.601C311.293,316.349,312.554,317.823,312.523,319.885z M306.879,319.913     c-0.022,1.486,0.8,2.829,2.276,2.851c1.489,0.023,2.351-1.274,2.374-2.852c0.021-1.382-0.712-2.839-2.276-2.862     C307.699,317.026,306.902,318.388,306.879,319.913z" fill="#272626"/><path d="M313.798,316.5l3.915,0.059l-0.012,0.754l-2.977-0.045l-0.035,2.31l2.751,0.042l-0.011,0.743     l-2.751-0.042l-0.049,3.146l-0.938-0.015L313.798,316.5z" fill="#272626"/><path d="M319.055,316.579l3.915,0.06l-0.011,0.753l-2.978-0.045l-0.034,2.311l2.751,0.041l-0.011,0.742     l-2.752-0.041l-0.047,3.146l-0.939-0.013L319.055,316.579z" fill="#272626"/></g><path d="M325.19,319.834c0.073-4.875-3.586-9.006-8.567-10.162    c-3.837,1.067-6.753,5.39-6.831,10.615c-0.063,4.138,1.669,7.764,4.278,9.684C320.161,329.876,325.106,325.414,325.19,319.834z" fill="#191818" opacity="0.1"/></g><g><rect fill="#EB272A" height="89.062" transform="matrix(0.0151 -0.9999 0.9999 0.0151 -70.8424 571.9459)" width="62.635" x="223.586" y="277.402"/></g><g><ellipse cx="195.348" cy="317.874" fill="#3EB172" rx="10.321" ry="11.096" transform="matrix(0.0151 -0.9999 0.9999 0.0151 -125.4373 508.4022)"/><g><path d="M195.414,317.766c-0.036,2.393-1.576,3.64-3.432,3.611c-1.92-0.029-3.248-1.473-3.216-3.577     c0.034-2.207,1.491-3.63,3.433-3.601C194.184,314.229,195.445,315.703,195.414,317.766z M189.77,317.794     c-0.023,1.486,0.799,2.829,2.277,2.852c1.489,0.022,2.35-1.275,2.375-2.854c0.021-1.381-0.713-2.838-2.278-2.861     C190.591,314.907,189.793,316.269,189.77,317.794z" fill="#232323"/><path d="M196.583,321.333l0.105-6.952l1.025,0.015l2.278,3.554c0.527,0.822,0.937,1.562,1.271,2.278l0.021-0.01     c-0.072-0.931-0.081-1.776-0.064-2.858l0.043-2.91l0.885,0.014l-0.105,6.952l-0.95-0.015l-2.255-3.562     c-0.496-0.781-0.969-1.583-1.325-2.341l-0.033,0.009c0.042,0.878,0.05,1.714,0.033,2.869l-0.045,2.971L196.583,321.333z" fill="#232323"/></g><path d="M206.443,318.041c0.077-5.123-3.876-9.422-9.125-10.311c-3.464,1.45-6.022,5.792-6.1,10.966    c-0.059,3.876,1.293,7.32,3.409,9.462c0.188,0.012,0.374,0.032,0.565,0.035C201.319,328.286,206.357,323.74,206.443,318.041z" fill="#303030" opacity="0.2"/></g><path d="M284.815,298.006l-0.484-0.007c-1.104-0.018-2.02,0.872-2.037,1.976l-0.657,43.574   c-0.017,1.103,0.873,2.02,1.977,2.036l0.484,0.007c1.103,0.017,2.021-0.872,2.036-1.977l0.658-43.573   C286.81,298.938,285.92,298.022,284.815,298.006z" fill="#020202"/><path d="M284.499,302.876c-1.235-0.02-2.263,0.934-2.28,2.116l-0.116,7.739c-0.019,1.184,0.979,2.166,2.215,2.185   c1.237,0.019,2.264-0.935,2.281-2.116l0.117-7.74C286.734,303.877,285.736,302.895,284.499,302.876z" fill="#FBED26"/><path d="M284.292,316.636c-1.236-0.02-2.263,0.934-2.28,2.116l-0.117,7.74c-0.019,1.183,0.979,2.165,2.216,2.184   s2.264-0.934,2.281-2.116l0.117-7.739C286.526,317.637,285.529,316.654,284.292,316.636z" fill="#069547"/><path d="M284.084,330.396c-1.236-0.019-2.263,0.934-2.281,2.116l-0.116,7.74c-0.018,1.183,0.979,2.165,2.216,2.184   c1.237,0.019,2.264-0.934,2.282-2.115l0.116-7.74C286.318,331.397,285.321,330.414,284.084,330.396z" fill="#2376BC"/><path d="M313.575,265.739c-1.163-5.721,0.245-12.001,3.862-17.23l-0.706-0.49   c-3.752,5.423-5.21,11.943-3.999,17.892c1.04,5.115,3.967,9.424,8.24,12.128l0.46-0.728   C317.359,274.732,314.568,270.623,313.575,265.739z" fill="#631011"/><g><path d="M189.789,277.807l-0.708-0.489c4.542-6.564,6.477-14.298,5.177-20.688    c-0.867-4.26-3.065-7.613-6.359-9.697l0.46-0.728c3.496,2.214,5.827,5.758,6.741,10.253    C196.446,263.072,194.46,271.054,189.789,277.807z" fill="#631011"/></g><g><ellipse cx="215.985" cy="294.784" fill="#818385" rx="2.678" ry="3.078" transform="matrix(0.6964 0.7177 -0.7177 0.6964 277.1464 -65.5024)"/><polygon fill="#5A5B5D" points="218.424,295.314 218.521,294.438 213.546,294.255 213.448,295.132   "/></g><g><ellipse cx="293.384" cy="295.95" fill="#818385" rx="2.678" ry="3.078" transform="matrix(-0.1534 -0.9882 0.9882 -0.1534 45.9286 631.2499)"/><polygon fill="#5A5B5D" points="291.7,294.107 291.114,294.766 295.068,297.792 295.654,297.132   "/></g><g><ellipse cx="215.167" cy="348.964" fill="#818385" rx="2.677" ry="3.077" transform="matrix(0.6965 0.7176 -0.7176 0.6965 315.7323 -48.4769)"/><polygon fill="#5A5B5D" points="217.606,349.494 217.704,348.617 212.728,348.436 212.63,349.313   "/></g><g><ellipse cx="292.566" cy="350.13" fill="#818385" rx="2.678" ry="3.078" transform="matrix(-0.1533 -0.9882 0.9882 -0.1533 -8.5641 692.922)"/><polygon fill="#5A5B5D" points="290.882,348.287 290.296,348.946 294.25,351.972 294.836,351.313   "/></g><path d="M311.155,231.537l-54.65-0.825l-2.045,135.5l54.651,0.825   c10.721,0.161,19.626-8.478,19.787-19.199l1.457-96.514C330.517,240.603,321.877,231.698,311.155,231.537z" fill="#191818" opacity="0.1"/><g><ellipse cx="255.324" cy="264.926" fill="#5FC6CA" rx="19.876" ry="18.493" transform="matrix(0.0151 -0.9999 0.9999 0.0151 -13.4232 516.2253)"/><path d="M255.509,245.481c-1.035-0.016-2.05,0.066-3.04,0.228    c-1.893,2.783-14.078,22.062-1.009,38.467c1.119,0.247,2.273,0.39,3.459,0.407c10.098,0.153,18.416-8.478,18.579-19.274    C273.661,254.511,265.607,245.634,255.509,245.481z" fill="#1C1C1C" opacity="0.2"/><path d="M271.554,255.384c-8.652,7.012-23.161,7.021-32.437,0.021" fill="none"/><path d="M271.978,273.65c-8.836,7.16-23.826,7.034-33.517-0.279" fill="none"/><g><path d="M272.241,273.979c1.238-2.644,1.954-5.617,2.002-8.767c0.168-11.194-8.181-20.432-18.613-20.589     c-10.432-0.158-19.057,8.822-19.227,20.018c-0.048,3.231,0.616,6.297,1.831,9.03l-0.033,0.043     c0.025,0.02,0.052,0.035,0.077,0.054c3.014,6.687,9.352,11.351,16.738,11.462c7.492,0.113,14.052-4.486,17.217-11.233     c0.005-0.004,0.01-0.007,0.014-0.011L272.241,273.979z M254.815,270.931c6.711,0.101,13.416-1.769,18.563-5.59     c-0.063,2.9-0.717,5.643-1.836,8.097c-8.619,6.839-23.111,6.725-32.581-0.243c-1.028-2.359-1.626-4.975-1.69-7.726     C242.284,269.004,248.545,270.836,254.815,270.931z M237.272,264.427c0.078-3.02,0.795-5.864,2.01-8.389     c4.511,3.252,10.172,4.934,15.81,5.019c5.947,0.09,11.844-1.598,16.304-5.027c1.187,2.48,1.89,5.268,1.979,8.217     C263.589,271.941,247.533,272.033,237.272,264.427z M255.617,245.482c6.599,0.1,12.321,4.02,15.387,9.771     c-8.429,6.592-22.309,6.597-31.329,0.012C242.852,249.342,248.833,245.381,255.617,245.482z M255.03,284.369     c-6.538-0.098-12.219-3.944-15.304-9.608c4.586,2.964,10.123,4.503,15.598,4.586c5.546,0.084,11.015-1.323,15.345-4.214     C267.425,280.754,261.604,284.47,255.03,284.369z" fill="#333333"/></g></g></g><g id="Foot"><g><path d="M307.463,353.56c-8.563,10.715,4.517,35.402,29.216,55.143l31.015-38.801    C342.993,350.161,316.028,342.845,307.463,353.56z" fill="#A8AAAD"/><polygon fill="#231F20" points="361.9,373.67 341.654,398.731 343.392,400.146 363.639,375.083   "/></g><g><path d="M200.833,353.57c-9.64-10.421-36.269-1.462-59.479,20.011l34.908,37.736    C199.471,389.845,210.472,363.991,200.833,353.57z" fill="#BABABA"/><polygon fill="#231F20" points="149.225,379.021 147.688,380.464 169.665,404.023 171.202,402.581   "/></g></g><g id="Hand"><g><path d="M186.953,250.075l-36.305-33.154l17.821-20.757l-12.32-13.066l-7.083,7.384    c0,0-16.997,16.633-20.443,22.841c-3.446,6.208,1.896,13.208,1.74,13.357c-0.156,0.148,39.172,40.03,39.172,40.03    c5.542,5.804,13.933,6.786,18.742,2.192S192.495,255.879,186.953,250.075z" fill="#BABABA"/><path d="M186.67,180.52c-1.483,1.172-2.992,2.316-4.509,3.452c-0.051,2.29-0.832,4.382-2.414,5.893    c-3.851,3.674-10.902,2.535-15.749-2.545s-5.655-12.176-1.805-15.851c1.592-1.519,3.73-2.204,6.033-2.136    c0.83-1.54,1.625-3.103,2.445-4.649c-4.745-1.139-9.443-0.282-12.686,2.813c-5.775,5.511-4.742,15.968,2.308,23.358    c7.05,7.389,17.448,8.911,23.224,3.4C187.03,190.904,188.016,185.726,186.67,180.52z" fill="#6D7077"/></g><path d="M386.882,237.453l-8.877,28.393l-43.496-16.76c-7.246-2.152-14.396,1.868-15.968,8.982   c-1.572,7.112,3.027,14.625,10.272,16.778c0,0,50.356,15.994,50.407,15.764c0.051-0.229,8.184,1.079,11.69-5.604   c3.508-6.686,9.392-32.041,9.392-32.041l2.82-10.813L386.882,237.453z" fill="#9C9DA0"/><path d="M410.308,216.458c-0.611,1.963-1.259,3.916-1.917,5.864c1.146,2.185,1.59,4.607,1.071,6.948   c-1.261,5.691-7.65,8.708-14.272,6.739c-6.623-1.97-10.969-8.181-9.708-13.873c0.521-2.352,1.925-4.237,3.854-5.51   c-0.116-1.93-0.273-3.863-0.4-5.793c-4.494,1.68-7.913,5.211-8.976,10.004c-1.891,8.537,4.385,17.782,14.018,20.646   c9.632,2.866,18.973-1.732,20.865-10.27C415.991,226.023,414.115,220.577,410.308,216.458z" fill="#6D7077"/></g></svg>