<?xml version="1.0" ?><!DOCTYPE svg  PUBLIC '-//W3C//DTD SVG 1.1//EN'  'http://www.w3.org/Graphics/SVG/1.1/DTD/svg11.dtd'><svg enable-background="new 0 0 512 512" height="512px" version="1.1" viewBox="0 0 512 512" width="512px" xml:space="preserve" xmlns="http://www.w3.org/2000/svg" xmlns:xlink="http://www.w3.org/1999/xlink"><g id="Background"><circle cx="256" cy="256" fill="#D7E267" id="Background_1_" r="256"/></g><g id="Shadow"><path d="M498.72,337.583c-75.443-117.041-174.923-268.75-174.923-268.75l-9.321,11.146l-44.379-32.044   l-29.815,40.422l-54.266-23.774l-21.881,89.092l2.903,96.479l-30.249,5.425l56.385,46.789l-6.874,72.911l31.744,59.058   l-27.903,22.147l138.6,14.415c0,0,28.1,0.277,65.575,0.552C442.778,440.274,480.036,393.194,498.72,337.583z" opacity="0.15"/><ellipse cx="256" cy="456.483" opacity="0.15" rx="147.133" ry="14.415"/></g><g id="Foot"><path d="M235.916,391.288c-3.67-3.452-8.056-5.568-13.335-5.568c0,0-32.439-5.938-32.439,70.764h30.94   c-1.919-6.506-3.037-14.057-3.037-22.147C218.044,412.948,225.738,395.157,235.916,391.288z" fill="#B9BCC6"/><path d="M235.916,391.288c-10.177,3.869-17.872,21.66-17.872,43.048c0,8.091,1.117,15.642,3.037,22.147h33.244   C254.325,456.483,253.64,407.953,235.916,391.288z" fill="#20706D"/><path d="M340.053,369.64c-6.067,1.593-10.997,4.839-13.747,10.558c0,0-19.406,26.664,49.722,59.896l13.831-28.771   c-6.01-1.214-12.423-3.33-18.835-6.413C351.443,395.496,338.67,380.537,340.053,369.64z" fill="#9DA0B2"/><path d="M340.053,369.64c-1.383,10.896,11.39,25.855,30.971,35.27c6.412,3.083,12.825,5.199,18.835,6.413   l13.979-29.077C403.837,382.246,363.401,363.506,340.053,369.64z" fill="#20706D"/></g><g id="Hand"><polygon fill="#9DA0B2" points="158.738,164.633 171.483,165.729 182.06,158.532 184.955,170.992 195.068,178.826 184.113,185.431    179.785,197.47 170.118,189.092 157.333,188.697 162.314,176.915  "/><polygon fill="#20706D" points="167.151,170.565 173.525,171.113 178.812,167.513 180.261,173.744 185.317,177.66 179.839,180.964    177.674,186.982 172.841,182.793 166.449,182.596 168.94,176.705  "/><path d="M171.338,225.763c0.115,0.032,0.219,0.086,0.334,0.121l8.113-28.414l-9.667-8.378l-12.784-0.395   l-12.488,44.362C152.861,226.264,162.385,223.249,171.338,225.763z" fill="#20706D"/><polygon fill="#9DA0B2" points="275.835,186.256 282.679,175.447 281.163,162.746 293.56,165.913 305.171,160.547 305.982,173.313    314.678,182.696 302.789,187.417 296.554,198.586 288.385,188.739  "/><polygon fill="#20706D" points="285.859,182.629 289.28,177.222 288.522,170.872 294.721,172.458 300.522,169.773 300.932,176.156    305.279,180.845 299.337,183.209 296.215,188.796 292.132,183.867  "/><path d="M296.554,198.586l24.508,23.113c0.178-0.206,0.325-0.436,0.521-0.638   c6.195-6.604,15.563-9.015,25.631-7.592l-32.536-30.773l-11.89,4.721L296.554,198.586z" fill="#20706D"/><path d="M167.79,239.706l3.882-13.822c-0.115-0.034-0.219-0.088-0.334-0.121   c-8.948-2.514-18.465,0.498-26.478,7.285l-8.071,22.53l53.837,15.633l6.662-22.938L167.79,239.706z" fill="#AEB2C1"/><path d="M347.214,213.469l-1.005-0.095c-9.681-1.124-18.641,1.306-24.626,7.688   c-0.196,0.202-0.344,0.432-0.521,0.638l8.865,8.3l-21.729,22.187l17.063,16.711l38.088-38.889L347.214,213.469z" fill="#9DA0B2"/><g><path d="M140.894,265.761c-4.708,0-8.248-1.274-10.519-3.787c-2.498-2.764-3.472-7.051-2.895-12.743l1.596,0.161    c-0.529,5.223,0.308,9.094,2.489,11.508c1.953,2.16,5.092,3.257,9.328,3.257V265.761z" fill="#9DA0B2"/></g><g><path d="M136.789,274.523c-5.219,0-9.906-2.135-13.555-6.171c-4.845-5.359-7.128-13.314-6.267-21.824l1.597,0.162    c-0.817,8.059,1.319,15.562,5.86,20.586c3.336,3.691,7.612,5.643,12.365,5.643V274.523z" fill="#9DA0B2"/></g><g><path d="M366.1,241.766l-1.193-1.073c3.509-3.901,5.116-7.52,4.779-10.754c-0.302-2.898-2.189-5.635-5.61-8.135    l0.946-1.295c3.803,2.779,5.909,5.896,6.26,9.264C371.667,233.477,369.924,237.512,366.1,241.766z" fill="#9DA0B2"/></g><g><path d="M372.993,250.153l-1.193-1.073c5.415-6.024,8.118-13.343,7.416-20.08    c-0.515-4.949-2.816-9.047-6.653-11.85l0.946-1.295c4.214,3.079,6.739,7.567,7.303,12.979    C381.559,236.021,378.709,243.792,372.993,250.153z" fill="#9DA0B2"/></g></g><g id="Head"><path d="M172.169,75.549c-0.291,3.434,0.605,6.982,2.82,9.967l8.001,10.778l32.766-6.385l-17.224-21.868   c-0.242-0.326-0.502-0.63-0.766-0.93C188.399,72.552,179.245,75.498,172.169,75.549z" fill="#C6C9D2"/><path d="M178.024,65.007c-3.516,2.61-5.514,6.497-5.855,10.542c7.075-0.051,16.23-2.997,25.598-8.438   C192.786,61.43,184.199,60.423,178.024,65.007z" fill="#349AD6"/><path d="M270.097,47.934c-4.242-1.083-8.519-0.182-11.874,2.103c4.503,5.459,12.563,10.708,22.691,14.546   C282.183,57.134,277.55,49.835,270.097,47.934z" fill="#309999"/><path d="M258.223,50.036c-2.847,1.941-5.035,4.873-5.956,8.476l-6.228,22.594l28.407,7.25l6.229-22.594   c0.1-0.393,0.171-0.787,0.238-1.18C270.786,60.744,262.726,55.495,258.223,50.036z" fill="#AEB2C1"/><path d="M164.135,94.651l-22.645,4.162c-9.801,1.801-15.537,15.286-12.811,30.12l16.863,91.765   c2.726,14.833,12.881,25.398,22.682,23.598l173.032-31.797c9.803-1.801,15.538-15.287,12.813-30.121l-0.622-3.383   C282.483,170.626,216.63,140.614,164.135,94.651z" fill="#1EA4D3"/><path d="M314.522,67.015L164.135,94.651c52.496,45.963,118.348,75.975,189.312,84.343l-16.242-88.382   C334.479,75.779,324.324,65.213,314.522,67.015z" fill="#26807E"/><rect fill="#9A653C" height="51.967" transform="matrix(0.9835 -0.1807 0.1807 0.9835 -29.052 47.5158)" width="158.283" x="167.065" y="157.191"/><polygon fill="#9A653C" points="187.857,156.23 170.991,136.42 179.712,111.91 205.304,107.207 222.17,127.016 213.448,151.527     "/><polygon fill="#9A653C" points="269.745,141.243 252.837,121.38 261.579,96.806 287.237,92.09 304.149,111.95 295.403,136.528  "/><path d="M200.224,121.958c-1.712-0.642-3.602-0.878-5.533-0.523c-5.678,1.043-9.437,6.493-8.394,12.172   c0.44,2.395,1.692,4.411,3.384,5.908C192.011,133.009,195.604,127.052,200.224,121.958z" fill="#C1C4D6"/><path d="M198.471,142.001c5.68-1.044,9.437-6.493,8.393-12.173c-0.688-3.748-3.312-6.625-6.64-7.87   c-4.619,5.093-8.212,11.051-10.542,17.556C192.005,141.567,195.185,142.605,198.471,142.001z" fill="#2EB565"/><path d="M282.279,107.629c-1.714-0.645-3.608-0.881-5.545-0.526c-5.693,1.046-9.459,6.509-8.413,12.204   c0.44,2.401,1.695,4.423,3.392,5.922C274.049,118.708,277.651,112.734,282.279,107.629z" fill="#C1C4D6"/><path d="M280.524,127.723c5.696-1.046,9.46-6.509,8.414-12.204c-0.69-3.758-3.32-6.643-6.659-7.89   c-4.628,5.105-8.229,11.079-10.566,17.601C274.04,127.289,277.228,128.329,280.524,127.723z" fill="#2EB565"/><circle cx="317.912" cy="79.346" fill="#9DA0B2" r="3.494"/><circle cx="143.221" cy="111.449" fill="#9DA0B2" r="3.494"/><polygon fill="#131313" opacity="0.1" points="275.522,94.243 283.688,138.68 295.403,136.528 304.149,111.95 287.237,92.09  "/><polygon fill="#131313" opacity="0.1" points="193.62,109.354 201.765,153.674 213.448,151.527 222.17,127.016 205.304,107.207     "/><path d="M314.522,67.015l-86.734,15.939l26.735,145.482l86.733-15.938   c9.803-1.801,15.538-15.287,12.813-30.121l-0.622-3.383l-16.242-88.382C334.479,75.779,324.324,65.213,314.522,67.015z" fill="#131313" opacity="0.1"/><path d="M178.527,187.507c2.511,13.48,33.455,19.026,69.114,12.387c35.664-6.641,62.538-22.952,60.029-36.433   c-0.022-0.1-0.056-0.197-0.078-0.296l-129.1,24.038C178.508,187.303,178.51,187.405,178.527,187.507z" fill="#9DA0B2"/><path d="M303.087,166.886c-0.017-0.078-0.043-0.153-0.062-0.23l-119.9,22.324c0.012,0.08,0.013,0.16,0.027,0.239   c1.432,7.696,16.928,11.669,38.042,10.877c1.003-13.22,45.916-21.161,53.15-10.375C292.711,182.979,304.45,174.212,303.087,166.886   z" fill="#603913"/><path d="M221.194,200.097c7.862-0.295,16.498-1.247,25.485-2.92c10.146-1.891,19.549-4.475,27.665-7.455   C267.11,178.936,222.197,186.877,221.194,200.097z" fill="#009444"/></g><g id="Body"><path d="M295.004,274.369c10.07,0,19.811,1.121,29.07,3.169v-7.206c0-14.046-5.264-25.434-11.748-25.434H197.765   c-6.488,0-11.749,11.388-11.749,25.434v86.896c0,0.88,0.021,1.751,0.062,2.608C187.372,312.461,235.625,274.369,295.004,274.369z" fill="#26807E"/><path d="M197.988,382.66h114.561c6.486,0,11.749-11.387,11.749-25.432v-79.69c-9.26-2.048-19-3.169-29.071-3.169   c-59.379,0-107.631,38.093-108.926,85.468C186.903,372.654,191.906,382.66,197.988,382.66z" fill="#45B5E7"/><rect fill="#3B3D48" height="10.089" width="19.531" x="200.979" y="260.334"/><rect fill="#3B3D48" height="10.089" width="19.532" x="290.079" y="260.334"/><rect fill="#3B3D48" height="10.089" width="19.532" x="245.529" y="260.334"/><rect fill="#46B978" height="7.231" width="14.005" x="226.277" y="261.763"/><rect fill="#46B978" height="7.231" width="14.003" x="271.065" y="261.763"/><rect fill="#46B978" height="45.555" width="19.531" x="200.979" y="329.723"/><rect fill="#46B978" height="61.498" width="19.532" x="290.079" y="313.78"/><rect fill="#46B978" height="77.449" width="19.532" x="245.529" y="297.829"/><rect fill="#EC5C5B" height="60.073" width="14.005" x="226.277" y="313.78"/><rect fill="#EC5C5B" height="44.13" width="14.003" x="271.065" y="329.723"/><path d="M324.075,270.332c0-14.046-5.264-25.434-11.748-25.434h-57.28V382.66h57.502   c6.486,0,11.749-11.387,11.749-25.432v-79.69c-0.074-0.017-0.149-0.028-0.223-0.046V270.332z" fill="#131313" opacity="0.1"/></g></svg>