<?xml version="1.0" ?><!DOCTYPE svg  PUBLIC '-//W3C//DTD SVG 1.1//EN'  'http://www.w3.org/Graphics/SVG/1.1/DTD/svg11.dtd'><svg enable-background="new 0 0 512 512" height="512px" version="1.1" viewBox="0 0 512 512" width="512px" xml:space="preserve" xmlns="http://www.w3.org/2000/svg" xmlns:xlink="http://www.w3.org/1999/xlink"><g id="Background"><circle cx="256" cy="256" fill="#E8E8EA" id="Background_1_" r="256"/></g><g id="Shadow"><ellipse cx="256" cy="452.829" opacity="0.2" rx="148.172" ry="6.093"/><path d="M350.377,82.792l-40.394-31.958v24.908l-35.37,16.102l-39.069-39.99l-62.996,161.707l-6.995,34.591   l25.248,38.713l-0.935,73.155l12.282,30.424l-11.347,62.384h228.883c34.319-28.571,61.054-65.94,76.725-108.653L362.285,82.792   H350.377z" opacity="0.1"/></g><g id="Foot"><path d="M239.104,381.731c-3.873-3.641-8.501-5.876-14.072-5.876c0,0-34.231-6.265-34.231,74.674h32.649   c-2.025-6.863-3.206-14.833-3.206-23.37C220.245,404.59,228.366,385.816,239.104,381.731z" fill="#9DA0B2"/><path d="M239.104,381.731c-10.739,4.085-18.86,22.859-18.86,45.428c0,8.537,1.181,16.507,3.206,23.37h35.081   C258.531,450.529,257.809,399.319,239.104,381.731z" fill="#20706D"/><path d="M311.087,384.102c-4.289-5.042-9.629-8.247-16.323-8.247c0,0-34.232-6.265-34.232,74.674h33.687   c-1.595-6.269-2.511-13.336-2.511-20.844C291.708,406.754,300.092,387.772,311.087,384.102z" fill="#9DA0B2"/><path d="M311.087,384.102c-10.995,3.67-19.38,22.652-19.38,45.583c0,7.508,0.916,14.575,2.511,20.844h34.043   C328.261,450.529,327.598,403.503,311.087,384.102z" fill="#20706D"/><path d="M225.032,375.855c0,0-0.488-0.088-1.343-0.107v74.781h34.841c0,0-0.722-51.21-19.426-68.798   C235.231,378.09,230.604,375.855,225.032,375.855z" fill="#151515" opacity="0.1"/><path d="M294.764,375.855c0,0-0.131-0.021-0.368-0.048v74.722h33.865c0,0-0.663-47.025-17.174-66.427   C306.798,379.06,301.458,375.855,294.764,375.855z" fill="#151515" opacity="0.1"/></g><g id="Hand"><polygon fill="#9DA0B2" opacity="0.2" points="50.208,260.438 47.684,247.178 37.354,238.489 49.186,231.99 54.258,219.48    64.096,228.725 77.561,229.685 71.809,241.896 75.057,254.998 61.666,253.301  "/><polygon fill="#20706D" opacity="0.3" points="53.834,250.201 52.571,243.569 47.405,239.225 53.321,235.975 55.858,229.719    60.777,234.342 67.51,234.823 64.633,240.928 66.257,247.479 59.561,246.63  "/><path d="M108.716,230.19c0-0.126,0.024-0.248,0.026-0.374l-31.181-0.131l-5.752,12.211l3.249,13.101   l48.632,0.024C114.498,248.818,108.716,240.003,108.716,230.19z" fill="#20706D" opacity="0.3"/><path d="M182.849,229.816h-74.107c-0.002,0.126-0.026,0.248-0.026,0.374   c0,9.813,5.782,18.628,14.974,24.832h59.159V229.816z" fill="#9DA0B2" opacity="0.2"/><polygon fill="#9DA0B2" points="457.575,306.866 451.688,319.017 454.795,332.151 441.42,330.308 429.887,337.321 427.509,324.034    417.273,315.233 429.176,308.864 434.382,296.41 444.122,305.758  "/><polygon fill="#20706D" points="447.497,311.865 444.557,317.942 446.112,324.509 439.422,323.587 433.656,327.095 432.466,320.45    427.347,316.049 433.299,312.866 435.905,306.634 440.773,311.312  "/><polygon fill="#9DA0B2" points="65.345,161.084 72.607,149.706 71.054,136.297 84.12,139.688 96.394,134.067 97.207,147.542    106.344,157.479 93.781,162.417 87.154,174.177 78.577,163.753  "/><polygon fill="#20706D" points="75.007,156.124 78.638,150.433 77.861,143.728 84.395,145.423 90.532,142.613 90.938,149.352    95.507,154.321 89.224,156.789 85.911,162.668 81.624,157.456  "/><path d="M128.662,179.224c0.086-0.092,0.188-0.164,0.276-0.254l-22.593-21.49l-12.563,4.937l-6.626,11.76   l35.363,33.385C120.087,196.742,121.929,186.362,128.662,179.224z" fill="#20706D"/><path d="M182.849,229.816l-53.911-50.847c-0.087,0.091-0.189,0.163-0.276,0.254   c-6.733,7.138-8.574,17.519-6.145,28.338l43.037,40.59L182.849,229.816z" fill="#9DA0B2"/><path d="M434.382,296.41l-28.456-21.313c-0.163,0.24-0.292,0.5-0.47,0.733c-5.708,7.665-15.244,11.312-25.968,11.02   l37.784,28.383l11.903-6.369L434.382,296.41z" fill="#20706D"/><path d="M405.457,275.831c0.178-0.233,0.307-0.493,0.47-0.733l-57.503-42.745l-15.036,20.229l46.102,34.269   C390.212,287.142,399.749,283.496,405.457,275.831z" fill="#9DA0B2"/><g><path d="M52.506,211.346h-1.563c0-18.283,13.626-33.158,30.375-33.158v1.563    C65.431,179.751,52.506,193.924,52.506,211.346z" fill="#9DA0B2"/></g><g><path d="M69.818,214.21h-1.563c0-11.906,11.44-21.592,25.501-21.592v1.563    C80.557,194.182,69.818,203.166,69.818,214.21z" fill="#9DA0B2"/></g><g><path d="M82.793,219.104H81.23c0-8.659,5.308-15.703,11.831-15.703v1.563    C87.4,204.963,82.793,211.307,82.793,219.104z" fill="#9DA0B2"/></g></g><g id="Head"><path d="M217.192,51.854c-2.651,2.317-4.509,5.562-4.999,9.328l-1.767,13.601l28.62,18.557l2.854-28.298   c0.053-0.413,0.078-0.819,0.098-1.226C231.249,61.168,222.429,56.837,217.192,51.854z" fill="#C5C9D2"/><path d="M228.977,48.259c-4.437-0.576-8.664,0.862-11.785,3.595c5.237,4.982,14.057,9.313,24.806,11.961   C242.367,56.104,236.767,49.271,228.977,48.259z" fill="#379AD5"/><path d="M303.379,50.848c-4.468,0.194-8.383,2.337-10.992,5.565c6.018,4.008,15.453,6.76,26.493,7.524   C317.918,56.276,311.235,50.507,303.379,50.848z" fill="#309999"/><path d="M292.387,56.414c-2.209,2.738-3.484,6.253-3.322,10.049L289.65,90.4l29.926-1.298l-0.581-23.94   c-0.018-0.413-0.066-0.819-0.114-1.224C307.84,63.174,298.405,60.421,292.387,56.414z" fill="#AEB3C2"/><path d="M197.05,74.078l-23.515-0.71c-10.177-0.308-18.805,11.929-19.27,27.333l-2.881,95.287   c-0.466,15.403,7.407,28.14,17.584,28.448l179.674,5.431c10.179,0.308,18.807-11.93,19.274-27.333l0.106-3.512   C298.937,175.407,239.607,131.272,197.05,74.078z" fill="#1EA4D2"/><path d="M353.213,78.797l-156.163-4.72c42.557,57.195,101.887,101.33,170.974,124.942l2.771-91.775   C371.259,91.841,363.387,79.105,353.213,78.797z" fill="#28817E"/><path d="M354.054,88.275c-1.973-0.058-3.617,1.492-3.675,3.462c-0.061,1.971,1.49,3.614,3.458,3.675   c1.975,0.059,3.617-1.489,3.68-3.459C357.575,89.983,356.027,88.335,354.054,88.275z" fill="#9DA0B2"/><circle cx="172.549" cy="86.361" fill="#9DA0B2" r="3.57"/><rect fill="#603913" height="57.473" transform="matrix(0.9995 0.0313 -0.0313 0.9995 5.7529 -8.0291)" width="166.118" x="176.676" y="151.291"/><rect fill="#754C29" height="53.451" transform="matrix(0.9995 0.0312 -0.0312 0.9995 5.752 -8.028)" width="162.8" x="178.338" y="153.301"/><g><polygon fill="#D0D1E5" points="329.858,175.964 259.317,193.4 192.464,171.669 192.562,168.544 259.416,190.275 329.956,172.839       "/></g><polygon fill="#754C29" points="236.545,92.489 207.122,91.569 191.614,116.588 194.289,116.673 208.385,93.927 235.135,94.765    247.784,118.344 250.459,118.428  "/><path d="M291.11,145.271" fill="#603913"/><polygon fill="#754C29" points="322.206,95.1 292.707,94.178 277.154,119.263 279.839,119.347 293.971,96.543 320.789,97.381    333.473,121.023 336.155,121.107  "/><path d="M352.428,78.465l-90.12-2.723l-3.405,151.101l88.956,2.691   c10.179,0.308,18.805-11.931,19.273-27.333l0.107-3.514l2.771-91.773C370.475,91.51,362.603,78.774,352.428,78.465z" fill="#151515" opacity="0.1"/></g><g id="Body"><path d="M299.363,257.162c10.413,0,20.483,1.159,30.058,3.275v-7.451c0-14.522-5.443-26.297-12.146-26.297h-118.45   c-6.709,0-12.146,11.775-12.146,26.297v89.847c0,0.908,0.021,1.81,0.063,2.694C188.078,296.546,237.969,257.162,299.363,257.162z" fill="#28817E"/><path d="M199.054,369.127h118.451c6.703,0,12.146-11.775,12.146-26.294v-82.396   c-9.573-2.116-19.645-3.275-30.058-3.275c-61.395,0-111.284,39.384-112.623,88.366   C187.594,358.781,192.767,369.127,199.054,369.127z" fill="#48B5E6"/><rect fill="#3C3E49" height="10.431" width="20.194" x="202.148" y="242.65"/><rect fill="#3C3E49" height="10.431" width="20.195" x="294.272" y="242.65"/><rect fill="#3C3E49" height="10.431" width="20.192" x="248.21" y="242.65"/><rect fill="#46B978" height="7.477" width="14.48" x="228.304" y="244.127"/><rect fill="#46B978" height="7.477" width="14.477" x="274.614" y="244.127"/><rect fill="#46B978" height="47.216" width="20.194" x="202.148" y="314.282"/><rect fill="#46B978" height="74.632" width="20.195" x="294.272" y="286.866"/><rect fill="#46B978" height="86.4" width="20.192" x="248.21" y="275.097"/><rect fill="#EC5D5C" height="73.911" opacity="0.4" width="14.48" x="228.304" y="286.11"/><rect fill="#EC5D5C" height="73.911" opacity="0.4" width="14.477" x="274.614" y="286.11"/><rect fill="#EC5D5C" height="36.955" width="14.48" x="228.304" y="323.066"/><rect fill="#EC5D5C" height="40.151" width="14.477" x="274.614" y="319.87"/><path d="M258.903,369.127h58.603c6.703,0,12.146-11.775,12.146-26.294v-82.396   c-0.076-0.018-0.154-0.032-0.23-0.047v-7.404c0-13.565-4.749-24.73-10.838-26.144h-59.68V369.127z" fill="#151515" opacity="0.1"/></g></svg>