<?xml version="1.0" ?><!DOCTYPE svg  PUBLIC '-//W3C//DTD SVG 1.1//EN'  'http://www.w3.org/Graphics/SVG/1.1/DTD/svg11.dtd'><svg enable-background="new 0 0 512 512" height="512px" version="1.1" viewBox="0 0 512 512" width="512px" xml:space="preserve" xmlns="http://www.w3.org/2000/svg" xmlns:xlink="http://www.w3.org/1999/xlink"><g id="Background"><circle cx="256" cy="256" fill="#666566" id="Background_1_" r="256"/></g><g id="Shadow"><ellipse cx="256" cy="443.68" opacity="0.25" rx="162.855" ry="8.167"/><path d="M456.433,245.305l-4.167-28.661l-7.885,26.632L357.366,86.867l-10.95,1.126l-38.546-31.94   c-1.181,13.65-34.784,40.745-34.784,40.745l-52.548-45.002l-15.853,138.958l-30.761,46.385H95.318l-30.223-24.402l3.794,20.877   l-9.731,39.179l88.474,165.176h288.417c27.218-26.933,48.416-59.926,61.42-96.791l-30.424-95.811L456.433,245.305z" opacity="0.1"/><linearGradient gradientUnits="userSpaceOnUse" id="SVGID_1_" x1="39.4297" x2="472.0259" y1="249.5254" y2="249.5254"><stop offset="0" style="stop-color:#414042"/><stop offset="1" style="stop-color:#58595B"/></linearGradient><path d="M455.987,237.878l-3.721-19.443l-16.788,10.481   l-19.638-2.467l-52.125-0.138l-3.241,0.003c2.588-4.895,4.141-11.143,4.141-17.954v-3.581v-93.522   c0-15.697-8.241-28.421-18.405-28.421l-30.573,0.141v-13.22c0-0.422-0.028-0.837-0.061-1.252   c-0.626-7.837-11.55-14.482-19.395-14.482c-4.467,0-13.243,2.249-15.983,5.417c-2.323,2.69-3.748,6.21-3.748,10.08l-0.104,13.374   l-38.125,0.085V70.475c0-0.422-0.028-0.838-0.061-1.252c-0.627-7.837-7.209-13.92-17.622-15.635   c-4.407-0.726-14.465,2.805-17.204,5.974c-2.325,2.689-4.779,6.089-4.779,9.958v13.22l-8.302,0.098h-23.484   c-10.164,0-18.403,12.724-18.403,28.421v97.104c0,8.495,2.416,16.113,6.242,21.322h-9.626l-45.719-0.193l-19.744-1.407   l-14.424-13.555l-7.438,18.343l-17.348,9.528l15.146,12.74l3.702,19.444l16.799-10.467l19.635,2.488l71.306,0.035h18.429v77.006   c0,0.914,0.022,1.815,0.063,2.703c0.622,13.283,5.779,23.652,12.049,23.652h9.59c-9.592,9.436-19.248,30.194-19.248,75.558h36.358   h29.233h9.833h27.028h37.254c0,0-0.728-51.458-18.795-72.688c-0.877-1.028-1.794-1.99-2.754-2.869h9.604   c6.687,0,12.112-11.801,12.112-26.355V263.3l15.265-0.016l69.287,0.284l19.744,1.384l14.434,13.541l7.422-18.346l17.341-9.547   L455.987,237.878z M257.563,401.771c-3.046-12.291-7.729-24.316-14.93-31.77h31.068   C267.717,375.215,261.518,384.689,257.563,401.771z" fill="#414042" stroke="url(#SVGID_1_)" stroke-miterlimit="10"/></g><g id="Foot"><path d="M238.479,376.09c-3.585-3.372-7.867-5.44-13.023-5.44c0,0-31.681-5.798-31.681,69.109h30.216   c-1.874-6.353-2.966-13.726-2.966-21.628C221.025,397.244,228.54,379.868,238.479,376.09z" fill="#D0D1D8"/><path d="M238.479,376.09c-9.939,3.777-17.454,21.153-17.454,42.041c0,7.902,1.093,15.275,2.966,21.628h32.466   C256.457,439.759,255.789,392.366,238.479,376.09z" fill="#28817E"/><path d="M305.096,378.284c-3.969-4.668-8.91-7.634-15.106-7.634c0,0-31.681-5.798-31.681,69.109h31.177   c-1.476-5.801-2.323-12.343-2.323-19.291C287.163,399.248,294.921,381.679,305.096,378.284z" fill="#B0B3BF"/><path d="M305.096,378.284c-10.175,3.396-17.934,20.964-17.934,42.185c0,6.948,0.848,13.49,2.323,19.291h31.507   C320.993,439.759,320.378,396.238,305.096,378.284z" fill="#28817E"/><path d="M256.457,439.759c0,0-0.668-47.394-17.978-63.669c-3.585-3.372-7.867-5.44-13.023-5.44v69.109H256.457z" opacity="0.1"/><path d="M289.99,370.65c0,0-0.119-0.021-0.339-0.044v69.153h31.342c0,0-0.614-43.521-15.896-61.476   C301.127,373.616,296.186,370.65,289.99,370.65z" opacity="0.1"/></g><g id="Body"><path d="M294.494,261.272c9.586,0,18.857,1.066,27.672,3.017v-6.859c0-13.371-5.01-24.211-11.185-24.211H201.932   c-6.176,0-11.184,10.84-11.184,24.211v82.714c0,0.84,0.02,1.67,0.059,2.485C192.039,297.533,237.971,261.272,294.494,261.272z" fill="#28817E"/><path d="M201.932,364.353h109.049c6.175,0,11.185-10.839,11.185-24.21v-75.854   c-8.814-1.95-18.086-3.017-27.672-3.017c-56.523,0-102.455,36.261-103.687,81.356C191.381,354.829,196.144,364.353,201.932,364.353   z" fill="#D0D1D8"/><rect fill="#414042" height="9.602" width="18.592" x="204.779" y="247.913"/><rect fill="#414042" height="9.602" width="18.593" x="289.592" y="247.913"/><rect fill="#414042" height="9.602" width="18.591" x="247.187" y="247.913"/><rect fill="#414042" height="6.884" width="13.331" x="228.861" y="249.272"/><rect fill="#414042" height="6.884" width="13.331" x="271.494" y="249.272"/><rect fill="#414042" height="12.048" width="18.592" x="204.779" y="345.278"/><rect fill="#414042" height="12.048" width="18.593" x="289.592" y="345.278"/><rect fill="#414042" height="12.048" width="18.591" x="247.187" y="345.278"/><rect fill="#414042" height="10.693" width="13.331" x="228.861" y="345.278"/><rect fill="#414042" height="10.693" width="13.331" x="271.494" y="345.278"/><rect fill="#414042" height="12.049" width="18.592" x="204.779" y="330.812"/><rect fill="#414042" height="12.049" width="18.593" x="289.592" y="330.812"/><rect fill="#414042" height="12.049" width="18.591" x="247.187" y="330.812"/><rect fill="#414042" height="10.691" width="13.331" x="228.861" y="330.812"/><rect fill="#414042" height="10.691" width="13.331" x="271.494" y="330.812"/><rect fill="#414042" height="12.048" width="18.592" x="204.779" y="316.345"/><rect fill="#414042" height="12.048" width="18.593" x="289.592" y="316.345"/><rect fill="#414042" height="12.048" width="18.591" x="247.187" y="316.345"/><rect fill="#414042" height="10.691" width="13.331" x="228.861" y="316.345"/><rect fill="#414042" height="10.691" width="13.331" x="271.494" y="316.345"/><rect fill="#414042" height="12.05" width="18.593" x="289.592" y="301.878"/><rect fill="#414042" height="12.05" width="18.591" x="247.187" y="301.878"/><rect fill="#414042" height="10.691" width="13.331" x="228.861" y="301.878"/><rect fill="#414042" height="10.691" width="13.331" x="271.494" y="301.878"/><rect fill="#414042" height="12.052" width="18.593" x="289.592" y="287.411"/><rect fill="#414042" height="12.052" width="18.591" x="247.187" y="287.411"/><rect fill="#414042" height="10.693" width="13.331" x="228.861" y="287.411"/><rect fill="#414042" height="10.693" width="13.331" x="271.494" y="287.411"/><rect fill="#414042" height="12.049" width="18.593" x="289.592" y="272.946"/><rect fill="#414042" height="12.049" width="18.591" x="247.187" y="272.946"/><rect fill="#414042" height="10.693" width="13.331" x="271.494" y="272.946"/><path d="M310.728,233.472H257.13v131.135h53.598c6.175,0,11.184-10.841,11.184-24.209v-75.856v-6.859   C321.912,244.312,316.903,233.472,310.728,233.472z" opacity="0.1"/></g><g id="Hand"><polygon fill="#B0B3BF" points="447.92,229.65 450.269,241.923 459.834,249.953 448.891,255.979 444.206,267.56 435.096,259.012    422.632,258.139 427.948,246.832 424.927,234.708 437.322,236.265  "/><polygon fill="#28817E" points="443.206,238.93 444.381,245.067 449.166,249.082 443.692,252.096 441.35,257.886 436.794,253.612    430.563,253.176 433.22,247.522 431.709,241.458 437.908,242.239  "/><polygon fill="#D0D1D8" points="63.66,263.835 61.324,251.562 51.764,243.521 62.713,237.506 67.408,225.929 76.512,234.485    88.974,235.373 83.65,246.674 86.657,258.799 74.263,257.229  "/><polygon fill="#28817E" points="67.015,254.36 65.845,248.222 61.065,244.201 66.541,241.193 68.889,235.405 73.441,239.683    79.672,240.128 77.009,245.778 78.512,251.841 72.316,251.055  "/><path d="M117.807,235.84c0-0.116,0.023-0.229,0.024-0.345l-28.857-0.122l-5.323,11.302l3.006,12.125l45.008,0.022   C123.159,253.079,117.807,244.922,117.807,235.84z" fill="#28817E"/><path d="M186.415,235.495h-68.584c-0.001,0.116-0.024,0.229-0.024,0.345c0,9.082,5.352,17.239,13.858,22.982h54.75   V235.495z" fill="#D0D1D8"/><path d="M424.927,234.708l-32.903-0.086c0.012,0.269,0.06,0.533,0.056,0.804   c0.001,8.844-5.062,16.822-13.183,22.536l43.735,0.178l5.315-11.308L424.927,234.708z" fill="#28817E"/><path d="M392.08,235.426c0.004-0.271-0.044-0.535-0.056-0.804l-66.31,0.062l0.021,23.326l53.161-0.048   C387.018,252.248,392.081,244.27,392.08,235.426z" fill="#B0B3BF"/><g><path d="M173.924,331.535c-28.598,0-51.863-23.887-51.863-53.244h1.447c0,28.561,22.616,51.799,50.417,51.799    V331.535z" fill="#414042"/></g><g><path d="M173.924,305.274c-14.498,0-26.293-11.752-26.293-26.198h1.446c0,13.647,11.146,24.753,24.847,24.753    V305.274z" fill="#414042"/></g><g><path d="M173.924,287.207c-4.066,0-7.373-4-7.373-8.916h1.446c0,4.117,2.659,7.47,5.926,7.47V287.207z" fill="#414042"/></g><g><path d="M339.042,331.535v-1.445c27.799,0,50.416-23.238,50.416-51.799h1.446    C390.904,307.648,367.638,331.535,339.042,331.535z" fill="#414042"/></g><g><path d="M339.042,305.274v-1.445c13.701,0,24.847-11.105,24.847-24.753h1.446    C365.334,293.522,353.54,305.274,339.042,305.274z" fill="#414042"/></g><g><path d="M339.042,287.207v-1.446c3.269,0,5.927-3.353,5.927-7.47h1.447    C346.416,283.207,343.107,287.207,339.042,287.207z" fill="#414042"/></g></g><g id="Head"><path d="M194.64,89.788h-21.917c-9.485,0-17.175,11.638-17.175,25.994v88.813c0,14.356,7.69,25.995,17.175,25.995   H340.19c9.484,0,17.176-11.639,17.176-25.995v-3.274C292.369,181.278,235.879,141.85,194.64,89.788z" fill="#31C1E8"/><path d="M340.19,89.788H194.64c41.239,52.063,97.729,91.491,162.726,111.533v-85.539   C357.366,101.426,349.674,89.788,340.19,89.788z" fill="#28817E"/><rect fill="#603913" height="53.192" width="153.74" x="179.375" y="160.188"/><rect fill="#9A663D" height="49.468" width="150.667" x="180.913" y="162.051"/><g><rect fill="#464547" height="27.125" width="127.218" x="193.775" y="173.222"/></g><polygon fill="#603913" points="203.227,142.181 191.396,130.072 205.396,117.637 232.64,117.637 245.881,130.072 230.47,142.181     "/><polygon fill="#9A663D" points="204.464,140.035 193.872,130.072 206.634,119.782 231.402,119.782 243.405,130.072    229.232,140.035  "/><polygon fill="#603913" points="284.623,143.239 270.599,130.072 284.723,117.993 312.037,117.993 325.229,130.072    311.937,143.239  "/><polygon fill="#9A663D" points="285.861,141.089 273.085,130.072 285.959,120.144 310.792,120.144 322.748,130.072    310.693,141.089  "/><path d="M220.542,126.922c-1.493-0.895-0.035-6.801-1.904-6.801c-5.495,0-9.951,4.455-9.951,9.952   c0,2.316,7.01-0.242,8.337,1.451c1.822,2.321-1.565,8.501,1.614,8.501c5.499,0,9.954-4.454,9.954-9.952   C228.592,126.444,223.445,128.66,220.542,126.922z" fill="#464547"/><path d="M218.638,63.053c-4.168,0-7.899,1.838-10.456,4.736c5.438,3.975,14.106,6.917,24.354,8.073   C231.952,68.694,225.96,63.053,218.638,63.053z" fill="#379AD5"/><path d="M208.183,67.79c-2.17,2.46-3.498,5.68-3.498,9.218v12.777h27.909V77.008c0-0.386-0.026-0.766-0.057-1.145   C222.289,74.707,213.62,71.764,208.183,67.79z" fill="#D0D1D8"/><circle cx="341.243" cy="101.916" fill="#414042" r="3.327"/><circle cx="172.169" cy="101.916" fill="#414042" r="3.326"/><path d="M296.314,63.047c-4.168-0.017-7.906,1.807-10.476,4.695c5.424,3.996,14.082,6.972,24.323,8.168   C309.605,68.739,303.637,63.075,296.314,63.047z" fill="#309999"/><path d="M285.833,67.79c-2.168,2.46-3.497,5.68-3.497,9.218v12.777h27.908V77.008c0-0.386-0.027-0.766-0.058-1.145   C299.941,74.707,291.27,71.764,285.833,67.79z" fill="#B0B3BF"/><path d="M299.82,127.646c-1.492-0.895-0.035-6.801-1.904-6.801c-5.495,0-9.951,4.455-9.951,9.951   c0,2.317,7.009-0.241,8.337,1.451c1.822,2.321-1.564,8.502,1.614,8.502c5.498,0,9.954-4.455,9.954-9.953   C307.87,127.168,302.722,129.384,299.82,127.646z" fill="#464547"/><g><path d="M375.816,109.122l-3.518-3.165c9.263-10.296,19.495-21.791,24.52-27.444    c-5.408-0.461-14.084-1.212-18.394-1.64l-4.981-0.496l3.544-3.534c11.627-11.598,11.627-11.598,22.975-24.391l3.54,3.14    c-10.146,11.441-11.297,12.737-19.604,21.041c7.504,0.679,17.891,1.552,18.021,1.563l4.706,0.395l-3.134,3.533    C403.344,78.289,388.652,94.856,375.816,109.122z" fill="#414042"/></g><polygon opacity="0.1" points="218.638,117.637 218.638,142.181 230.47,142.181 245.881,130.072 232.64,117.637  "/><polygon opacity="0.1" points="298.889,117.993 298.889,143.239 311.937,143.239 325.229,130.072 312.037,117.993  "/><path d="M340.19,89.788h-83.944V230.59h83.944c9.484,0,17.176-11.639,17.176-25.995v-3.274v-85.539   C357.366,101.426,349.674,89.788,340.19,89.788z" opacity="0.1"/></g></svg>