<?xml version="1.0" ?><!DOCTYPE svg  PUBLIC '-//W3C//DTD SVG 1.1//EN'  'http://www.w3.org/Graphics/SVG/1.1/DTD/svg11.dtd'><svg enable-background="new 0 0 512 512" height="512px" version="1.1" viewBox="0 0 512 512" width="512px" xml:space="preserve" xmlns="http://www.w3.org/2000/svg" xmlns:xlink="http://www.w3.org/1999/xlink"><g id="Background"><circle cx="256" cy="256" fill="#FFF9AE" id="Background_1_" r="256"/></g><g id="Shadow"><path d="M266.079,417.392c-3.338-0.011-6.697-0.014-10.078-0.014c-102.456,0-185.514,4.473-185.514,9.989   S153.544,437.36,256,437.36c3.381,0,6.74-0.005,10.078-0.014c97.768-0.282,175.436-4.643,175.436-9.979   C441.514,422.034,363.846,417.674,266.079,417.392z" opacity="0.1"/><path d="M458.784,201.591l-47.836-67.872l-13.081,36.912l-47.809-57.375l-14.628,9.6l-37.313-31.454l-6.63,10.098   l-34.092-37.074l-3.846,55.267l-19.47-28.291l-53.598,138.323l-45.708-59.149l8.123,54.335l-11.596-54.335l-32.258-37.34   l5.639,71.18l-16.444-11.165l8.461,25.48l-26.966-36.019l10.644,36.019l-31.205-42.547l10.811,35.295l46.735,45.295l-32.29-10.337   l-4.412,23.949l10.36,21.227l-25.43-26.931l21.181,35.96l-43.384-33.382l16.429,37.683L8.605,275.26l40.568,57.653l-8.912,22.998   l124.313,66.021h39.646l245.213,1.76C488.41,378.773,512,320.142,512,256c0-2.089-0.029-4.171-0.079-6.248l-51.236-72.932   L458.784,201.591z" opacity="0.1"/></g><g id="Flame"><path d="M56.416,211.48c-0.001-0.272-0.007-0.544-0.007-0.818C56.399,210.942,56.403,211.214,56.416,211.48z" fill="#EF4629"/><g><path d="M370.096,191.802c1.083,7.727-4.256,15.53-5.741,22.996c-2.115,10.642-7.834,18.316-11.765,27.945    c15.083-0.471,24.074-7.872,34.631-18.188c8.974-8.771,12.684-18.861,17.665-30.213c-0.134,5.205-0.51,10.528-1.125,15.903    c0.512-1.732,0.959-3.516,1.327-5.364c2.037-10.242,9.361-20.946,7.873-31.544c-1.748-12.458-1.639-27.292-2.014-39.617    c0.283,5.456-10.859,16.858-12.089,22.228c-1.981,8.663-11.249,19.914-18.088,25.832c-3.247,2.812-6.94,5.513-10.908,8.089    C369.94,190.514,370.006,191.17,370.096,191.802z" fill="#F4624E"/><path d="M202.743,218.037c-8.937-3.971-16.976-6.91-24.554-9.706c11.979,6.679,23.572,9.355,38.657,16.057    c-6.439-5.947-20.821-15.658-22.438-22.94c-2.185-9.848-3.183-17.061-2.155-27.418c0.837-8.455,1.143-17.846,3.416-25.773    c-0.268,3.632,2.26,4.118,3.642,6.966c2.161,4.452,3.494,7.461,6.451,11.698c4.315,6.182,20.476,21.003,32.511,8.311    c-0.421-4.871-2.197-3.883-1.762-10.335c0.52-7.708,4.192-15.42,7.498-22.196c5.45-11.172,8.324-24.114,15.251-34.626    c-3.283,6.974-2.079,14.434,2.359,20.949c2.632,3.861-0.191,2.987,3.628,5.873c2.211,1.67,3.644,1.728,6.139,5.498    c4.09,6.179,9.744,7.106,11.642,19.573c0.936,6.136-0.992,14.311-7.192,16.271c8.815,0.253,23.508-5.324,30.974-8.879    c9.02-4.295,14.609-9.524,17.429-19.355c0.224,7.541-0.125,18.015-2.017,25.209c-1.156,4.403-0.401,4.786-1.512,9.327    c-1.087,4.439-1.936,8.503-3.781,12.857c-3.502,8.254-3.418,9.457-9.329,15.882c-2.804,3.049-14.408,11.085-17.899,13.614    c-0.516,0.375,17.894-4.883,35.506-13.51c-13.251,4.964-22.969,7.666-22.523,7.344c4.787-3.468,20.704-14.492,24.552-18.673    c8.107-8.815,7.994-10.463,12.796-21.787c2.534-5.972,3.698-11.547,5.187-17.636c1.522-6.231,0.488-6.755,2.075-12.794    c2.593-9.869,3.071-24.237,2.767-34.581c-3.867,13.486-11.536,20.659-23.907,26.55c-10.243,4.876-30.397,12.528-42.488,12.181    c8.505-2.691,11.147-13.904,9.865-22.321c-2.604-17.102-10.36-18.374-15.971-26.851c-3.421-5.171-5.387-5.25-8.418-7.541    c-5.243-3.958-1.368-2.758-4.978-8.056c-6.089-8.938-7.742-19.17-3.235-28.737c-9.503,14.42-13.446,32.173-20.922,47.5    c-4.535,9.295-9.573,19.872-10.286,30.447c-0.596,8.851,1.839,7.495,2.419,14.176c-16.511,17.411-38.678-2.918-44.598-11.399    c-4.058-5.813-5.886-9.939-8.849-16.047c-1.896-3.906-5.363-4.572-4.996-9.556c-3.117,10.875-3.537,23.758-4.687,35.355    c-1.41,14.208-0.039,24.103,2.958,37.61C174.182,196.558,193.91,209.879,202.743,218.037z" fill="#F4624E"/><path d="M374.292,288.414c-5.159,6.624-13.928,10.837-21.235,14.754c-6.102,3.268-11.265,8.214-18.009,10.043    c14.901-0.143,29.342,1.21,43.437-4.369c11.743-4.65,23.152-10.632,32.721-18.885c6.285-5.424,12.885-10.975,17.558-17.838    c1.946-2.86,3.25-6.897,5.873-9.199c0.106,10.618-5.091,22.577-8.657,32.79c22.468-34.179,33.688-79.045,34.707-118.889    c-6.831,15.572-11.921,29.414-24.232,41.445c-12.452,12.171-23.323,21.376-39.283,24.129    C392.111,259.223,384.534,275.26,374.292,288.414z" fill="#F4624E"/><path d="M493.438,283.51c-6.408,9.415-15.463,17.028-24.087,24.47c-13.123,11.321-28.773,19.525-44.882,25.902    c-8.699,3.445-17.496,4.961-26.403,5.607c-5.806,5.003-12.177,9.524-18.206,14.111c-6.45,4.908-14.476,10.381-22.01,13.47    c-3.349,1.373-6.543,1.386-10.264,1.907c-16.59,2.334-32.037,5.899-48.96,5.899l-44.035-0.729l-43.999,0.594    c-16.921-0.054-32.359-3.666-48.94-6.051c-3.719-0.537-6.914-0.557-10.258-1.94c-7.525-3.112-15.534-8.61-21.969-13.537    c-6.016-4.606-12.372-9.149-18.163-14.17c-8.897-0.674-17.68-2.219-26.361-5.687c-16.088-6.428-31.714-14.679-44.802-26.042    c-8.6-7.467-17.63-15.108-24.01-24.544c-2.657-3.933-4.429-9.476-8.016-12.645c-0.202,15.309,7.634,32.679,12.466,47.152    c6.073,18.193,18.338,40.09,32.25,53.407c9.189,8.797,19.97,16.359,30.034,24.065c8.829,6.759,19.815,14.3,30.136,18.569    c4.587,1.896,8.97,1.927,14.072,2.661c22.745,3.271,43.922,8.228,67.133,8.298l60.354-0.811l60.407,1    c23.211,0,44.404-4.891,67.158-8.092c5.104-0.72,9.485-0.734,14.078-2.618c10.336-4.237,21.346-11.744,30.194-18.476    c10.088-7.675,20.892-15.204,30.108-23.972c13.955-13.275,26.287-35.133,32.417-53.309c4.875-14.457,12.767-31.804,12.61-47.113    C497.896,274.047,496.106,279.586,493.438,283.51z" fill="#F4624E"/><path d="M105.952,209.643c-0.588-5.328-0.943-10.605-1.059-15.765c4.944,11.367,8.624,21.468,17.571,30.267    c10.524,10.35,19.493,17.779,34.575,18.297c-3.903-9.643-9.597-17.336-11.68-27.983c-1.462-7.471-6.777-15.29-5.668-23.014    c0.074-0.518,0.129-1.059,0.195-1.587c-3.521-2.457-7.109-5.242-10.817-8.47c-6.82-5.938-16.051-17.219-18.006-25.887    c-1.212-5.373-12.321-16.811-12.02-22.266c-0.414,12.324-0.35,27.159-2.136,39.611c-1.521,10.594,5.77,21.321,7.775,31.569    C105.035,206.216,105.464,207.954,105.952,209.643z" fill="#F4624E"/><path d="M74.932,262.363c2.615,2.309,3.907,6.351,5.844,9.216c4.651,6.88,11.233,12.45,17.503,17.895    c9.541,8.283,20.932,14.299,32.661,18.983c14.078,5.624,28.523,4.317,43.423,4.505c-6.738-1.851-11.885-6.813-17.977-10.1    c-7.296-3.939-16.052-8.179-21.19-14.818c-10.203-13.187-17.729-29.249-22.738-46.094c-15.936-2.808-26.773-12.044-39.182-24.247    c-12.274-12.069-17.321-25.927-24.103-41.518c0.896,39.815,11.96,84.682,34.289,118.92    C79.928,284.897,74.792,272.954,74.932,262.363z" fill="#F4624E"/></g><g><path d="M199.263,155.132c0.015,0.031,0.032,0.058,0.047,0.089c2.161,4.452,3.494,7.461,6.451,11.698    c4.315,6.182,20.476,21.003,32.511,8.311c-0.421-4.871-2.197-3.883-1.762-10.335c0.52-7.708,4.192-15.42,7.498-22.196    c5.45-11.172,8.324-24.114,15.251-34.626c-3.283,6.974-2.079,14.434,2.359,20.949c2.632,3.861-0.191,2.987,3.628,5.873    c2.211,1.67,3.644,1.728,6.139,5.498c4.082,6.168,9.724,7.105,11.632,19.511c5.861-3.515,7.668-12.284,6.636-19.057    c-2.344-15.392-9.326-16.537-14.374-24.166c-3.079-4.654-4.847-4.726-7.578-6.787c-4.717-3.563-1.229-2.483-4.477-7.25    c-5.481-8.043-6.969-17.253-2.914-25.863c-8.551,12.978-12.101,28.956-18.829,42.749c-4.081,8.365-8.616,17.886-9.258,27.402    c-0.537,7.965,1.656,6.746,2.177,12.759C222.611,172.124,207.616,163.173,199.263,155.132z" fill="#F99D27"/><path d="M275.835,176.237c8.815,0.253,23.508-5.324,30.974-8.879c9.02-4.295,14.609-9.524,17.429-19.355    c0.224,7.541-0.125,18.015-2.017,25.209c-1.156,4.403-0.401,4.786-1.512,9.327c-1.087,4.439-1.936,8.503-3.781,12.857    c-3.502,8.254-3.418,9.457-9.329,15.882c-2.804,3.049-14.408,11.085-17.899,13.614c-0.484,0.351,15.627-4.237,32.14-11.906    c-13.758,5.357-24.387,8.333-23.947,8.016c4.308-3.122,18.635-13.042,22.097-16.807c7.297-7.933,7.194-9.417,11.515-19.607    c2.281-5.376,3.33-10.393,4.67-15.873c1.37-5.608,0.438-6.08,1.867-11.515c2.334-8.881,2.765-21.813,2.49-31.123    c-3.482,12.137-10.381,18.593-21.518,23.895c-8.579,4.085-24.882,10.329-35.873,10.923    C283.755,166.9,281.728,174.374,275.835,176.237z" fill="#F99D27"/><path d="M374.292,288.414c-5.159,6.624-13.928,10.837-21.235,14.754c-6.102,3.268-11.265,8.214-18.009,10.043    c14.901-0.143,29.342,1.21,43.437-4.369c9.897-3.92,19.551-8.789,28.071-15.162c21.757-31.144,32.588-73.199,33.54-110.393    c-6.148,14.014-10.729,26.472-21.809,37.3c-6.567,6.419-12.647,11.923-19.445,15.879    C393.846,255.437,385.732,273.723,374.292,288.414z" fill="#F99D27"/><path d="M370.096,191.802c1.083,7.727-4.256,15.53-5.741,22.996c-2.115,10.642-7.834,18.316-11.765,27.945    c12.571-0.392,20.911-5.608,29.451-13.303c3.313-6.523,6.457-13.059,8.016-20.899c1.835-9.218,8.426-18.852,7.087-28.392    c-1.574-11.211-1.475-24.562-1.813-35.654c0.256,4.91-9.772,15.172-10.879,20.004c-1.657,7.24-8.966,16.483-14.929,22.032    C369.678,188.33,369.857,190.103,370.096,191.802z" fill="#F99D27"/><path d="M469.572,279.306c-5.768,8.475-13.916,15.327-21.679,22.022c-10.297,8.885-22.324,15.635-34.846,21.024    c-3.43,5.193-7.239,9.97-11.237,13.772c-6.72,6.393-14.596,11.881-21.95,17.476c-6.45,4.908-14.476,10.381-22.01,13.47    c-3.349,1.373-6.543,1.386-10.264,1.907c-16.59,2.334-32.037,5.899-48.96,5.899l-44.035-0.729l-43.999,0.594    c-16.921-0.054-32.359-3.666-48.94-6.051c-3.719-0.537-6.914-0.557-10.258-1.94c-7.525-3.112-15.534-8.61-21.969-13.537    c-7.337-5.617-15.196-11.132-21.896-17.545c-3.989-3.817-7.785-8.609-11.201-13.817c-12.498-5.425-24.497-12.209-34.761-21.119    c-7.74-6.722-15.867-13.598-21.608-22.092c-2.393-3.536-3.987-8.526-7.215-11.379c-0.182,13.778,6.871,29.411,11.219,42.438    c5.466,16.373,16.504,36.079,29.025,48.064c8.272,7.918,17.973,14.725,27.032,21.659c7.945,6.083,17.832,12.871,27.122,16.714    c4.128,1.706,8.072,1.733,12.664,2.394c20.471,2.945,39.53,7.405,60.42,7.47l54.318-0.731l54.366,0.9    c20.891,0,39.964-4.401,60.442-7.282c4.595-0.647,8.537-0.662,12.671-2.354c9.302-3.815,19.21-10.571,27.174-16.631    c9.08-6.905,18.804-13.683,27.099-21.573c12.559-11.948,23.658-31.62,29.175-47.978c4.387-13.012,11.49-28.623,11.35-42.401    C473.584,270.79,471.974,275.776,469.572,279.306z" fill="#F99D27"/><path d="M130.94,308.457c14.078,5.624,28.523,4.317,43.423,4.505c-6.738-1.851-11.885-6.813-17.977-10.1    c-7.296-3.939-16.052-8.179-21.19-14.818c-11.397-14.729-19.456-33.044-24.393-52.035c-6.777-3.978-12.833-9.495-19.376-15.929    c-11.045-10.861-15.588-23.333-21.692-37.367c0.837,37.207,11.544,79.311,33.217,110.523    C111.442,299.622,121.069,304.514,130.94,308.457z" fill="#F99D27"/><path d="M127.658,229.072c8.507,7.708,16.826,12.938,29.382,13.37c-3.903-9.643-9.597-17.336-11.68-27.983    c-1.462-7.471-6.777-15.29-5.668-23.014c0.245-1.703,0.429-3.479,0.589-5.282c-5.944-5.568-13.212-14.825-14.846-22.064    c-1.09-4.836-11.088-15.129-10.818-20.039c-0.372,11.091-0.314,24.442-1.922,35.65c-1.369,9.535,5.193,19.188,6.998,28.412    C121.23,215.977,124.36,222.53,127.658,229.072z" fill="#F99D27"/><path d="M207.946,220.381c-9.949-4.422-18.667-7.422-26.885-10.517c10.987,5.603,21.908,8.357,35.785,14.524    c-6.439-5.947-20.821-15.658-22.438-22.94c-2.185-9.848-3.183-17.061-2.155-27.418c0.758-7.656,1.096-16.069,2.838-23.479    c-0.305-0.393-0.583-0.767-0.829-1.119c-3.651-5.231-5.297-8.945-7.963-14.442c-1.705-3.515-4.827-4.114-4.496-8.6    c-2.806,9.788-3.184,21.382-4.219,31.82c-1.268,12.787-0.035,21.692,2.663,33.849    C182.242,201.049,199.997,213.038,207.946,220.381z" fill="#F99D27"/></g><g><path d="M275.835,176.237c8.815,0.253,23.508-5.324,30.974-8.879c7.342-3.496,12.412-7.612,15.564-14.325    c-2.742,2.326-5.987,4.283-9.783,6.09c-7.191,3.424-20.412,8.531-30.187,9.648C281.339,172.219,279.233,175.163,275.835,176.237z" fill="#FFD41C"/><path d="M322.221,173.213c-1.156,4.403-0.401,4.786-1.512,9.327c-1.087,4.439-1.936,8.503-3.781,12.857    c-3.502,8.254-3.418,9.457-9.329,15.882c-2.804,3.049-14.408,11.085-17.899,13.614c-0.451,0.327,13.545-3.645,28.833-10.408    c-13.983,5.668-25.384,8.876-24.952,8.564c3.878-2.809,16.771-11.738,19.889-15.125c6.567-7.139,6.474-8.475,10.363-17.646    c2.053-4.839,2.996-9.354,4.203-14.286c1.232-5.047,0.393-5.472,1.679-10.363c2.101-7.994,2.488-19.632,2.241-28.011    c-1.657,5.772-4.181,10.107-7.661,13.625C324.335,158.346,323.854,167,322.221,173.213z" fill="#FFD41C"/><path d="M261.62,129.022c2.632,3.861-0.191,2.987,3.628,5.873c2.211,1.67,3.644,1.728,6.139,5.498    c4.09,6.179,9.744,7.106,11.642,19.573c0.264,1.726,0.29,3.611,0.068,5.475c2.951-3.847,3.8-9.743,3.07-14.532    c-2.109-13.852-8.392-14.882-12.937-21.749c-2.771-4.189-4.362-4.253-6.819-6.109c-4.246-3.206-1.106-2.234-4.031-6.526    c-1.598-2.345-2.812-4.803-3.608-7.315C256.122,115.853,257.423,122.859,261.62,129.022z" fill="#FFD41C"/><path d="M370.096,191.802c1.083,7.727-4.256,15.53-5.741,22.996c-2.115,10.642-7.834,18.316-11.765,27.945    c4.399-0.138,8.271-0.88,11.825-2.097c4.291-9.683,9.93-17.826,12.114-28.813c1.651-8.296,7.583-16.966,6.377-25.551    c-1.415-10.091-1.327-22.106-1.63-32.09c0.23,4.42-8.797,13.655-9.792,18.005c-0.436,1.902-1.314,3.959-2.46,6.042    C369.202,182.896,369.498,187.54,370.096,191.802z" fill="#FFD41C"/><path d="M401.909,222.702c-4.347,23.735-13.426,47.488-27.617,65.711c-5.159,6.624-13.928,10.837-21.235,14.754    c-6.102,3.268-11.265,8.214-18.009,10.043c8.174-0.077,16.207,0.287,24.121-0.282c1.567-1.027,3.157-2.023,4.807-2.907    c8.121-4.351,17.862-9.031,23.596-16.393c22.131-28.418,33.082-68.944,33.992-104.522c-5.532,12.613-9.656,23.824-19.627,33.57    C401.926,222.685,401.917,222.693,401.909,222.702z" fill="#FFD41C"/><path d="M205.762,166.919c4.315,6.182,20.476,21.003,32.511,8.311c-0.421-4.871-2.197-3.883-1.762-10.335    c0.52-7.708,4.192-15.42,7.498-22.196c5.298-10.86,8.173-23.385,14.691-33.732c-1.578-5.166-1.368-10.56,1.06-15.716    c-7.698,11.681-10.892,26.061-16.948,38.474c-3.672,7.529-7.754,16.097-8.332,24.662c-0.483,7.169,1.49,6.071,1.958,11.482    c-12.041,12.699-27.792,0.617-34.312-6.931C203.13,162.849,204.226,164.719,205.762,166.919z" fill="#FFD41C"/><path d="M448.092,275.523c-5.19,7.627-12.524,13.795-19.51,19.82c-1.131,0.976-2.29,1.918-3.466,2.838    c-4.567,13.063-13.367,28.488-23.307,37.944c-6.72,6.393-14.596,11.881-21.95,17.476c-6.45,4.908-14.476,10.381-22.01,13.47    c-3.349,1.373-6.543,1.386-10.264,1.907c-16.59,2.334-32.037,5.899-48.96,5.899l-44.035-0.729l-43.999,0.594    c-16.921-0.054-32.359-3.666-48.94-6.051c-3.719-0.537-6.914-0.557-10.258-1.94c-7.525-3.112-15.534-8.61-21.969-13.537    c-7.337-5.617-15.196-11.132-21.896-17.545c-9.913-9.487-18.666-24.943-23.191-38.021c-1.17-0.921-2.323-1.863-3.449-2.841    c-6.966-6.05-14.281-12.237-19.449-19.882c-2.152-3.184-3.587-7.676-6.493-10.241c-0.164,12.4,6.184,26.469,10.097,38.192    c4.919,14.738,14.854,32.474,26.123,43.26c7.444,7.126,16.176,13.252,24.329,19.493c7.151,5.476,16.049,11.584,24.41,15.042    c3.716,1.536,7.266,1.561,11.398,2.156c18.423,2.649,35.577,6.664,54.377,6.721l48.887-0.658l48.93,0.811    c18.802,0,35.967-3.961,54.398-6.554c4.135-0.581,7.685-0.596,11.405-2.12c8.37-3.433,17.288-9.514,24.455-14.966    c8.172-6.216,16.924-12.315,24.39-19.418c11.301-10.753,21.291-28.458,26.256-43.179c3.949-11.71,10.341-25.761,10.215-38.161    C451.705,267.859,450.256,272.344,448.092,275.523z" fill="#FFD41C"/><path d="M212.63,222.491c-10.668-4.742-19.764-7.669-28.401-11.084c9.944,4.621,20.074,7.408,32.617,12.982    c-6.439-5.947-20.821-15.658-22.438-22.94c-2.185-9.848-3.183-17.061-2.155-27.418c0.779-7.864,1.119-16.524,2.989-24.078    c-0.664-1.342-1.332-2.743-2.094-4.313c-1.535-3.165-4.344-3.704-4.046-7.741c-2.526,8.81-2.865,19.244-3.798,28.638    c-1.141,11.508-0.031,19.524,2.396,30.464C189.497,205.092,205.476,215.882,212.63,222.491z" fill="#FFD41C"/><path d="M145.453,309.682c1.648,0.889,3.234,1.891,4.799,2.925c7.91,0.592,15.941,0.252,24.11,0.354    c-6.738-1.851-11.885-6.813-17.977-10.1c-7.296-3.939-16.052-8.179-21.19-14.818c-14.137-18.27-23.143-42.055-27.416-65.806    c-0.005-0.006-0.011-0.012-0.017-0.018c-9.942-9.777-14.03-21.001-19.524-33.63c0.801,35.581,11.627,76.141,33.67,104.626    C127.618,300.595,137.346,305.306,145.453,309.682z" fill="#FFD41C"/><path d="M145.231,240.312c3.547,1.227,7.413,1.979,11.809,2.131c-3.903-9.643-9.597-17.336-11.68-27.983    c-1.462-7.471-6.777-15.29-5.668-23.014c0.611-4.263,0.92-8.912,1.113-13.571c-1.136-2.082-2.006-4.138-2.435-6.038    c-0.981-4.352-9.979-13.616-9.735-18.035c-0.336,9.983-0.284,21.999-1.731,32.085c-1.232,8.581,4.674,17.269,6.298,25.57    C135.354,222.453,140.967,230.614,145.231,240.312z" fill="#FFD41C"/></g></g><g id="Foot"><path d="M296.996,382.359c-0.027-6.641,0.758-12.899,2.145-18.454l1.188-0.006c-2.11-0.454-4.299-0.699-6.545-0.699   c-17.07,0-30.909,13.839-30.909,30.912c0,17.072,13.839,30.913,30.909,30.913c6.016,0,11.627-1.723,16.374-4.695   C302.524,414.365,297.073,399.644,296.996,382.359z" fill="#9DA0B2"/><path d="M324.699,394.112c0-14.827-10.442-27.211-24.37-30.213l-1.188,0.006   c-1.387,5.555-2.172,11.813-2.145,18.454c0.077,17.285,5.528,32.006,13.162,37.971C318.888,414.866,324.699,405.17,324.699,394.112   z" fill="#9A653C"/><linearGradient gradientUnits="userSpaceOnUse" id="SVGID_1_" x1="265.9644" x2="321.606" y1="394.1118" y2="394.1118"><stop offset="0" style="stop-color:#414042"/><stop offset="1" style="stop-color:#58595B"/></linearGradient><path d="M299.672,366.919c-1.897-0.407-3.866-0.628-5.889-0.628c-15.363,0-27.819,12.455-27.819,27.82   s12.456,27.821,27.819,27.821c5.413,0,10.464-1.552,14.736-4.226c7.857-4.917,13.086-13.643,13.086-23.596   C321.606,380.767,312.209,369.623,299.672,366.919z" fill="url(#SVGID_1_)"/><path d="M220.919,382.359c-0.029-6.641,0.755-12.899,2.142-18.454l1.188-0.006   c-2.109-0.454-4.297-0.699-6.542-0.699c-17.073,0-30.913,13.839-30.913,30.912c0,17.072,13.84,30.913,30.913,30.913   c6.015,0,11.624-1.723,16.373-4.695C226.444,414.365,220.995,399.644,220.919,382.359z" fill="#9DA0B2"/><path d="M248.62,394.112c0-14.827-10.441-27.211-24.371-30.213l-1.188,0.006   c-1.387,5.555-2.171,11.813-2.142,18.454c0.076,17.285,5.525,32.006,13.161,37.971C242.811,414.866,248.62,405.17,248.62,394.112z" fill="#9A653C"/><linearGradient gradientUnits="userSpaceOnUse" id="SVGID_2_" x1="189.8853" x2="245.5288" y1="394.1118" y2="394.1118"><stop offset="0" style="stop-color:#414042"/><stop offset="1" style="stop-color:#58595B"/></linearGradient><path d="M223.595,366.919c-1.898-0.407-3.867-0.628-5.888-0.628c-15.365,0-27.822,12.455-27.822,27.82   s12.457,27.821,27.822,27.821c5.413,0,10.461-1.552,14.735-4.226c7.857-4.917,13.087-13.643,13.087-23.596   C245.529,380.767,236.131,369.623,223.595,366.919z" fill="url(#SVGID_2_)"/><path d="M300.329,363.899c-1.81-0.389-3.675-0.613-5.583-0.674v61.783   c5.65-0.173,10.918-1.865,15.412-4.679c8.73-5.464,14.541-15.159,14.541-26.218C324.699,379.285,314.256,366.901,300.329,363.899z" fill="#131313" opacity="0.1"/><path d="M224.249,363.899c-1.318-0.283-2.67-0.476-4.044-0.587v61.61   c5.068-0.407,9.791-2.036,13.875-4.593c8.731-5.464,14.54-15.159,14.54-26.218C248.62,379.285,238.179,366.901,224.249,363.899z" fill="#131313" opacity="0.1"/></g><g id="Head"><path d="M212.989,91.402c-2.301,2.105-3.882,5.016-4.241,8.362l-1.293,12.081l25.718,15.863l1.963-25.119   c0.039-0.367,0.053-0.728,0.063-1.089C225.626,99.37,217.728,95.71,212.989,91.402z" fill="#C6C9D2"/><path d="M223.355,87.982c-3.941-0.422-7.655,0.938-10.366,3.42c4.738,4.308,12.637,7.968,22.209,10.098   C235.371,94.663,230.276,88.723,223.355,87.982z" fill="#349AD6"/><path d="M289.305,88.79c-3.953,0.26-7.379,2.237-9.625,5.148c5.409,3.431,13.82,5.679,23.615,6.135   C302.292,93.307,296.254,88.33,289.305,88.79z" fill="#309999"/><path d="M279.68,93.938c-1.901,2.469-2.962,5.608-2.742,8.967l0.995,21.189l26.48-1.748l-0.993-21.191   c-0.024-0.366-0.073-0.724-0.125-1.083C293.5,99.617,285.089,97.369,279.68,93.938z" fill="#AEB2C1"/><path d="M195.594,111.487l-20.84-0.159c-9.02-0.069-16.417,10.941-16.521,24.593l-0.648,84.451   c-0.105,13.652,7.122,24.774,16.142,24.844l159.244,1.222c9.02,0.068,16.416-10.942,16.523-24.594l0.023-3.112   C287.858,199.198,234.429,161.294,195.594,111.487z" fill="#1EA4D3"/><path d="M334,112.548l-138.405-1.062c38.834,49.808,92.264,87.711,153.923,107.245l0.623-81.339   C350.244,123.741,343.016,112.618,334,112.548z" fill="#26807E"/><path d="M334.934,120.926c-1.748-0.013-3.175,1.393-3.187,3.14c-0.014,1.747,1.393,3.172,3.136,3.186   c1.75,0.013,3.177-1.391,3.19-3.138C338.087,122.368,336.682,120.94,334.934,120.926z" fill="#9DA0B2"/><circle cx="174.139" cy="122.856" fill="#9DA0B2" r="3.163"/><rect fill="#603913" height="50.86" width="147.001" x="180.482" y="178.865"/><rect fill="#9A653C" height="47.299" width="144.064" x="181.952" y="180.645"/><g><polygon fill="#E5E8F9" points="315.48,212.532 254.618,193.55 194.668,212.531 193.833,209.892 254.611,190.651 316.304,209.892       "/></g><polygon fill="#6B3C15" points="205,172.627 191.976,150.068 205,127.51 234.818,134.143 244.074,150.068 231.049,172.627  "/><polygon fill="#9A653C" points="206.184,170.576 194.343,150.068 206.184,129.562 233.635,136.194 241.706,150.068    229.867,170.576  "/><polygon fill="#6B3C15" points="280.77,172.687 267.708,150.068 276.485,134.369 306.889,127.451 319.944,150.068 306.889,172.687     "/><polygon fill="#9A653C" points="281.954,170.631 270.085,150.068 277.668,136.425 305.698,129.507 317.571,150.068    305.698,170.631  "/><path d="M222.891,141.931c-1.427-0.856-3.08-1.379-4.866-1.379c-5.255,0-9.516,4.26-9.516,9.516   c0,2.215,0.789,4.227,2.057,5.845C213.721,150.472,217.918,145.73,222.891,141.931z" fill="#EF4629"/><path d="M218.025,159.584c5.257,0,9.516-4.259,9.516-9.516c0-3.469-1.875-6.475-4.65-8.137   c-4.973,3.799-9.17,8.541-12.325,13.982C212.309,158.132,214.984,159.584,218.025,159.584z" fill="#FFBC00"/><path d="M298.704,142.603c-1.428-0.859-3.085-1.382-4.877-1.382c-5.27,0-9.539,4.27-9.539,9.541   c0,2.222,0.788,4.238,2.062,5.859C289.514,151.166,293.721,146.411,298.704,142.603z" fill="#EF4629"/><path d="M293.827,160.301c5.271,0,9.541-4.27,9.541-9.54c0-3.478-1.881-6.493-4.664-8.158   c-4.982,3.809-9.189,8.563-12.354,14.018C288.093,158.846,290.775,160.301,293.827,160.301z" fill="#FFBC00"/><polygon fill="#131313" opacity="0.1" points="293.827,130.423 293.827,172.687 306.889,172.687 319.944,150.068 306.889,127.451     "/><polygon fill="#131313" opacity="0.1" points="234.818,134.143 219.054,130.636 219.054,172.627 231.049,172.627 244.074,150.068     "/><path d="M334,112.548l-79.872-0.613v133.896l78.843,0.606c9.02,0.068,16.416-10.942,16.523-24.594   l0.023-3.112l0.623-81.339C350.244,123.741,343.016,112.618,334,112.548z" fill="#131313" opacity="0.1"/></g><g id="Hand"><path d="M387.671,381.785c-5.287,2.272-10.744,4.291-16.354,6.04c-3.087,4.241-6.412,8.4-9.973,12.457   c-3.643-4.012-7.049-8.133-10.217-12.339c-5.639-1.68-11.134-3.635-16.463-5.847c4.093-3.298,7.959-6.742,11.589-10.313   c0.274-4.885,0.567-9.769,0.878-14.652c4.467,2.056,9.107,3.901,13.903,5.513c4.775-1.667,9.39-3.565,13.826-5.672   c0.367,4.879,0.727,9.758,1.073,14.639C379.613,375.136,383.528,378.537,387.671,381.785z" fill="#9DA0B2"/><path d="M374.198,377.578c-2.644,1.137-5.373,2.147-8.179,3.021c-1.542,2.122-3.205,4.202-4.985,6.232   c-1.821-2.007-3.524-4.068-5.109-6.172c-2.82-0.84-5.566-1.818-8.231-2.924c2.046-1.648,3.979-3.371,5.795-5.156   c0.137-2.442,0.284-4.884,0.438-7.326c2.234,1.027,4.553,1.95,6.951,2.756c2.388-0.834,4.696-1.784,6.916-2.838   c0.184,2.439,0.363,4.88,0.537,7.321C370.168,374.254,372.125,375.954,374.198,377.578z" fill="#1E706C"/><path d="M169.382,389.223c-5.894,1.404-11.874,2.502-17.915,3.287c-4.156,3.658-8.575,7.169-13.248,10.502   c-2.472-4.543-4.756-9.136-6.851-13.766c-5.166-2.586-10.111-5.405-14.819-8.43c4.778-2.522,9.324-5.255,13.625-8.167   c1.259-4.742,2.436-9.499,3.532-14.268c4.068,2.74,8.369,5.303,12.891,7.658c5.086-0.881,10.091-2.024,14.995-3.417   c-0.466,4.879-1.041,9.762-1.726,14.642C162.84,381.337,166.013,385.328,169.382,389.223z" fill="#9DA0B2"/><path d="M156.106,384.467c-2.948,0.703-5.938,1.253-8.958,1.646c-2.079,1.829-4.288,3.585-6.625,5.252   c-1.236-2.271-2.378-4.568-3.427-6.884c-2.583-1.293-5.055-2.702-7.409-4.216c2.389-1.261,4.662-2.626,6.813-4.084   c0.629-2.37,1.219-4.749,1.767-7.133c2.034,1.37,4.185,2.652,6.445,3.83c2.543-0.44,5.045-1.012,7.497-1.709   c-0.233,2.44-0.521,4.882-0.863,7.321C152.833,380.526,154.421,382.521,156.106,384.467z" fill="#1E706C"/><path d="M137.414,323.242c-0.136-0.012-0.265-0.051-0.401-0.065l-3.284,33.741l12.64,7.458l14.51-2.198   l4.924-52.644C158.162,318.86,148.037,324.23,137.414,323.242z" fill="#1E706C"/><path d="M144.478,242.955l-7.465,80.222c0.136,0.015,0.265,0.054,0.401,0.065   c10.623,0.988,20.748-4.382,28.389-13.708l5.96-64.04L144.478,242.955z" fill="#9DA0B2"/><path d="M374.833,355.866l-3.938-38.451c-0.313,0.047-0.615,0.135-0.933,0.164   c-10.333,1.087-20.275-3.848-27.946-12.635l5.162,51.119l13.862,4.82L374.833,355.866z" fill="#1E706C"/><path d="M369.961,317.579c0.317-0.029,0.62-0.117,0.933-0.164l-8.214-77.465l-27.25,2.891l6.585,62.104   C349.686,313.731,359.628,318.666,369.961,317.579z" fill="#9DA0B2"/></g><g id="Body"><path d="M290.357,275.26c9.13,0,17.961,1.017,26.356,2.871v-6.532c0-12.734-4.772-23.06-10.652-23.06H202.195   c-5.884,0-10.651,10.326-10.651,23.06v78.786c0,0.796,0.019,1.586,0.055,2.362C192.771,309.796,236.521,275.26,290.357,275.26z" fill="#26807E"/><path d="M202.397,373.442h103.867c5.879,0,10.65-10.326,10.65-23.057v-72.254   c-8.395-1.854-17.226-2.871-26.357-2.871c-53.835,0-97.583,34.536-98.756,77.487C192.348,364.369,196.883,373.442,202.397,373.442z   " fill="#45B5E7"/><rect fill="#3B3D48" height="9.146" width="17.708" x="205.109" y="262.536"/><rect fill="#3B3D48" height="9.146" width="17.709" x="285.891" y="262.536"/><rect fill="#3B3D48" height="9.146" width="17.708" x="245.501" y="262.536"/><rect fill="#46B978" height="6.558" width="12.697" x="228.045" y="263.83"/><rect fill="#46B978" height="6.558" width="12.696" x="268.652" y="263.83"/><rect fill="#46B978" height="20.652" width="17.708" x="205.109" y="346.098"/><rect fill="#46B978" height="21.679" width="17.709" x="285.891" y="345.072"/><rect fill="#46B978" height="20.652" width="17.708" x="245.501" y="346.098"/><rect fill="#EC5C5B" height="64.813" width="12.697" x="228.045" y="300.643"/><rect fill="#EC5C5B" height="64.813" width="12.696" x="268.652" y="300.643"/><path d="M306.264,373.442c5.879,0,10.65-10.326,10.65-23.057v-72.254   c-0.066-0.015-0.135-0.026-0.201-0.041v-6.491c0-12.734-4.772-23.06-10.652-23.06h-52.86v124.903H306.264z" fill="#131313" opacity="0.1"/></g></svg>