<?xml version="1.0" ?><!DOCTYPE svg  PUBLIC '-//W3C//DTD SVG 1.1//EN'  'http://www.w3.org/Graphics/SVG/1.1/DTD/svg11.dtd'><svg enable-background="new 0 0 512 512" height="512px" version="1.1" viewBox="0 0 512 512" width="512px" xml:space="preserve" xmlns="http://www.w3.org/2000/svg" xmlns:xlink="http://www.w3.org/1999/xlink"><g id="Background"><circle cx="256" cy="256" fill="#1DDD8F" r="256"/></g><g id="Shadow"><ellipse cx="251.254" cy="392.431" opacity="0.12" rx="164.414" ry="13.777"/><path d="M508.186,211.792l-20.837-18.035l-28.424,85.681L319.549,136.8l-17.563,6.569l-47.812-42.505l-1.069,4.357   l-5.625,1.071l-4.421,3.148l-3.617,8.104l-1.99,21.499l-72.794,103.047l144.031,145.681h166.825   C498.672,349.276,512,304.196,512,256C512,240.923,510.686,226.154,508.186,211.792z" opacity="0.1"/></g><g id="Body"><path d="M298.428,252.363H186.399c-10.723,0-19.495,8.773-19.495,19.496v96.523   c0,10.723,8.772,19.496,19.495,19.496h112.028c10.723,0,19.496-8.773,19.496-19.496v-96.523   C317.924,261.137,309.15,252.363,298.428,252.363z" fill="#DD5952"/><g><ellipse cx="302.69" cy="340.438" fill="#EC2227" rx="11.096" ry="10.321"/><g><path d="M301.129,340.682c0,2.393-1.521,3.662-3.378,3.662c-1.92,0-3.269-1.424-3.269-3.528     c0-2.207,1.436-3.651,3.377-3.651C299.845,337.164,301.129,338.618,301.129,340.682z M295.485,340.795     c0,1.485,0.842,2.816,2.32,2.816c1.489,0,2.33-1.311,2.33-2.889c0-1.382-0.755-2.826-2.319-2.826     C296.263,337.896,295.485,339.269,295.485,340.795z" fill="#262626"/><path d="M302.352,337.277h3.916v0.753h-2.977v2.311h2.751v0.743h-2.751v3.146h-0.939V337.277z" fill="#262626"/><path d="M307.609,337.277h3.916v0.753h-2.977v2.311h2.751v0.743h-2.751v3.146h-0.939V337.277z" fill="#262626"/></g><path d="M313.794,340.438c0-4.876-3.722-8.95-8.72-10.031c-3.82,1.124-6.67,5.491-6.67,10.718    c0,4.137,1.786,7.736,4.424,9.617C308.917,350.556,313.794,346.02,313.794,340.438z" fill="#191818" opacity="0.1"/></g><g><rect fill="#EC2227" height="62.634" width="89.062" x="199.015" y="312.282"/></g><g><ellipse cx="183.936" cy="340.438" fill="#3DB172" rx="11.095" ry="10.321"/><g><path d="M184.001,340.33c0,2.393-1.521,3.662-3.377,3.662c-1.921,0-3.27-1.424-3.27-3.527     c0-2.207,1.436-3.652,3.377-3.652C182.717,336.813,184.001,338.268,184.001,340.33z M178.357,340.443     c0,1.486,0.842,2.816,2.321,2.816c1.489,0,2.331-1.311,2.331-2.889c0-1.382-0.755-2.826-2.32-2.826     C179.136,337.545,178.357,338.917,178.357,340.443z" fill="#232323"/><path d="M185.224,343.879v-6.953h1.025l2.331,3.518c0.539,0.815,0.96,1.548,1.306,2.26l0.021-0.01     c-0.086-0.93-0.107-1.775-0.107-2.857v-2.91h0.885v6.953h-0.95l-2.309-3.527c-0.507-0.774-0.993-1.568-1.36-2.321l-0.032,0.011     c0.055,0.876,0.075,1.712,0.075,2.867v2.971H185.224z" fill="#232323"/></g><path d="M195.032,340.438c0-5.124-4.018-9.362-9.279-10.171c-3.442,1.502-5.934,5.881-5.934,11.057    c0,3.876,1.403,7.3,3.552,9.408c0.188,0.01,0.375,0.027,0.565,0.027C190.064,350.76,195.032,346.139,195.032,340.438z" fill="#303030" opacity="0.2"/></g><path d="M273.095,319.223h-0.484c-1.104,0-2.007,0.902-2.007,2.006v43.579   c0,1.104,0.902,2.007,2.007,2.007h0.484c1.104,0,2.007-0.903,2.007-2.007v-43.579C275.102,320.125,274.198,319.223,273.095,319.223   z" fill="#191818" opacity="0.5"/><path d="M272.852,324.097c-1.236,0-2.248,0.968-2.248,2.15v7.741c0,1.182,1.012,2.149,2.248,2.149   c1.237,0,2.25-0.968,2.25-2.149v-7.741C275.102,325.064,274.089,324.097,272.852,324.097z" fill="#FCEE23"/><path d="M272.852,337.858c-1.236,0-2.248,0.968-2.248,2.15v7.74c0,1.183,1.012,2.15,2.248,2.15   c1.237,0,2.25-0.968,2.25-2.15v-7.74C275.102,338.826,274.089,337.858,272.852,337.858z" fill="#019547"/><path d="M272.852,351.619c-1.236,0-2.248,0.969-2.248,2.15v7.741c0,1.183,1.012,2.15,2.248,2.15   c1.237,0,2.25-0.968,2.25-2.15v-7.741C275.102,352.588,274.089,351.619,272.852,351.619z" fill="#2075BC"/><path d="M301.363,286.525c-1.25-5.701,0.063-12.003,3.602-17.287l-0.714-0.479   c-3.669,5.479-5.027,12.021-3.729,17.949c1.118,5.1,4.109,9.362,8.423,12.002l0.449-0.734   C305.283,295.461,302.43,291.394,301.363,286.525z" fill="#333333"/><g><path d="M177.772,300.461l-0.714-0.479c4.441-6.633,6.26-14.395,4.864-20.764c-0.931-4.246-3.18-7.566-6.504-9.601    l0.449-0.734c3.529,2.16,5.914,5.67,6.896,10.151C184.207,285.627,182.342,293.638,177.772,300.461z" fill="#333333"/></g><g><ellipse cx="204.222" cy="317.04" fill="#818285" rx="2.678" ry="3.077" transform="matrix(0.7071 0.7071 -0.7071 0.7071 283.9965 -51.548)"/><polygon fill="#595A5C" points="206.669,317.533 206.753,316.655 201.775,316.548 201.691,317.427   "/></g><g><ellipse cx="281.63" cy="317.037" fill="#818285" rx="2.678" ry="3.078" transform="matrix(-0.1683 -0.9857 0.9857 -0.1683 16.5142 648.0078)"/><polygon fill="#595A5C" points="279.919,315.221 279.343,315.888 283.343,318.854 283.919,318.186   "/></g><g><ellipse cx="204.222" cy="371.226" fill="#818285" rx="2.678" ry="3.077" transform="matrix(0.7072 0.707 -0.707 0.7072 322.2593 -35.6925)"/><polygon fill="#595A5C" points="206.669,371.72 206.753,370.842 201.775,370.734 201.691,371.613   "/></g><g><ellipse cx="281.63" cy="371.224" fill="#818285" rx="2.678" ry="3.077" transform="matrix(-0.1683 -0.9857 0.9857 -0.1683 -36.8994 711.314)"/><polygon fill="#595A5C" points="279.919,369.407 279.343,370.074 283.343,373.04 283.919,372.371   "/></g><g><ellipse cx="243.106" cy="286.592" fill="#4CD3D3" rx="18.492" ry="19.876"/><path d="M242.998,267.146c-1.036,0-2.049,0.097-3.037,0.273c-1.85,2.813-13.744,22.271-0.428,38.478    c1.122,0.23,2.279,0.355,3.464,0.355c10.1,0,18.287-8.755,18.287-19.553C261.284,275.9,253.097,267.146,242.998,267.146z" fill="#1C1C1C" opacity="0.2"/><path d="M259.19,276.806c-8.547,7.141-23.053,7.369-32.433,0.511" fill="none"/><path d="M259.889,295.064c-8.726,7.292-23.717,7.393-33.517,0.227" fill="none"/><g><path d="M260.158,295.389c1.198-2.663,1.869-5.647,1.869-8.796c0-11.196-8.488-20.307-18.921-20.307     c-10.434,0-18.922,9.11-18.922,20.307c0,3.231,0.71,6.286,1.967,9.001l-0.032,0.044c0.025,0.019,0.053,0.033,0.078,0.052     c3.115,6.64,9.522,11.209,16.91,11.209c7.493,0,13.982-4.698,17.044-11.493c0.005-0.004,0.01-0.007,0.014-0.011L260.158,295.389z      M242.688,292.604c6.712,0,13.388-1.971,18.476-5.87c-0.02,2.901-0.632,5.653-1.714,8.124c-8.514,6.968-23.006,7.072-32.58,0.248     c-1.064-2.343-1.702-4.948-1.808-7.699C230.129,290.866,236.417,292.604,242.688,292.604z M225.049,286.365     c0.032-3.02,0.707-5.876,1.883-8.418c4.559,3.183,10.246,4.779,15.885,4.779c5.947,0,11.817-1.777,16.225-5.273     c1.225,2.463,1.97,5.239,2.103,8.187C251.477,293.481,235.424,293.816,225.049,286.365z M243.106,267.146     c6.6,0,12.381,3.832,15.533,9.536c-8.328,6.719-22.207,6.933-31.325,0.485C230.4,271.197,236.32,267.146,243.106,267.146z      M243.106,306.038c-6.539,0-12.277-3.761-15.448-9.377c4.631,2.894,10.19,4.35,15.666,4.35c5.546,0,10.993-1.49,15.279-4.445     C255.444,302.234,249.681,306.038,243.106,306.038z" fill="#333333"/></g></g><path d="M298.428,252.363h-54.657v135.516h54.657c10.723,0,19.496-8.773,19.496-19.496v-96.523   C317.924,261.137,309.15,252.363,298.428,252.363z" fill="#191818" opacity="0.1"/></g><g id="Hand"><path d="M175.693,276.452c-4.921-4.208-13.137-2.672-18.35,3.429c0,0-37.053,42.002-36.893,42.139   c0.159,0.136-4.808,7.404-1.162,13.296c3.646,5.892,21.053,21.153,21.053,21.153l7.273,6.807l11.583-13.724l-18.388-19.274   l34.355-35.162C180.378,289.015,180.614,280.659,175.693,276.452z" fill="#CCCCCC"/><path d="M177.75,363.756c-1.509-1.056-3.04-2.083-4.579-3.101c-0.144-2.256-0.998-4.269-2.618-5.651   c-3.939-3.365-10.83-1.764-15.39,3.576c-4.56,5.338-5.063,12.395-1.123,15.76c1.628,1.39,3.761,1.921,6.024,1.699   c0.88,1.463,1.727,2.951,2.597,4.421c-4.622,1.444-9.279,0.916-12.597-1.917c-5.909-5.047-5.323-15.435,1.31-23.2   c6.633-7.767,16.8-9.971,22.71-4.923C177.676,353.487,178.86,358.529,177.75,363.756z" fill="#454647"/><g><path d="M114.295,338.531c-1.886-1.556-3.052-3.784-3.282-6.273c-0.248-2.694,0.604-5.358,2.398-7.503l0.659,0.553    c-1.646,1.966-2.428,4.406-2.201,6.871c0.208,2.259,1.264,4.28,2.972,5.689L114.295,338.531z" fill="#333333"/></g><path d="M362.905,314.669c0.149-0.145-37.775-38.053-37.775-38.053c-5.344-5.519-13.409-6.379-18.014-1.923   c-4.604,4.457-4.004,12.544,1.34,18.063l34.996,31.479l-17.047,20.102l11.882,12.425l6.778-7.158c0,0,16.271-16.134,19.56-22.127   C367.913,321.482,362.756,314.813,362.905,314.669z" fill="#BBBBBC"/><path d="M333.099,348.914c-7.106-7.336-17.345-8.942-22.869-3.59c-3.103,3.006-4.038,7.564-3.017,12.282   c1.534-0.716,3.084-1.407,4.611-2.134c-0.021-2.262,0.695-4.322,2.218-5.797c3.683-3.568,10.629-2.373,15.515,2.67   c4.887,5.043,5.861,12.023,2.178,15.592c-1.513,1.467-3.582,2.113-5.83,2.033c-1.145,1.424-2.299,2.838-3.478,4.228   c5.08,1.614,10.18,0.941,13.538-2.313C341.489,366.533,340.207,356.248,333.099,348.914z" fill="#454647"/><g><path d="M370.074,328.895l-0.518-0.688c0.975-0.734,1.576-1.881,1.738-3.316c0.321-2.828-1.084-6.494-3.668-9.567    l0.658-0.553c2.772,3.296,4.217,7.116,3.865,10.218C371.96,326.664,371.242,328.014,370.074,328.895z" fill="#333333"/></g></g><g id="Foot"><g><ellipse cx="337.167" cy="380.886" fill="#231F20" rx="26.527" ry="26.928" transform="matrix(0.8783 -0.4782 0.4782 0.8783 -141.0861 207.5958)"/></g><g><path d="M313.87,393.57c-7.111-13.061-2.446-29.329,10.42-36.334c0.214-0.117,0.432-0.222,0.647-0.332    c-15.647,0.073-27.195,4.494-29.59,12.645c-2.629,8.951,6.466,20.089,22.094,29.102    C316.092,397.129,314.886,395.436,313.87,393.57z" fill="#BBBBBC"/></g><circle cx="339.201" cy="380.914" fill="#424143" r="16.016"/><g><path d="M165.748,360.688c-11.45-7.483-27.067-3.867-34.881,8.075c-7.814,11.943-4.867,27.689,6.583,35.173    c11.45,7.482,27.067,3.866,34.881-8.077C180.145,383.916,177.198,368.168,165.748,360.688z" fill="#231F20"/></g><g><path d="M191.807,375.084c-1.53-8.272-11.971-13.452-26.637-14.584c0.193,0.125,0.387,0.244,0.578,0.374    c11.451,7.842,14.397,24.347,6.583,36.864c-1.116,1.787-2.395,3.391-3.794,4.813C183.981,394.639,193.486,384.171,191.807,375.084    z" fill="#CCCCCC"/></g><circle cx="151.7" cy="382.634" fill="#424143" r="16.016"/></g><g id="Cable"><path d="M479.857,191.802h-18.063c-5.676,0-10.321,4.645-10.321,10.321v83.43c0,5.676,4.646,10.321,10.321,10.321   h18.063c5.676,0,10.32-4.646,10.32-10.321v-83.43C490.178,196.446,485.533,191.802,479.857,191.802z" fill="#8B8B8C"/><path d="M477.17,196.962h-12.041c-5.677,0-10.321,4.645-10.321,10.321v73.968c0,5.677,4.645,10.321,10.321,10.321   h12.041c5.677,0,10.321-4.645,10.321-10.321v-73.968C487.491,201.607,482.847,196.962,477.17,196.962z" fill="#EAEAEA"/><ellipse cx="471.149" cy="215.885" fill="#C1C1C1" rx="12.901" ry="12.471"/><ellipse cx="471.149" cy="245.988" fill="#C1C1C1" rx="12.901" ry="12.471"/><ellipse cx="471.149" cy="276.091" fill="#C1C1C1" rx="12.901" ry="12.471"/><g><ellipse cx="465.077" cy="215.885" fill="#383637" rx="2.099" ry="1.828"/><ellipse cx="478.512" cy="215.885" fill="#383637" rx="2.1" ry="1.828"/></g><g><ellipse cx="465.077" cy="245.988" fill="#383637" rx="2.099" ry="1.828"/><ellipse cx="478.512" cy="245.988" fill="#383637" rx="2.1" ry="1.828"/></g><ellipse cx="471.149" cy="276.521" fill="#EAEAEA" rx="11.182" ry="10.321"/><ellipse cx="471.149" cy="276.521" fill="#231F20" rx="3.011" ry="3.226"/><path d="M471.459,274.454c-3.336,0.764-24.922,5.054-38.875,13.016c-4.076,2.325-4.045-0.151-4.086-0.956   c-1.052-20.938-2.591-40.405-18.747-49.291c-9.335-5.134-13.017-11.405-15.975-16.443c-2.374-4.043-4.424-7.536-8.569-8.687   c-2.584-0.718-3.85-3.011-5.316-5.666c-2.044-3.704-4.588-8.314-11.511-8.603c-5.856-0.244-12.076-6.011-16.617-10.222   c-3.36-3.115-5.21-4.832-7.126-4.832c-0.572,0-1.188-0.574-2.135-1.52c-1.238-1.239-2.78-2.78-5.176-2.78v4.3   c0.573,0,1.188,0.575,2.136,1.521c1.208,1.208,2.702,2.703,4.997,2.777c0.764,0.335,2.763,2.188,4.38,3.688   c5.031,4.665,11.923,11.056,19.361,11.365c4.507,0.188,6.016,2.922,7.927,6.384c1.688,3.061,3.604,6.53,7.93,7.731   c2.354,0.653,3.748,2.866,6.012,6.721c3.055,5.203,7.238,12.33,17.609,18.034c14.672,8.07,15.631,27.54,16.645,48.153   c0.055,1.103,0.109,2.207,0.166,3.313c0.046,0.892,2.697,3.151,4.413,2.011c9.636-6.405,29.963-12.719,43.518-15.823   L471.459,274.454z" fill="#302C2D"/><path d="M332.453,174.17v14.191c3.215,0,5.82-3.177,5.82-7.096S335.668,174.17,332.453,174.17z" fill="#AAAAAA"/><g><ellipse cx="481.608" cy="232.461" fill="#818285" rx="0.978" ry="1.401" transform="matrix(-0.4405 -0.8977 0.8977 -0.4405 485.0693 767.2255)"/><polygon fill="#595A5C" points="481.251,231.643 480.902,231.863 481.965,233.279 482.314,233.059   "/></g><g><path d="M463.586,231.782c-0.316-0.719-1.1-1.147-1.747-0.956c-0.649,0.192-0.919,0.931-0.604,1.65    c0.316,0.72,1.1,1.147,1.748,0.955C463.633,233.24,463.903,232.501,463.586,231.782z" fill="#818285"/><polygon fill="#595A5C" points="463.279,231.483 461.324,232.408 461.543,232.775 463.499,231.85   "/></g><g><path d="M473.008,260.753c-0.415-0.608-1.325-0.938-2.035-0.733c-0.709,0.205-0.948,0.864-0.533,1.475    c0.414,0.609,1.325,0.938,2.034,0.733C473.183,262.023,473.422,261.364,473.008,260.753z" fill="#818285"/><polygon fill="#595A5C" points="472.64,260.511 470.531,261.43 470.808,261.737 472.916,260.818   "/></g><rect fill="#D2D3D4" height="23.223" width="9.031" x="324.189" y="169.224"/><g><ellipse cx="328.727" cy="180.835" fill="#818285" rx="1.201" ry="1.044"/><polygon fill="#595A5C" points="328.188,180.025 327.922,180.244 329.265,181.646 329.53,181.427   "/></g><path d="M324.189,169.224v12.026h14.084c-0.006-3.594-2.206-6.553-5.053-7.012v-5.014H324.189z" fill="#191818" opacity="0.1"/></g><g id="Head"><g><path d="M237.49,135.16c-0.041-0.884-0.847-22.314,7.541-28.09c2.702-1.86,6.061-1.939,9.982-0.234l-0.343,0.789    c-3.632-1.579-6.71-1.527-9.151,0.154c-7.999,5.508-7.158,27.17-7.148,27.381H237.49z" fill="#2B2929"/></g><path d="M313.869,134.833H171.367c-5.677,0-10.321,4.645-10.321,10.321v91.83c0,5.677,4.644,10.321,10.321,10.321   h142.502c5.677,0,10.32-4.645,10.32-10.321v-91.83C324.189,139.478,319.546,134.833,313.869,134.833z" fill="#DD5952"/><g><ellipse cx="171.527" cy="143.72" fill="#818285" rx="6.165" ry="5.362"/><polygon fill="#595A5C" points="168.761,139.557 167.396,140.682 174.294,147.882 175.658,146.757   "/></g><g><ellipse cx="314.091" cy="143.477" fill="#818285" rx="6.165" ry="5.363"/><polygon fill="#595A5C" points="311.323,139.314 309.959,140.439 316.857,147.64 318.221,146.514   "/></g><g><ellipse cx="311.761" cy="239.035" fill="#818285" rx="6.165" ry="5.363"/><polygon fill="#595A5C" points="308.994,234.872 307.629,235.997 314.527,243.197 315.891,242.072   "/></g><ellipse cx="253.654" cy="106.915" fill="#4CD3D3" rx="6.068" ry="4.743" transform="matrix(0.2018 -0.9794 0.9794 0.2018 97.7465 333.7713)"/><path d="M280.13,188.361h-70.528c-5.677,0-10.321,4.645-10.321,10.321v32.684c0,5.677,4.645,10.321,10.321,10.321   h70.528c5.677,0,10.321-4.645,10.321-10.321v-32.684C290.451,193.006,285.807,188.361,280.13,188.361z" fill="#4CD3D3"/><rect fill="#166DF9" height="38.705" opacity="0.8" width="12.901" x="207.021" y="196.962"/><rect fill="#166DF9" height="38.705" opacity="0.7" width="12.901" x="223.363" y="196.962"/><rect fill="#166DF9" height="38.705" opacity="0.7" width="12.901" x="239.705" y="196.962"/><polygon fill="#FCEE23" points="259.315,215.447 243.833,214.404 247.848,200.84 235.232,217.013 251.288,217.534 233.513,232.664     "/><rect fill="#166DF9" height="38.705" opacity="0.7" width="12.902" x="256.047" y="196.962"/><rect fill="#166DF9" height="15.394" opacity="0.7" width="12.901" x="271.529" y="209.02"/><g><polygon fill="#818182" points="298.661,165.639 290.605,176.619 274.425,176.672 266.3,165.745 274.354,154.765 290.534,154.711       "/><polygon fill="#4CD3D3" points="288.207,172.957 282.188,170.183 276.27,172.673 277.301,167.126 272.395,163.063     279.053,162.409 281.938,157.409 285.021,162.551 291.71,163.523 286.959,167.355   "/><polygon fill="#1C1C1C" opacity="0.1" points="282.092,154.739 282.092,176.646 290.605,176.619 298.661,165.639 290.534,154.711       "/></g><g><ellipse cx="173.068" cy="238.036" fill="#818285" rx="6.164" ry="5.362"/><polygon fill="#595A5C" points="170.302,233.873 168.938,234.998 175.835,242.198 177.199,241.073   "/></g><g><polygon fill="#818182" points="220.84,165.708 212.786,176.688 196.605,176.742 188.479,165.814 196.533,154.834     212.714,154.781   "/><polygon fill="#4CD3D3" points="210.387,173.026 204.367,170.253 198.449,172.742 199.48,167.196 194.574,163.133     201.232,162.479 204.117,157.479 207.2,162.621 213.89,163.593 209.138,167.425   "/><polygon fill="#1C1C1C" opacity="0.1" points="204.271,154.809 204.271,176.716 212.786,176.688 220.84,165.708 212.714,154.781       "/></g><path d="M314.365,134.833h-70.595v112.473h70.595c5.404,0,9.824-4.645,9.824-10.321v-91.83   C324.189,139.478,319.77,134.833,314.365,134.833z" fill="#191818" opacity="0.1"/></g></svg>