<?xml version="1.0" ?><!DOCTYPE svg  PUBLIC '-//W3C//DTD SVG 1.1//EN'  'http://www.w3.org/Graphics/SVG/1.1/DTD/svg11.dtd'><svg enable-background="new 0 0 512 512" height="512px" version="1.1" viewBox="0 0 512 512" width="512px" xml:space="preserve" xmlns="http://www.w3.org/2000/svg" xmlns:xlink="http://www.w3.org/1999/xlink"><g id="Background"><circle cx="256" cy="256" fill="#E16D26" r="256"/></g><g id="Shadow"><path d="M237.032,355.154c-80.326,0-154.764,1.048-215.891,2.831c3.893,8.952,8.272,17.644,13.125,26.029   c58.529,1.56,128.103,2.464,202.766,2.464c91.86,0,176.028-1.368,241.38-3.642c4.36-7.63,8.33-15.511,11.902-23.607   C423.438,356.698,334.574,355.154,237.032,355.154z" opacity="0.12"/><linearGradient gradientUnits="userSpaceOnUse" id="SVGID_1_" x1="200.5293" x2="528.5032" y1="232.6099" y2="471.8375"><stop offset="0" style="stop-color:#C15627"/><stop offset="1" style="stop-color:#B95A2C"/></linearGradient><path d="M457.344,256.272c-1.039-14.554-24.848-12.123-24.848-12.123l-29.822-58.575l-118.612,28.83   l-27.067-23.952c0,0-129.494,37.222-144.485,39.992s-63.2,5.798-63.2,5.798l36.014,80.513l18.664,39.917l20.604,1.085   l275.256,4.945l89.357-0.959c6.15-13.541,11.153-27.713,14.891-42.392L457.344,256.272z" fill="url(#SVGID_1_)"/></g><g id="Body"><path d="M266.544,210.858c-0.217-12.187-10.366-21.982-22.553-21.765l-109.713,1.951   c-12.188,0.217-21.982,10.365-21.765,22.554l2.263,127.336c0.217,12.188,10.366,21.982,22.554,21.765l109.713-1.951   c12.188-0.216,21.983-10.364,21.765-22.553L266.544,210.858z" fill="#EC5958"/><g><path d="M247.034,339.996l0.711-0.14c1.377,4.284,0.96,8.669-1.173,12.343c-2.479,4.271-7.07,7.205-12.594,8.049    l-0.205-0.733c5.328-0.814,9.753-3.634,12.137-7.745C247.948,348.263,248.346,344.079,247.034,339.996z" fill="#931B1E"/></g><g><rect fill="#EF3B47" height="101.246" transform="matrix(0.9998 -0.0178 0.0178 0.9998 -4.9093 2.9588)" width="71.204" x="128.395" y="227.033"/><rect fill="#EC2227" height="96.645" transform="matrix(0.9998 -0.0178 0.0178 0.9998 -4.9142 2.9607)" width="67.463" x="130.355" y="229.588"/></g><path d="M192.292,310.2c-0.022-1.256-1.067-2.263-2.321-2.241l-49.533,0.881c-1.255,0.022-2.263,1.066-2.241,2.321   l0.01,0.55c0.022,1.255,1.067,2.264,2.322,2.241l49.533-0.881c1.254-0.022,2.263-1.066,2.241-2.321L192.292,310.2z" fill="#010101"/><g><ellipse cx="135.166" cy="322.378" fill="#818385" rx="3.02" ry="2.626"/><polygon fill="#5A5B5D" points="133.81,320.339 133.142,320.89 136.521,324.418 137.189,323.866   "/></g><path d="M184.267,308.06l-8.798,0.157c-1.344,0.023-2.424,1.193-2.398,2.599c0.025,1.407,1.145,2.537,2.489,2.514   l8.798-0.155c1.345-0.024,2.424-1.194,2.399-2.601C186.732,309.168,185.612,308.036,184.267,308.06z" fill="#FCEE23"/><path d="M268.808,338.194l-1.071-60.265l-154.031,2.794l1.07,60.21   c0.217,12.188,10.366,21.982,22.554,21.765l109.713-1.951C259.23,360.531,269.025,350.383,268.808,338.194z" fill="#2B2A2A" opacity="0.1"/><path d="M168.625,308.339l-8.798,0.155c-1.344,0.024-2.423,1.194-2.398,2.601c0.024,1.405,1.145,2.537,2.489,2.512   l8.798-0.155c1.344-0.023,2.424-1.193,2.399-2.6C171.09,309.445,169.97,308.315,168.625,308.339z" fill="#019547"/><g><ellipse cx="192.493" cy="321.203" fill="#818385" rx="3.02" ry="2.627"/><polygon fill="#5A5B5D" points="191.137,319.163 190.469,319.714 193.848,323.242 194.516,322.69   "/></g><g><ellipse cx="192.343" cy="234.206" fill="#818385" rx="3.02" ry="2.627"/><polygon fill="#5A5B5D" points="190.987,232.167 190.319,232.717 193.698,236.246 194.366,235.694   "/></g><path d="M152.983,308.616l-8.799,0.156c-1.344,0.024-2.423,1.193-2.398,2.6c0.025,1.406,1.145,2.537,2.489,2.514   l8.799-0.156c1.344-0.024,2.423-1.194,2.398-2.6C155.448,309.724,154.328,308.593,152.983,308.616z" fill="#2075BC"/><g><ellipse cx="237.032" cy="273.45" fill="#5FC6CA" rx="20.404" ry="18.982"/><path d="M256.994,273.339c0-1.063-0.101-2.102-0.283-3.116c-2.885-1.9-22.862-14.109-39.498-0.44    c-0.236,1.153-0.365,2.341-0.365,3.557c0,10.367,8.987,18.772,20.072,18.772C248.007,292.111,256.994,283.706,256.994,273.339z" fill="#1C1C1C" opacity="0.2"/><path d="M247.078,289.962c-7.331-8.773-7.565-23.665-0.524-33.293" fill="none"/><path d="M228.334,290.679c-7.485-8.956-7.589-24.346-0.232-34.406" fill="none"/><g><path d="M228.002,290.956c2.733,1.229,5.797,1.918,9.029,1.918c11.494,0,20.846-8.714,20.846-19.424     s-9.352-19.423-20.846-19.423c-3.316,0-6.453,0.729-9.239,2.019l-0.046-0.033c-0.02,0.026-0.035,0.053-0.054,0.08     c-6.815,3.198-11.505,9.775-11.505,17.357c0,7.691,4.822,14.354,11.797,17.497c0.004,0.005,0.007,0.011,0.011,0.014     L228.002,290.956z M230.861,273.021c0,6.891,2.023,13.742,6.025,18.966c-2.978-0.02-5.804-0.647-8.339-1.759     c-7.153-8.74-7.26-23.617-0.255-33.443c2.405-1.092,5.08-1.748,7.903-1.856C232.645,260.13,230.861,266.584,230.861,273.021z      M237.264,254.915c3.1,0.034,6.032,0.726,8.641,1.933c-3.267,4.68-4.905,10.519-4.905,16.307c0,6.105,1.824,12.131,5.413,16.655     c-2.528,1.256-5.379,2.021-8.404,2.158C229.959,282.044,229.616,265.564,237.264,254.915z M256.994,273.45     c0,6.774-3.935,12.709-9.791,15.944c-6.897-8.549-7.117-22.796-0.499-32.155C252.835,260.408,256.994,266.484,256.994,273.45z      M217.07,273.45c0-6.712,3.86-12.604,9.625-15.856c-2.97,4.753-4.465,10.46-4.465,16.081c0,5.693,1.53,11.284,4.563,15.685     C220.974,286.115,217.07,280.2,217.07,273.45z" fill="#333333"/></g></g><path d="M249.602,211.873c-0.557-4.887-2.467-9.372-5.265-12.54c-0.699-0.792-1.455-1.502-2.257-2.116   c-2.729-2.085-5.787-2.934-8.845-2.459l0.099,0.637c2.881-0.448,5.77,0.36,8.356,2.334c3.875,2.963,6.596,8.277,7.272,14.217   L249.602,211.873z" fill="#931B1E"/><g><ellipse cx="166.367" cy="209.837" fill="#3EB172" rx="11.733" ry="12.614"/><g><path d="M166.49,209.911c-2.72,0-4.163-1.729-4.163-3.84c0-2.183,1.618-3.716,4.01-3.716     c2.509,0,4.152,1.632,4.152,3.84C170.489,208.452,168.835,209.911,166.49,209.911z M166.361,203.495     c-1.689,0-3.202,0.957-3.202,2.638c0,1.693,1.49,2.65,3.284,2.65c1.571,0,3.213-0.859,3.213-2.638     C169.656,204.379,168.096,203.495,166.361,203.495z" fill="#232323"/><path d="M162.456,211.301h7.904v1.165l-3.999,2.65c-0.927,0.613-1.76,1.092-2.568,1.484l0.011,0.024     c1.056-0.098,2.018-0.122,3.249-0.122h3.308v1.006h-7.904v-1.08l4.01-2.625c0.879-0.577,1.783-1.128,2.638-1.546l-0.011-0.037     c-0.997,0.062-1.947,0.086-3.26,0.086h-3.377V211.301z" fill="#232323"/></g><path d="M166.367,222.451c5.825,0,10.644-4.567,11.563-10.548    c-1.708-3.912-6.686-6.746-12.569-6.746c-4.407,0-8.299,1.596-10.697,4.038c-0.01,0.214-0.03,0.426-0.03,0.643    C154.633,216.803,159.887,222.451,166.367,222.451z" fill="#303030" opacity="0.2"/></g><g><ellipse cx="134.138" cy="234.603" fill="#818385" rx="3.02" ry="2.627"/><polygon fill="#5A5B5D" points="132.783,232.563 132.114,233.114 135.494,236.643 136.162,236.091   "/></g><g><ellipse cx="168.785" cy="344.95" fill="#EB272A" rx="11.733" ry="12.614"/><g><path d="M168.509,343.174c-2.72,0-4.163-1.728-4.163-3.838c0-2.183,1.619-3.717,4.01-3.717     c2.509,0,4.152,1.631,4.152,3.839C172.508,341.715,170.854,343.174,168.509,343.174z M168.38,336.76     c-1.689,0-3.202,0.956-3.202,2.637c0,1.694,1.49,2.649,3.284,2.649c1.571,0,3.213-0.858,3.213-2.636     C171.676,337.644,170.115,336.76,168.38,336.76z" fill="#272626"/><path d="M172.379,344.564v4.453h-0.856v-3.386h-2.627v3.128h-0.844v-3.128h-3.577v-1.067H172.379z" fill="#272626"/><path d="M172.379,350.542v4.453h-0.856v-3.386h-2.627v3.128h-0.844v-3.128h-3.577v-1.067H172.379z" fill="#272626"/></g><path d="M168.785,357.573c5.543,0,10.175-4.231,11.404-9.913c-1.278-4.343-6.243-7.584-12.184-7.584    c-4.704,0-8.795,2.032-10.933,5.03C157.284,352.029,162.44,357.573,168.785,357.573z" fill="#191818" opacity="0.1"/></g></g><g id="Hand"><g><path d="M230.163,330.273l-60.714-16.386l6.4-30.499l-21.75-7.452l-3.091,11.222c0,0-8.104,25.798-7.955,33.979    c0.148,8.182,10.423,12.802,10.346,13.034c-0.076,0.231,68.201,22.109,68.201,22.109c9.737,3.276,19.548,0.108,21.913-7.073    C245.876,342.024,239.899,333.547,230.163,330.273z" fill="#9A9B9E"/><path d="M160.882,248.934c-0.444,2.109-0.842,4.232-1.223,6.36c-2.629,1.056-4.58,2.81-5.356,5.173    c-1.889,5.749,3.794,12.833,12.694,15.825c8.9,2.99,17.646,0.755,19.536-4.993c0.781-2.376,0.254-4.977-1.248-7.423    c1.276-1.566,2.602-3.105,3.891-4.663c4.257,4.604,6.167,10.032,4.575,14.873c-2.833,8.622-15.625,12.085-28.571,7.735    c-12.946-4.351-21.144-14.867-18.31-23.489C148.593,253.09,154,249.765,160.882,248.934z" fill="#595A5C"/></g><g><path d="M241.665,202.439c-5.393-5.132-16.714-5.289-25.286-0.352c0,0-60.564,33.761-60.39,33.926    c0.175,0.166-8.389,6.3-5.146,12.829c3.244,6.529,22.216,25.054,22.216,25.054l7.811,8.165l19.094-11.137l-19.187-22.668    l55.13-27.585C244.479,215.734,247.057,207.571,241.665,202.439z" fill="#B9C0C9"/><path d="M219.488,274.797c-6.477-6.159-20.571-6.055-31.479,0.231c-10.908,6.287-14.5,16.375-8.023,22.533    c3.637,3.457,9.676,4.919,16.202,4.438c-0.757-1.621-1.478-3.256-2.25-4.87c-3.063-0.241-5.75-1.195-7.535-2.894    c-4.318-4.104-1.739-10.935,5.76-15.258c7.5-4.321,17.08-4.497,21.397-0.393c1.775,1.688,2.363,3.838,1.944,6.085    c1.768,1.311,3.521,2.632,5.237,3.975C223.63,283.734,223.426,278.539,219.488,274.797z" fill="#595A5C"/></g></g><g id="Foot"><g><path d="M122.943,311.09c-7.58-13.628-39.189-10.508-70.599,6.97l27.452,49.347    C111.206,349.931,130.524,324.717,122.943,311.09z" fill="#9A9B9E"/><polygon fill="#232323" points="60.689,327.59 58.454,328.81 76.093,360.909 78.329,359.689   "/></g><g><path d="M117.847,216.444c-10.435-12.311-41.121-3.446-68.538,19.798l37.789,44.578    C114.515,257.576,128.282,228.754,117.847,216.444z" fill="#B9C0C9"/><polygon fill="#232323" points="57.981,242.81 56.164,244.372 79.965,272.212 81.782,270.649   "/></g></g><g id="Head"><path d="M428.766,245.703c-10.379,3.001-20.014,10.03-27.126,19.791l0.789,0.576   c6.987-9.587,16.437-16.486,26.607-19.427c10.129-2.928,19.768-1.58,27.145,3.796l0.576-0.79   C449.132,244.091,439.189,242.688,428.766,245.703z" fill="#686867"/><path d="M391.8,179.804l-104.377,1.856c-6.453,0.114-11.638,5.487-11.523,11.94l2.88,161.974   c0.115,6.451,5.489,11.638,11.94,11.522l104.378-1.855c6.452-0.115,11.638-5.488,11.522-11.94l-2.88-161.973   C403.625,184.874,398.253,179.688,391.8,179.804z" fill="#EC5958"/><polygon fill="#6FCBD2" points="369.586,248.185 356.972,239.21 356.646,220.818 368.932,211.401 381.545,220.376 381.873,238.767     "/><ellipse cx="457.344" cy="256.016" fill="#6D2F2F" rx="6.898" ry="5.392" transform="matrix(0.0205 -0.9998 0.9998 0.0205 192.0263 708.0276)"/><rect fill="#333232" height="23.759" transform="matrix(0.9993 -0.0385 0.0385 0.9993 -8.5976 14.3661)" width="1.827" x="367.846" y="218.565"/><rect fill="#5FC6CA" height="63.966" transform="matrix(0.9995 -0.0316 0.0316 0.9995 -8.5772 10.1888)" width="28.328" x="303.77" y="244.366"/><polygon fill="#232222" points="320.446,275.075 314.696,267.088 314.787,269.464 319.662,276.037 319.665,276.105    315.307,283.032 315.398,285.409 320.521,277.004  "/><g><ellipse cx="390.453" cy="191.671" fill="#818385" rx="7.008" ry="6.096"/><polygon fill="#5A5B5D" points="387.308,186.938 385.757,188.217 393.599,196.403 395.149,195.124   "/></g><g><ellipse cx="291.069" cy="195.185" fill="#818385" rx="7.008" ry="6.096"/><polygon fill="#5A5B5D" points="287.924,190.452 286.373,191.731 294.215,199.917 295.766,198.638   "/></g><g><ellipse cx="395.15" cy="353.025" fill="#818385" rx="7.008" ry="6.096"/><polygon fill="#5A5B5D" points="392.005,348.293 390.454,349.571 398.296,357.758 399.846,356.479   "/></g><g><ellipse cx="292.128" cy="355.155" fill="#818385" rx="7.008" ry="6.096"/><polygon fill="#5A5B5D" points="288.983,350.423 287.433,351.701 295.273,359.887 296.824,358.607   "/></g><polygon fill="#2D2D2D" opacity="0.1" points="356.972,239.21 369.586,248.185 381.873,238.767 381.718,230.104 356.822,230.76     "/><path d="M278.779,355.573c0.115,6.451,5.489,11.638,11.94,11.522l104.378-1.855   c6.452-0.115,11.638-5.488,11.522-11.94l-1.424-80.046l-127.81,3.981L278.779,355.573z" fill="#2B2A2A" opacity="0.1"/><polygon fill="#5FC6CA" points="383.118,308.831 370.505,299.855 358.218,309.273 358.545,327.665 371.158,336.639    383.445,327.222  "/><rect fill="#333232" height="23.759" transform="matrix(0.9993 -0.0379 0.0379 0.9993 -11.8125 14.2988)" width="1.827" x="369.918" y="306.501"/><polygon fill="#1D1E1E" opacity="0.1" points="358.545,327.665 371.158,336.639 383.445,327.222 383.272,317.489 358.37,317.801     "/></g><g id="Text"><g><path d="M408.827,175.103l-1.121-7.718c-0.086-0.714-0.14-1.364-0.21-2.09l-0.032-0.037l-4.208,2.927l-1.155-1.313    l5.927-4.121l0.879,1.027l1.104,7.61c0.118,0.723,0.188,1.39,0.24,2.098l0.034,0.037l4.545-3.161l1.141,1.295l-6.313,4.39    L408.827,175.103z" fill="#332F2F"/></g><g><path d="M421.253,156.441l-7.81-11.827c-0.689-1.109-1.271-2.138-1.94-3.281l-0.088-0.035l-5.624,8.342    l-3.117-1.208l7.923-11.748l2.392,0.967l7.7,11.663c0.756,1.097,1.379,2.143,2.004,3.268l0.09,0.034l6.075-9.009l3.077,1.191    l-8.441,12.513L421.253,156.441z" fill="#332F2F"/></g><g><path d="M435.552,136.175l-6.995-19.829c-0.609-1.844-1.112-3.531-1.694-5.415l-0.091-0.083l-7.148,9.743    l-3.23-2.91l10.068-13.72l2.475,2.29l6.895,19.552c0.683,1.851,1.229,3.579,1.766,5.42l0.093,0.083l7.722-10.522l3.188,2.869    l-10.727,14.613L435.552,136.175z" fill="#2B2727"/></g></g></svg>