<?xml version="1.0" ?><!DOCTYPE svg  PUBLIC '-//W3C//DTD SVG 1.1//EN'  'http://www.w3.org/Graphics/SVG/1.1/DTD/svg11.dtd'><svg enable-background="new 0 0 512 512" height="512px" version="1.1" viewBox="0 0 512 512" width="512px" xml:space="preserve" xmlns="http://www.w3.org/2000/svg" xmlns:xlink="http://www.w3.org/1999/xlink"><g id="Background"><circle cx="256" cy="256" fill="#15A2B5" r="256"/></g><g id="Shadow"><path d="M471.848,393.696L285.809,139.229l-18.143,8.117l-34.723-33.109h-16.732l-11.356,22.484l-78.16,101.688   L147.231,256l-62.794,73.932l67.708,98.174l28.809-108.272l26.151,94.077l44.141,22.781l180.797,5.16   C447.179,427.51,460.566,411.343,471.848,393.696z" opacity="0.07"/><ellipse cx="360.512" cy="443.745" fill="#0F4F54" opacity="0.3" rx="61.238" ry="9.287"/><ellipse cx="194.686" cy="436.071" fill="#0F4F54" opacity="0.3" rx="96.149" ry="10.759"/></g><g id="Poop"><ellipse cx="357.711" cy="436.153" fill="#633C21" rx="34.834" ry="10.321"/><ellipse cx="357.281" cy="426.692" fill="#7C4E2F" rx="24.083" ry="10.321"/><ellipse cx="356.851" cy="418.951" fill="#8E5E3D" rx="17.632" ry="10.321"/><g><path d="M374.876,371.843c0.609-0.263,1.282-0.342,1.997-0.425c0.338-0.039,0.678-0.079,1.011-0.139    c2.629-0.466,4.92-2.397,6.127-5.165c1.208-2.769,1.066-5.762-0.38-8.006l-0.723,0.466c1.289,2.002,1.407,4.691,0.314,7.195    c-1.092,2.504-3.145,4.247-5.489,4.663c-0.316,0.057-0.639,0.094-0.961,0.132c-0.743,0.086-1.513,0.176-2.237,0.489    c-0.838,0.361-1.522,0.986-2.137,1.607c-4.292,4.337-7.145,10.05-8.033,16.084l0.852,0.126c0.862-5.855,3.629-11.397,7.794-15.605    C373.65,372.619,374.212,372.13,374.876,371.843z" fill="#302E2C"/><path d="M356.697,372.271l-0.658,0.553c0.83,0.988,1.414,2.165,1.699,3.421c-4.197,1.669-6.905,6.348-6.203,10.827    l0.85-0.133c-0.647-4.137,2.039-8.63,5.99-10.015l0.347-0.121l-0.064-0.361C358.379,374.908,357.701,373.466,356.697,372.271z" fill="#302E2C"/><path d="M337.605,373.257l-0.22,0.039c-2.641,0.485-5.139-1.453-6.335-3.459c-1.379-2.31-1.763-5.168-2.102-7.691    l-0.852,0.113c0.35,2.605,0.745,5.558,2.214,8.019c1.312,2.197,4.042,4.317,7.005,3.902c4.913,4.881,8.266,11.315,9.45,18.14    l0.847-0.148c-1.228-7.071-4.725-13.732-9.849-18.759L337.605,373.257z" fill="#302E2C"/><path d="M396.427,386.169l-0.785,3.331c-8.227-0.279-15.781,4.275-22.813,8.975l0.479,0.716    c7.013-4.688,14.555-9.227,22.648-8.816l0.357,0.019l0.95-4.027L396.427,386.169z" fill="#302E2C"/></g><path d="M349.192,416.544c2.144,1.492,4.974,2.407,8.089,2.407c3.114,0,5.944-0.915,8.089-2.407   c0.865-1.558,1.372-3.379,1.372-5.334c0-5.699-4.236-10.321-9.461-10.321c-5.226,0-9.461,4.622-9.461,10.321   C347.82,413.165,348.327,414.986,349.192,416.544z" fill="#9E6D4C"/></g><g id="Body"><path d="M258.412,254.069L146.647,246.4c-10.698-0.734-20.051,7.418-20.785,18.115l-6.608,96.299   c-0.734,10.697,7.418,20.05,18.116,20.784l111.765,7.668c10.697,0.734,20.051-7.417,20.785-18.114l6.607-96.298   C277.262,264.156,269.11,254.803,258.412,254.069z" fill="#EC615D"/><path d="M345.275,267.917l-0.742,0.434c0.816,1.399,0.965,3.035,0.432,4.729c-0.848,2.692-3.332,5.213-6.646,6.741   l0.361,0.781c3.529-1.629,6.186-4.345,7.105-7.263C346.394,271.406,346.218,269.531,345.275,267.917z" fill="#010101"/><g><rect fill="#EF3A47" height="89.062" transform="matrix(0.0685 -0.9977 0.9977 0.0685 -156.6356 514.9152)" width="62.634" x="166.096" y="296.803"/><rect fill="#EC2227" height="85.013" transform="matrix(0.0685 -0.9977 0.9977 0.0685 -156.3626 515.088)" width="59.344" x="167.97" y="298.768"/></g><path d="M228.561,319.037l-0.483-0.033c-1.101-0.076-2.064,0.763-2.139,1.864l-2.984,43.477   c-0.075,1.101,0.764,2.064,1.865,2.14l0.483,0.032c1.102,0.076,2.064-0.763,2.139-1.864l2.983-43.476   C230.501,320.075,229.662,319.112,228.561,319.037z" fill="#010101"/><path d="M227.986,323.883c-1.234-0.085-2.31,0.812-2.391,1.991l-0.53,7.723c-0.081,1.181,0.863,2.214,2.097,2.299   c1.234,0.085,2.31-0.812,2.391-1.99l0.53-7.724C230.164,325.003,229.22,323.968,227.986,323.883z" fill="#FCEE23"/><path d="M227.043,337.612c-1.234-0.085-2.31,0.812-2.391,1.99l-0.53,7.724c-0.081,1.18,0.863,2.214,2.097,2.299   c1.234,0.085,2.31-0.812,2.392-1.991l0.53-7.723C229.221,338.731,228.278,337.696,227.043,337.612z" fill="#019547"/><path d="M226.102,351.341c-1.234-0.084-2.31,0.812-2.391,1.992l-0.53,7.722c-0.081,1.181,0.862,2.215,2.097,2.299   c1.234,0.085,2.31-0.811,2.391-1.99l0.53-7.723C228.279,352.461,227.335,351.426,226.102,351.341z" fill="#2075BC"/><g><path d="M265.732,301.028c-4.123-2.93-6.814-7.387-7.581-12.551c-0.891-6.005,0.913-12.438,4.948-17.652    l0.68,0.526c-3.892,5.03-5.633,11.226-4.777,17c0.732,4.93,3.299,9.183,7.229,11.976L265.732,301.028z" fill="#AF2222"/></g><g><path d="M134.748,293.794l-0.68-0.526c4.885-6.313,7.23-13.933,6.274-20.383c-0.638-4.3-2.654-7.766-5.832-10.023    l0.498-0.701c3.374,2.396,5.512,6.062,6.185,10.599C142.182,279.436,139.773,287.299,134.748,293.794z" fill="#AF2222"/></g><g><path d="M305.207,302.016c0,12.616-7.741,22.881-17.255,22.881v0.86c9.989,0,18.114-10.65,18.114-23.741H305.207z" fill="#3A3435"/><path d="M294.065,301.959h-0.86c0,5.969-4.134,10.824-9.217,10.824v0.859    C289.545,313.643,294.065,308.401,294.065,301.959z" fill="#3A3435"/></g><g><path d="M183.858,86.037c2.908-12.277,12.806-20.48,22.064-18.287l0.198-0.836    c-9.719-2.303-20.081,6.188-23.1,18.925L183.858,86.037z" fill="#363638"/><path d="M194.686,88.66l0.837,0.198c1.375-5.807,6.518-9.579,11.464-8.407l0.198-0.837    C201.778,78.333,196.171,82.391,194.686,88.66z" fill="#363638"/></g><g><ellipse cx="138.122" cy="334.247" fill="#3EB172" rx="10.321" ry="11.096" transform="matrix(0.1281 -0.9918 0.9918 0.1281 -211.0675 428.4029)"/><g><path d="M138.201,334.147c-0.307,2.373-1.978,3.438-3.818,3.199c-1.905-0.246-3.061-1.831-2.791-3.917     c0.283-2.189,1.892-3.438,3.817-3.189C137.378,330.495,138.465,332.102,138.201,334.147z M132.589,333.537     c-0.19,1.473,0.474,2.901,1.94,3.09c1.477,0.19,2.479-1,2.682-2.565c0.177-1.37-0.387-2.899-1.939-3.101     C133.732,330.762,132.785,332.023,132.589,333.537z" fill="#232323"/><path d="M138.959,337.824l0.891-6.896l1.017,0.131l1.861,3.787c0.431,0.879,0.754,1.659,1.005,2.408l0.022-0.007     c0.033-0.933,0.121-1.774,0.26-2.849l0.373-2.885l0.877,0.113l-0.891,6.896l-0.942-0.121l-1.838-3.795     c-0.404-0.833-0.784-1.683-1.051-2.477l-0.034,0.006c-0.058,0.877-0.145,1.709-0.292,2.854l-0.38,2.946L138.959,337.824z" fill="#232323"/></g><path d="M149.127,335.669c0.656-5.082-2.784-9.801-7.899-11.276    c-3.605,1.048-6.638,5.072-7.301,10.204c-0.497,3.845,0.457,7.42,2.316,9.787c0.186,0.032,0.368,0.075,0.557,0.1    C142.877,345.268,148.396,341.321,149.127,335.669z" fill="#303030" opacity="0.2"/></g><g><ellipse cx="256.579" cy="342.251" fill="#EB272A" rx="10.322" ry="11.096" transform="matrix(0.1371 -0.9906 0.9906 0.1371 -117.6267 549.4689)"/><g><path d="M254.998,342.278c-0.329,2.37-2.009,3.419-3.848,3.164c-1.901-0.263-3.043-1.858-2.754-3.942     c0.302-2.187,1.922-3.421,3.846-3.154C254.208,338.618,255.28,340.234,254.998,342.278z M249.392,341.616     c-0.204,1.473,0.448,2.905,1.912,3.108c1.475,0.204,2.488-0.979,2.704-2.542c0.19-1.368-0.36-2.903-1.909-3.118     C250.559,338.853,249.602,340.104,249.392,341.616z" fill="#272626"/><path d="M256.675,339.074l3.879,0.536l-0.104,0.746l-2.949-0.408l-0.316,2.289l2.725,0.378l-0.101,0.734     l-2.726-0.377l-0.432,3.117l-0.93-0.129L256.675,339.074z" fill="#272626"/><path d="M261.884,339.794l3.88,0.537l-0.104,0.747l-2.949-0.408l-0.317,2.289l2.726,0.377l-0.102,0.734     l-2.725-0.377l-0.433,3.117l-0.93-0.129L261.884,339.794z" fill="#272626"/></g><path d="M267.576,343.774c0.669-4.83-2.459-9.377-7.262-11.133    c-3.939,0.591-7.361,4.525-8.077,9.702c-0.567,4.098,0.709,7.909,3.065,10.133C261.359,353.127,266.811,349.303,267.576,343.774z" fill="#191818" opacity="0.1"/></g><g><ellipse cx="160.871" cy="314.346" fill="#818385" rx="2.676" ry="3.076" transform="matrix(0.0451 -0.999 0.999 0.0451 -160.4066 460.8837)"/><polygon fill="#5A5B5D" points="159.585,312.208 158.88,312.738 162.156,316.482 162.862,315.953   "/></g><g><ellipse cx="157.796" cy="362.274" fill="#818385" rx="2.676" ry="3.077" transform="matrix(0.0449 -0.999 0.999 0.0449 -211.1957 503.6497)"/><polygon fill="#5A5B5D" points="156.51,360.137 155.805,360.667 159.082,364.411 159.787,363.881   "/></g><g><ellipse cx="236.63" cy="320.618" fill="#818385" rx="2.676" ry="3.076" transform="matrix(0.0452 -0.999 0.999 0.0452 -94.3488 542.5253)"/><polygon fill="#5A5B5D" points="235.344,318.48 234.639,319.011 237.916,322.756 238.621,322.226   "/></g><g><ellipse cx="233.555" cy="368.546" fill="#818385" rx="2.676" ry="3.077" transform="matrix(0.045 -0.999 0.999 0.045 -145.1231 585.2888)"/><polygon fill="#5A5B5D" points="232.269,366.409 231.564,366.939 234.841,370.685 235.546,370.153   "/></g><path d="M258.412,254.069l-54.142-3.715l-6.172,135.411l51.037,3.501   c10.697,0.734,20.051-7.417,20.785-18.114l6.607-96.298C277.262,264.156,269.11,254.803,258.412,254.069z" fill="#232121" opacity="0.1"/><g><ellipse cx="200.046" cy="284.113" fill="#5FC6CA" rx="19.876" ry="18.492" transform="matrix(0.0539 -0.9985 0.9985 0.0539 -94.4447 468.5407)"/><path d="M200.987,264.689c-1.034-0.056-2.051-0.014-3.047,0.109    c-1.999,2.709-14.925,21.498-2.502,38.398c1.108,0.291,2.256,0.479,3.44,0.542c10.085,0.545,18.732-7.756,19.315-18.538    C218.775,274.418,211.072,265.233,200.987,264.689z" fill="#1C1C1C" opacity="0.2"/><path d="M216.635,275.208c-8.919,6.67-23.417,6.115-32.414-1.239" fill="none"/><path d="M216.348,293.478c-9.106,6.812-24.081,6.103-33.48-1.581" fill="none"/><g><path d="M216.6,293.816c1.339-2.595,2.17-5.538,2.34-8.683c0.604-11.181-7.381-20.734-17.799-21.298     c-10.418-0.563-19.386,8.076-19.99,19.257c-0.174,3.227,0.37,6.315,1.479,9.094l-0.035,0.043c0.024,0.02,0.051,0.036,0.075,0.056     c2.752,6.798,8.904,11.706,16.28,12.104c7.481,0.403,14.215-3.938,17.639-10.558c0.006-0.002,0.011-0.006,0.015-0.009     L216.6,293.816z M199.305,290.093c6.703,0.361,13.474-1.245,18.766-4.865c-0.176,2.896-0.936,5.612-2.149,8.02     c-8.878,6.499-23.355,5.822-32.546-1.508c-0.937-2.398-1.432-5.034-1.39-7.786C186.858,287.681,193.043,289.754,199.305,290.093z      M182.028,282.913c0.195-3.015,1.022-5.83,2.334-8.305c4.381,3.425,9.973,5.324,15.604,5.628     c5.938,0.321,11.896-1.136,16.486-4.39c1.089,2.524,1.684,5.338,1.658,8.288C208.033,291.444,191.986,290.912,182.028,282.913z      M201.095,264.695c6.59,0.356,12.156,4.494,14.996,10.36c-8.678,6.26-22.549,5.726-31.305-1.205     C188.189,268.056,194.32,264.329,201.095,264.695z M198.998,303.53c-6.529-0.353-12.057-4.418-14.919-10.196     c4.468,3.139,9.94,4.893,15.409,5.188c5.538,0.299,11.057-0.895,15.496-3.614C211.523,300.398,205.563,303.885,198.998,303.53z" fill="#333333"/></g></g></g><g id="Foot"><g><path d="M255.429,374.424c-12.189-6.29-33.825,11.388-48.324,39.486l44.141,22.781    C265.745,408.594,267.618,380.716,255.429,374.424z" fill="#A8AAAD"/><polygon fill="#302D2D" points="245.368,433.734 216.815,418.81 217.859,416.828 246.413,431.753   "/></g><g><path d="M151.559,371.954c-14.194,0.21-25.32,26.01-24.85,57.625l51.401-0.761    C177.64,397.203,165.752,371.744,151.559,371.954z" fill="#D1D2D3"/><polygon fill="#3D3939" points="168.275,428.854 136.062,429.465 136.016,427.357 168.229,426.745   "/></g></g><g id="Hand"><g><path d="M135.645,269.382c-4.568-4.833-13-4.284-18.833,1.228L83.47,306.742l-20.665-17.929l-13.13,12.251    l7.347,7.122c0,0,16.545,17.083,22.735,20.561c6.19,3.479,13.218-1.827,13.366-1.67c0.148,0.156,40.232-38.965,40.232-38.965    C139.189,282.602,140.213,274.215,135.645,269.382z" fill="#D1D2D3"/><path d="M60.974,273.754c-3.332-3.528-8.505-4.541-13.718-3.223c1.164,1.49,2.301,3.004,3.428,4.526    c2.29,0.063,4.379,0.854,5.881,2.445c3.654,3.869,2.479,10.914-2.626,15.735c-5.105,4.82-12.206,5.592-15.859,1.722    c-1.511-1.599-2.185-3.741-2.105-6.044c-1.536-0.838-3.095-1.641-4.636-2.469c-1.164,4.739-0.332,9.441,2.746,12.7    c5.481,5.804,15.944,4.824,23.369-2.188C64.879,289.948,66.456,279.559,60.974,273.754z" fill="#6A6A6B"/></g><path d="M339.466,266.525c-1.179-7.457-11.598-31.31-11.598-31.31l-4.194-10.358l-15.833,5.93l9.831,28.075   l-44.898,12.527c-7.098,2.6-10.431,10.095-7.445,16.739c2.986,6.645,11.161,9.925,18.259,7.325c0,0,49.944-17.237,49.848-17.452   S340.644,273.981,339.466,266.525z" fill="#A8AAAD"/><path d="M326.543,209.087c-2.177-4.85-6.933-8.099-12.446-9.129c0.681,1.941,1.328,3.893,1.963,5.849   c2.224,1.068,4.026,2.746,5.009,4.933c2.387,5.318-0.938,11.554-7.428,13.928c-6.487,2.374-13.682-0.013-16.069-5.332   c-0.986-2.198-0.986-4.549-0.199-6.721c-1.245-1.479-2.525-2.936-3.78-4.408c-2.602,4.031-3.236,8.905-1.226,13.384   c3.581,7.978,14.134,11.646,23.571,8.193C325.375,226.331,330.123,217.065,326.543,209.087z" fill="#4F5154"/></g><g id="Head"><g><polygon fill="#363638" points="206.396,134.163 205.64,133.753 216.211,114.236 232.943,114.236 212.176,97.315 212.72,96.648     235.36,115.097 216.723,115.097   "/></g><path d="M281.79,137.487l-142.259-8.333c-5.667-0.332-10.575,4.033-10.907,9.7l-5.37,91.673   c-0.332,5.667,4.033,10.576,9.7,10.907l142.258,8.333c5.667,0.333,10.575-4.033,10.906-9.7l5.37-91.672   C291.821,142.728,287.457,137.819,281.79,137.487z" fill="#EC615D"/><ellipse cx="210.037" cy="92.963" fill="#FCEE23" rx="4.743" ry="6.068" transform="matrix(0.0585 -0.9983 0.9983 0.0585 104.9514 297.2047)"/><g><ellipse cx="141.411" cy="139.229" fill="#818385" rx="5.064" ry="5.821" transform="matrix(0.045 -0.999 0.999 0.045 -4.0378 274.2339)"/><polygon fill="#5A5B5D" points="138.978,135.184 137.643,136.188 143.844,143.273 145.179,142.27   "/></g><g><ellipse cx="279.99" cy="147.346" fill="#818385" rx="5.064" ry="5.822" transform="matrix(0.045 -0.999 0.999 0.045 120.1864 420.4169)"/><polygon fill="#5A5B5D" points="277.556,143.301 276.222,144.305 282.423,151.391 283.758,150.387   "/></g><g><ellipse cx="272.051" cy="238.417" fill="#818385" rx="5.064" ry="5.822" transform="matrix(0.0449 -0.999 0.999 0.0449 21.6511 499.4807)"/><polygon fill="#5A5B5D" points="269.617,234.372 268.283,235.375 274.484,242.462 275.819,241.458   "/></g><g><ellipse cx="135.592" cy="229.923" fill="#818385" rx="5.064" ry="5.822" transform="matrix(0.0449 -0.999 0.999 0.0449 -100.1916 355.0475)"/><polygon fill="#5A5B5D" points="133.158,225.878 131.823,226.882 138.025,233.967 139.36,232.964   "/></g><g><polygon fill="#818182" points="187.111,162.923 178.394,173.385 162.241,172.438 154.805,161.031 163.522,150.569     179.675,151.515   "/><ellipse cx="173.213" cy="163.992" fill="#FCEE23" rx="7.741" ry="6.881"/><polygon fill="#232121" opacity="0.1" points="173.167,151.134 171.367,172.973 178.394,173.385 187.111,162.923 179.675,151.515       "/></g><g><polygon fill="#818182" points="268.51,166.65 259.793,177.112 243.64,176.166 236.205,164.758 244.921,154.296 261.074,155.242       "/><ellipse cx="254.613" cy="167.719" fill="#FCEE23" rx="7.741" ry="6.881"/><polygon fill="#232121" opacity="0.1" points="254.566,154.861 252.767,176.7 259.793,177.112 268.51,166.65 261.074,155.242       "/></g><path d="M204.486,245.625l70.727,4.143c5.667,0.333,10.575-4.033,10.906-9.7l5.37-91.672   c0.332-5.667-4.032-10.575-9.699-10.907l-71.753-4.203L204.486,245.625z" fill="#232121" opacity="0.1"/></g><g id="Mask"><g><ellipse cx="208.541" cy="210.094" fill="#634E50" rx="28.134" ry="43.935" transform="matrix(0.096 -0.9954 0.9954 0.096 -20.599 397.5061)"/><rect fill="#3F2325" height="45.447" transform="matrix(0.4923 -0.8704 0.8704 0.4923 -93.8762 224.3821)" width="0.86" x="144.973" y="169.939"/><g><rect fill="#3F2325" height="44.351" transform="matrix(0.5586 0.8294 -0.8294 0.5586 287.0797 -135.6523)" width="0.86" x="270.567" y="179.734"/></g><ellipse cx="208.541" cy="210.094" fill="#443336" rx="26.51" ry="41.398" transform="matrix(0.096 -0.9954 0.9954 0.096 -20.5984 397.5068)"/><path d="M206.968,238.161c23.814,2.024,44.17-8.553,45.645-23.85    c1.337-13.862-13.284-26.88-33.718-31.111C209.378,189.562,184.562,209.985,206.968,238.161z" fill="#050606" opacity="0.3"/></g></g></svg>